G04 MADE WITH FRITZING*
G04 WWW.FRITZING.ORG*
G04 DOUBLE SIDED*
G04 HOLES PLATED*
G04 CONTOUR ON CENTER OF CONTOUR VECTOR*
%FSLAX26Y26*%
%MOIN*%
%ADD10R,0.001000X0.001000*%
G04 SILK0*
%FSLAX26Y26*%
%MOIN*%
D10*
X1058500Y3893240D02*
X1105500Y3893240D01*
X1056500Y3892240D02*
X1106500Y3892240D01*
X1055500Y3891240D02*
X1107500Y3891240D01*
X1055500Y3890240D02*
X1107500Y3890240D01*
X1055500Y3889240D02*
X1107500Y3889240D01*
X1055500Y3888240D02*
X1107500Y3888240D01*
X1056500Y3887240D02*
X1106500Y3887240D01*
X1073500Y3886240D02*
X1083500Y3886240D01*
X1094500Y3886240D02*
X1103500Y3886240D01*
X1073500Y3885240D02*
X1081500Y3885240D01*
X1096500Y3885240D02*
X1104500Y3885240D01*
X1072500Y3884240D02*
X1080500Y3884240D01*
X1096500Y3884240D02*
X1105500Y3884240D01*
X1071500Y3883240D02*
X1080500Y3883240D01*
X1097500Y3883240D02*
X1105500Y3883240D01*
X1071500Y3882240D02*
X1079500Y3882240D01*
X1098500Y3882240D02*
X1106500Y3882240D01*
X1070500Y3881240D02*
X1078500Y3881240D01*
X1099500Y3881240D02*
X1107500Y3881240D01*
X1070500Y3880240D02*
X1077500Y3880240D01*
X1100500Y3880240D02*
X1107500Y3880240D01*
X1070500Y3879240D02*
X1076500Y3879240D01*
X1101500Y3879240D02*
X1107500Y3879240D01*
X1070500Y3878240D02*
X1076500Y3878240D01*
X1101500Y3878240D02*
X1107500Y3878240D01*
X1070500Y3877240D02*
X1075500Y3877240D01*
X1101500Y3877240D02*
X1107500Y3877240D01*
X1069500Y3876240D02*
X1075500Y3876240D01*
X1101500Y3876240D02*
X1107500Y3876240D01*
X1069500Y3875240D02*
X1075500Y3875240D01*
X1101500Y3875240D02*
X1107500Y3875240D01*
X1069500Y3874240D02*
X1075500Y3874240D01*
X1101500Y3874240D02*
X1107500Y3874240D01*
X1069500Y3873240D02*
X1075500Y3873240D01*
X1101500Y3873240D02*
X1107500Y3873240D01*
X1070500Y3872240D02*
X1075500Y3872240D01*
X1101500Y3872240D02*
X1107500Y3872240D01*
X1070500Y3871240D02*
X1076500Y3871240D01*
X1101500Y3871240D02*
X1107500Y3871240D01*
X1070500Y3870240D02*
X1076500Y3870240D01*
X1101500Y3870240D02*
X1107500Y3870240D01*
X1070500Y3869240D02*
X1077500Y3869240D01*
X1100500Y3869240D02*
X1107500Y3869240D01*
X1070500Y3868240D02*
X1078500Y3868240D01*
X1099500Y3868240D02*
X1107500Y3868240D01*
X1071500Y3867240D02*
X1079500Y3867240D01*
X1098500Y3867240D02*
X1106500Y3867240D01*
X1071500Y3866240D02*
X1081500Y3866240D01*
X1096500Y3866240D02*
X1105500Y3866240D01*
X1072500Y3865240D02*
X1105500Y3865240D01*
X1073500Y3864240D02*
X1104500Y3864240D01*
X1074500Y3863240D02*
X1103500Y3863240D01*
X1075500Y3862240D02*
X1102500Y3862240D01*
X1076500Y3861240D02*
X1101500Y3861240D01*
X1078500Y3860240D02*
X1099500Y3860240D01*
X1057500Y3840240D02*
X1059500Y3840240D01*
X1104500Y3840240D02*
X1105500Y3840240D01*
X1056500Y3839240D02*
X1060500Y3839240D01*
X1102500Y3839240D02*
X1107500Y3839240D01*
X1055500Y3838240D02*
X1061500Y3838240D01*
X1102500Y3838240D02*
X1107500Y3838240D01*
X1055500Y3837240D02*
X1061500Y3837240D01*
X1102500Y3837240D02*
X1107500Y3837240D01*
X1055500Y3836240D02*
X1061500Y3836240D01*
X1101500Y3836240D02*
X1107500Y3836240D01*
X1055500Y3835240D02*
X1061500Y3835240D01*
X1101500Y3835240D02*
X1107500Y3835240D01*
X1055500Y3834240D02*
X1061500Y3834240D01*
X1101500Y3834240D02*
X1107500Y3834240D01*
X1055500Y3833240D02*
X1061500Y3833240D01*
X1101500Y3833240D02*
X1107500Y3833240D01*
X1055500Y3832240D02*
X1061500Y3832240D01*
X1101500Y3832240D02*
X1107500Y3832240D01*
X1055500Y3831240D02*
X1061500Y3831240D01*
X1101500Y3831240D02*
X1107500Y3831240D01*
X1055500Y3830240D02*
X1107500Y3830240D01*
X1055500Y3829240D02*
X1107500Y3829240D01*
X1055500Y3828240D02*
X1107500Y3828240D01*
X1055500Y3827240D02*
X1107500Y3827240D01*
X1055500Y3826240D02*
X1107500Y3826240D01*
X1055500Y3825240D02*
X1107500Y3825240D01*
X1056500Y3824240D02*
X1107500Y3824240D01*
X1101500Y3823240D02*
X1107500Y3823240D01*
X1101500Y3822240D02*
X1107500Y3822240D01*
X1101500Y3821240D02*
X1107500Y3821240D01*
X1101500Y3820240D02*
X1107500Y3820240D01*
X1101500Y3819240D02*
X1107500Y3819240D01*
X1101500Y3818240D02*
X1107500Y3818240D01*
X1101500Y3817240D02*
X1107500Y3817240D01*
X1102500Y3816240D02*
X1107500Y3816240D01*
X1102500Y3815240D02*
X1107500Y3815240D01*
X1103500Y3814240D02*
X1106500Y3814240D01*
X1071500Y3793240D02*
X1101500Y3793240D01*
X1070500Y3792240D02*
X1103500Y3792240D01*
X1070500Y3791240D02*
X1104500Y3791240D01*
X1070500Y3790240D02*
X1105500Y3790240D01*
X1070500Y3789240D02*
X1106500Y3789240D01*
X1070500Y3788240D02*
X1106500Y3788240D01*
X1072500Y3787240D02*
X1107500Y3787240D01*
X1100500Y3786240D02*
X1107500Y3786240D01*
X1101500Y3785240D02*
X1107500Y3785240D01*
X1101500Y3784240D02*
X1107500Y3784240D01*
X1101500Y3783240D02*
X1107500Y3783240D01*
X1101500Y3782240D02*
X1107500Y3782240D01*
X1101500Y3781240D02*
X1107500Y3781240D01*
X1101500Y3780240D02*
X1107500Y3780240D01*
X1101500Y3779240D02*
X1107500Y3779240D01*
X1101500Y3778240D02*
X1107500Y3778240D01*
X1100500Y3777240D02*
X1107500Y3777240D01*
X1100500Y3776240D02*
X1107500Y3776240D01*
X1099500Y3775240D02*
X1106500Y3775240D01*
X1099500Y3774240D02*
X1106500Y3774240D01*
X1098500Y3773240D02*
X1105500Y3773240D01*
X1097500Y3772240D02*
X1104500Y3772240D01*
X1097500Y3771240D02*
X1104500Y3771240D01*
X1096500Y3770240D02*
X1103500Y3770240D01*
X1095500Y3769240D02*
X1103500Y3769240D01*
X1095500Y3768240D02*
X1102500Y3768240D01*
X1071500Y3767240D02*
X1106500Y3767240D01*
X1070500Y3766240D02*
X1107500Y3766240D01*
X1070500Y3765240D02*
X1107500Y3765240D01*
X1070500Y3764240D02*
X1107500Y3764240D01*
X1070500Y3763240D02*
X1107500Y3763240D01*
X1070500Y3762240D02*
X1107500Y3762240D01*
X1071500Y3761240D02*
X1106500Y3761240D01*
X1079500Y3744240D02*
X1099500Y3744240D01*
X1077500Y3743240D02*
X1101500Y3743240D01*
X1075500Y3742240D02*
X1102500Y3742240D01*
X1074500Y3741240D02*
X1103500Y3741240D01*
X1073500Y3740240D02*
X1104500Y3740240D01*
X1072500Y3739240D02*
X1105500Y3739240D01*
X1072500Y3738240D02*
X1105500Y3738240D01*
X1071500Y3737240D02*
X1079500Y3737240D01*
X1086500Y3737240D02*
X1092500Y3737240D01*
X1098500Y3737240D02*
X1106500Y3737240D01*
X1070500Y3736240D02*
X1078500Y3736240D01*
X1086500Y3736240D02*
X1092500Y3736240D01*
X1099500Y3736240D02*
X1106500Y3736240D01*
X1070500Y3735240D02*
X1077500Y3735240D01*
X1086500Y3735240D02*
X1092500Y3735240D01*
X1100500Y3735240D02*
X1107500Y3735240D01*
X1070500Y3734240D02*
X1076500Y3734240D01*
X1086500Y3734240D02*
X1092500Y3734240D01*
X1101500Y3734240D02*
X1107500Y3734240D01*
X1070500Y3733240D02*
X1076500Y3733240D01*
X1086500Y3733240D02*
X1092500Y3733240D01*
X1101500Y3733240D02*
X1107500Y3733240D01*
X1070500Y3732240D02*
X1075500Y3732240D01*
X1086500Y3732240D02*
X1092500Y3732240D01*
X1101500Y3732240D02*
X1107500Y3732240D01*
X1069500Y3731240D02*
X1075500Y3731240D01*
X1086500Y3731240D02*
X1092500Y3731240D01*
X1101500Y3731240D02*
X1107500Y3731240D01*
X1069500Y3730240D02*
X1075500Y3730240D01*
X1086500Y3730240D02*
X1092500Y3730240D01*
X1101500Y3730240D02*
X1107500Y3730240D01*
X1069500Y3729240D02*
X1075500Y3729240D01*
X1086500Y3729240D02*
X1092500Y3729240D01*
X1101500Y3729240D02*
X1107500Y3729240D01*
X1069500Y3728240D02*
X1075500Y3728240D01*
X1086500Y3728240D02*
X1092500Y3728240D01*
X1101500Y3728240D02*
X1107500Y3728240D01*
X1069500Y3727240D02*
X1075500Y3727240D01*
X1086500Y3727240D02*
X1092500Y3727240D01*
X1101500Y3727240D02*
X1107500Y3727240D01*
X1069500Y3726240D02*
X1075500Y3726240D01*
X1086500Y3726240D02*
X1092500Y3726240D01*
X1101500Y3726240D02*
X1107500Y3726240D01*
X1069500Y3725240D02*
X1075500Y3725240D01*
X1086500Y3725240D02*
X1092500Y3725240D01*
X1101500Y3725240D02*
X1107500Y3725240D01*
X1069500Y3724240D02*
X1075500Y3724240D01*
X1086500Y3724240D02*
X1092500Y3724240D01*
X1101500Y3724240D02*
X1107500Y3724240D01*
X1070500Y3723240D02*
X1075500Y3723240D01*
X1086500Y3723240D02*
X1092500Y3723240D01*
X1101500Y3723240D02*
X1107500Y3723240D01*
X1070500Y3722240D02*
X1076500Y3722240D01*
X1086500Y3722240D02*
X1092500Y3722240D01*
X1101500Y3722240D02*
X1107500Y3722240D01*
X1070500Y3721240D02*
X1076500Y3721240D01*
X1086500Y3721240D02*
X1092500Y3721240D01*
X1101500Y3721240D02*
X1107500Y3721240D01*
X1070500Y3720240D02*
X1077500Y3720240D01*
X1086500Y3720240D02*
X1092500Y3720240D01*
X1101500Y3720240D02*
X1107500Y3720240D01*
X1070500Y3719240D02*
X1078500Y3719240D01*
X1086500Y3719240D02*
X1092500Y3719240D01*
X1101500Y3719240D02*
X1107500Y3719240D01*
X1071500Y3718240D02*
X1079500Y3718240D01*
X1086500Y3718240D02*
X1092500Y3718240D01*
X1101500Y3718240D02*
X1107500Y3718240D01*
X1072500Y3717240D02*
X1092500Y3717240D01*
X1101500Y3717240D02*
X1107500Y3717240D01*
X1072500Y3716240D02*
X1092500Y3716240D01*
X1101500Y3716240D02*
X1107500Y3716240D01*
X1073500Y3715240D02*
X1092500Y3715240D01*
X1101500Y3715240D02*
X1107500Y3715240D01*
X1074500Y3714240D02*
X1091500Y3714240D01*
X1101500Y3714240D02*
X1107500Y3714240D01*
X1075500Y3713240D02*
X1091500Y3713240D01*
X1102500Y3713240D02*
X1107500Y3713240D01*
X1077500Y3712240D02*
X1091500Y3712240D01*
X1102500Y3712240D02*
X1107500Y3712240D01*
X1079500Y3711240D02*
X1090500Y3711240D01*
X1103500Y3711240D02*
X1106500Y3711240D01*
X1071500Y3695240D02*
X1119500Y3695240D01*
X1069500Y3694240D02*
X1121500Y3694240D01*
X1068500Y3693240D02*
X1122500Y3693240D01*
X1068500Y3692240D02*
X1122500Y3692240D01*
X1068500Y3691240D02*
X1122500Y3691240D01*
X1068500Y3690240D02*
X1121500Y3690240D01*
X1069500Y3689240D02*
X1120500Y3689240D01*
X1073500Y3688240D02*
X1082500Y3688240D01*
X1095500Y3688240D02*
X1104500Y3688240D01*
X1072500Y3687240D02*
X1081500Y3687240D01*
X1096500Y3687240D02*
X1105500Y3687240D01*
X1071500Y3686240D02*
X1080500Y3686240D01*
X1097500Y3686240D02*
X1106500Y3686240D01*
X1070500Y3685240D02*
X1079500Y3685240D01*
X1098500Y3685240D02*
X1107500Y3685240D01*
X1070500Y3684240D02*
X1078500Y3684240D01*
X1099500Y3684240D02*
X1107500Y3684240D01*
X1069500Y3683240D02*
X1077500Y3683240D01*
X1100500Y3683240D02*
X1108500Y3683240D01*
X1069500Y3682240D02*
X1076500Y3682240D01*
X1101500Y3682240D02*
X1108500Y3682240D01*
X1068500Y3681240D02*
X1075500Y3681240D01*
X1102500Y3681240D02*
X1108500Y3681240D01*
X1068500Y3680240D02*
X1074500Y3680240D01*
X1103500Y3680240D02*
X1109500Y3680240D01*
X1068500Y3679240D02*
X1074500Y3679240D01*
X1103500Y3679240D02*
X1109500Y3679240D01*
X1068500Y3678240D02*
X1074500Y3678240D01*
X1103500Y3678240D02*
X1109500Y3678240D01*
X1068500Y3677240D02*
X1074500Y3677240D01*
X1103500Y3677240D02*
X1109500Y3677240D01*
X1068500Y3676240D02*
X1074500Y3676240D01*
X1103500Y3676240D02*
X1109500Y3676240D01*
X1068500Y3675240D02*
X1075500Y3675240D01*
X1102500Y3675240D02*
X1109500Y3675240D01*
X1069500Y3674240D02*
X1076500Y3674240D01*
X1101500Y3674240D02*
X1108500Y3674240D01*
X1069500Y3673240D02*
X1077500Y3673240D01*
X1100500Y3673240D02*
X1108500Y3673240D01*
X1070500Y3672240D02*
X1077500Y3672240D01*
X1099500Y3672240D02*
X1107500Y3672240D01*
X1070500Y3671240D02*
X1078500Y3671240D01*
X1099500Y3671240D02*
X1107500Y3671240D01*
X1071500Y3670240D02*
X1079500Y3670240D01*
X1098500Y3670240D02*
X1106500Y3670240D01*
X1072500Y3669240D02*
X1080500Y3669240D01*
X1097500Y3669240D02*
X1105500Y3669240D01*
X1073500Y3668240D02*
X1104500Y3668240D01*
X1074500Y3667240D02*
X1103500Y3667240D01*
X1075500Y3666240D02*
X1102500Y3666240D01*
X1075500Y3665240D02*
X1102500Y3665240D01*
X1076500Y3664240D02*
X1101500Y3664240D01*
X1078500Y3663240D02*
X1099500Y3663240D01*
X1079500Y3662240D02*
X1098500Y3662240D01*
X1071500Y3645240D02*
X1106500Y3645240D01*
X1070500Y3644240D02*
X1107500Y3644240D01*
X1070500Y3643240D02*
X1107500Y3643240D01*
X1070500Y3642240D02*
X1107500Y3642240D01*
X1070500Y3641240D02*
X1107500Y3641240D01*
X1070500Y3640240D02*
X1106500Y3640240D01*
X1072500Y3639240D02*
X1105500Y3639240D01*
X1076500Y3638240D02*
X1085500Y3638240D01*
X1076500Y3637240D02*
X1084500Y3637240D01*
X1075500Y3636240D02*
X1083500Y3636240D01*
X1074500Y3635240D02*
X1082500Y3635240D01*
X1073500Y3634240D02*
X1081500Y3634240D01*
X1072500Y3633240D02*
X1080500Y3633240D01*
X1071500Y3632240D02*
X1079500Y3632240D01*
X1070500Y3631240D02*
X1079500Y3631240D01*
X1070500Y3630240D02*
X1078500Y3630240D01*
X1070500Y3629240D02*
X1077500Y3629240D01*
X1069500Y3628240D02*
X1076500Y3628240D01*
X1069500Y3627240D02*
X1075500Y3627240D01*
X1069500Y3626240D02*
X1075500Y3626240D01*
X1069500Y3625240D02*
X1075500Y3625240D01*
X1069500Y3624240D02*
X1075500Y3624240D01*
X1069500Y3623240D02*
X1075500Y3623240D01*
X1070500Y3622240D02*
X1075500Y3622240D01*
X1070500Y3621240D02*
X1076500Y3621240D01*
X1070500Y3620240D02*
X1076500Y3620240D01*
X1070500Y3619240D02*
X1077500Y3619240D01*
X1070500Y3618240D02*
X1082500Y3618240D01*
X1070500Y3617240D02*
X1083500Y3617240D01*
X1071500Y3616240D02*
X1083500Y3616240D01*
X1071500Y3615240D02*
X1083500Y3615240D01*
X1072500Y3614240D02*
X1083500Y3614240D01*
X1074500Y3613240D02*
X1083500Y3613240D01*
X1076500Y3612240D02*
X1082500Y3612240D01*
X1071500Y3592240D02*
X1074500Y3592240D01*
X1103500Y3592240D02*
X1106500Y3592240D01*
X1070500Y3591240D02*
X1075500Y3591240D01*
X1102500Y3591240D02*
X1107500Y3591240D01*
X1070500Y3590240D02*
X1075500Y3590240D01*
X1102500Y3590240D02*
X1107500Y3590240D01*
X1070500Y3589240D02*
X1075500Y3589240D01*
X1101500Y3589240D02*
X1107500Y3589240D01*
X1069500Y3588240D02*
X1075500Y3588240D01*
X1101500Y3588240D02*
X1107500Y3588240D01*
X1069500Y3587240D02*
X1075500Y3587240D01*
X1101500Y3587240D02*
X1107500Y3587240D01*
X1069500Y3586240D02*
X1075500Y3586240D01*
X1101500Y3586240D02*
X1107500Y3586240D01*
X1053500Y3585240D02*
X1060500Y3585240D01*
X1069500Y3585240D02*
X1075500Y3585240D01*
X1101500Y3585240D02*
X1107500Y3585240D01*
X1052500Y3584240D02*
X1060500Y3584240D01*
X1069500Y3584240D02*
X1075500Y3584240D01*
X1101500Y3584240D02*
X1107500Y3584240D01*
X1052500Y3583240D02*
X1061500Y3583240D01*
X1069500Y3583240D02*
X1075500Y3583240D01*
X1101500Y3583240D02*
X1107500Y3583240D01*
X1052500Y3582240D02*
X1061500Y3582240D01*
X1069500Y3582240D02*
X1107500Y3582240D01*
X1052500Y3581240D02*
X1061500Y3581240D01*
X1069500Y3581240D02*
X1107500Y3581240D01*
X1052500Y3580240D02*
X1061500Y3580240D01*
X1069500Y3580240D02*
X1107500Y3580240D01*
X1052500Y3579240D02*
X1061500Y3579240D01*
X1070500Y3579240D02*
X1107500Y3579240D01*
X1052500Y3578240D02*
X1061500Y3578240D01*
X1070500Y3578240D02*
X1107500Y3578240D01*
X1053500Y3577240D02*
X1060500Y3577240D01*
X1070500Y3577240D02*
X1107500Y3577240D01*
X1054500Y3576240D02*
X1059500Y3576240D01*
X1072500Y3576240D02*
X1107500Y3576240D01*
X1101500Y3575240D02*
X1107500Y3575240D01*
X1101500Y3574240D02*
X1107500Y3574240D01*
X1101500Y3573240D02*
X1107500Y3573240D01*
X1101500Y3572240D02*
X1107500Y3572240D01*
X1101500Y3571240D02*
X1107500Y3571240D01*
X1101500Y3570240D02*
X1107500Y3570240D01*
X1101500Y3569240D02*
X1107500Y3569240D01*
X1102500Y3568240D02*
X1107500Y3568240D01*
X1102500Y3567240D02*
X1107500Y3567240D01*
X1103500Y3566240D02*
X1106500Y3566240D01*
X1072500Y3546240D02*
X1105500Y3546240D01*
X1070500Y3545240D02*
X1106500Y3545240D01*
X1070500Y3544240D02*
X1107500Y3544240D01*
X1070500Y3543240D02*
X1107500Y3543240D01*
X1070500Y3542240D02*
X1107500Y3542240D01*
X1070500Y3541240D02*
X1107500Y3541240D01*
X1071500Y3540240D02*
X1106500Y3540240D01*
X1075500Y3539240D02*
X1082500Y3539240D01*
X1074500Y3538240D02*
X1082500Y3538240D01*
X1074500Y3537240D02*
X1081500Y3537240D01*
X1073500Y3536240D02*
X1080500Y3536240D01*
X1073500Y3535240D02*
X1080500Y3535240D01*
X1072500Y3534240D02*
X1079500Y3534240D01*
X1071500Y3533240D02*
X1079500Y3533240D01*
X1071500Y3532240D02*
X1078500Y3532240D01*
X1070500Y3531240D02*
X1077500Y3531240D01*
X1070500Y3530240D02*
X1077500Y3530240D01*
X1070500Y3529240D02*
X1076500Y3529240D01*
X1070500Y3528240D02*
X1075500Y3528240D01*
X1070500Y3527240D02*
X1075500Y3527240D01*
X1069500Y3526240D02*
X1075500Y3526240D01*
X1069500Y3525240D02*
X1075500Y3525240D01*
X1069500Y3524240D02*
X1075500Y3524240D01*
X1070500Y3523240D02*
X1075500Y3523240D01*
X1070500Y3522240D02*
X1076500Y3522240D01*
X1070500Y3521240D02*
X1076500Y3521240D01*
X1070500Y3520240D02*
X1078500Y3520240D01*
X1070500Y3519240D02*
X1106500Y3519240D01*
X1071500Y3518240D02*
X1107500Y3518240D01*
X1072500Y3517240D02*
X1107500Y3517240D01*
X1072500Y3516240D02*
X1107500Y3516240D01*
X1074500Y3515240D02*
X1107500Y3515240D01*
X1075500Y3514240D02*
X1106500Y3514240D01*
X1072500Y3497240D02*
X1073500Y3497240D01*
X1070500Y3496240D02*
X1075500Y3496240D01*
X1070500Y3495240D02*
X1075500Y3495240D01*
X1070500Y3494240D02*
X1075500Y3494240D01*
X1070500Y3493240D02*
X1075500Y3493240D01*
X1069500Y3492240D02*
X1075500Y3492240D01*
X1069500Y3491240D02*
X1075500Y3491240D01*
X1060500Y3490240D02*
X1100500Y3490240D01*
X1059500Y3489240D02*
X1102500Y3489240D01*
X1058500Y3488240D02*
X1104500Y3488240D01*
X1058500Y3487240D02*
X1105500Y3487240D01*
X1058500Y3486240D02*
X1106500Y3486240D01*
X1059500Y3485240D02*
X1106500Y3485240D01*
X1060500Y3484240D02*
X1107500Y3484240D01*
X1069500Y3483240D02*
X1075500Y3483240D01*
X1100500Y3483240D02*
X1107500Y3483240D01*
X1069500Y3482240D02*
X1075500Y3482240D01*
X1101500Y3482240D02*
X1107500Y3482240D01*
X1069500Y3481240D02*
X1075500Y3481240D01*
X1101500Y3481240D02*
X1107500Y3481240D01*
X1069500Y3480240D02*
X1075500Y3480240D01*
X1101500Y3480240D02*
X1107500Y3480240D01*
X1069500Y3479240D02*
X1075500Y3479240D01*
X1101500Y3479240D02*
X1107500Y3479240D01*
X1069500Y3478240D02*
X1075500Y3478240D01*
X1101500Y3478240D02*
X1107500Y3478240D01*
X1069500Y3477240D02*
X1075500Y3477240D01*
X1101500Y3477240D02*
X1107500Y3477240D01*
X1069500Y3476240D02*
X1075500Y3476240D01*
X1101500Y3476240D02*
X1107500Y3476240D01*
X1069500Y3475240D02*
X1075500Y3475240D01*
X1101500Y3475240D02*
X1107500Y3475240D01*
X1069500Y3474240D02*
X1075500Y3474240D01*
X1101500Y3474240D02*
X1107500Y3474240D01*
X1069500Y3473240D02*
X1075500Y3473240D01*
X1101500Y3473240D02*
X1107500Y3473240D01*
X1070500Y3472240D02*
X1075500Y3472240D01*
X1101500Y3472240D02*
X1107500Y3472240D01*
X1070500Y3471240D02*
X1075500Y3471240D01*
X1100500Y3471240D02*
X1107500Y3471240D01*
X1070500Y3470240D02*
X1075500Y3470240D01*
X1099500Y3470240D02*
X1107500Y3470240D01*
X1071500Y3469240D02*
X1074500Y3469240D01*
X1097500Y3469240D02*
X1106500Y3469240D01*
X1096500Y3468240D02*
X1106500Y3468240D01*
X1096500Y3467240D02*
X1105500Y3467240D01*
X1096500Y3466240D02*
X1104500Y3466240D01*
X1096500Y3465240D02*
X1103500Y3465240D01*
X1097500Y3464240D02*
X1101500Y3464240D01*
X1062500Y3447240D02*
X1065500Y3447240D01*
X1082500Y3447240D02*
X1101500Y3447240D01*
X1061500Y3446240D02*
X1066500Y3446240D01*
X1080500Y3446240D02*
X1103500Y3446240D01*
X1059500Y3445240D02*
X1067500Y3445240D01*
X1079500Y3445240D02*
X1104500Y3445240D01*
X1059500Y3444240D02*
X1067500Y3444240D01*
X1078500Y3444240D02*
X1105500Y3444240D01*
X1058500Y3443240D02*
X1067500Y3443240D01*
X1077500Y3443240D02*
X1106500Y3443240D01*
X1057500Y3442240D02*
X1066500Y3442240D01*
X1076500Y3442240D02*
X1106500Y3442240D01*
X1056500Y3441240D02*
X1065500Y3441240D01*
X1076500Y3441240D02*
X1107500Y3441240D01*
X1056500Y3440240D02*
X1063500Y3440240D01*
X1076500Y3440240D02*
X1083500Y3440240D01*
X1100500Y3440240D02*
X1107500Y3440240D01*
X1056500Y3439240D02*
X1062500Y3439240D01*
X1075500Y3439240D02*
X1082500Y3439240D01*
X1101500Y3439240D02*
X1107500Y3439240D01*
X1055500Y3438240D02*
X1062500Y3438240D01*
X1075500Y3438240D02*
X1081500Y3438240D01*
X1101500Y3438240D02*
X1107500Y3438240D01*
X1055500Y3437240D02*
X1061500Y3437240D01*
X1075500Y3437240D02*
X1081500Y3437240D01*
X1101500Y3437240D02*
X1107500Y3437240D01*
X1055500Y3436240D02*
X1061500Y3436240D01*
X1075500Y3436240D02*
X1081500Y3436240D01*
X1101500Y3436240D02*
X1107500Y3436240D01*
X1055500Y3435240D02*
X1061500Y3435240D01*
X1075500Y3435240D02*
X1081500Y3435240D01*
X1100500Y3435240D02*
X1107500Y3435240D01*
X1055500Y3434240D02*
X1061500Y3434240D01*
X1075500Y3434240D02*
X1107500Y3434240D01*
X1055500Y3433240D02*
X1061500Y3433240D01*
X1075500Y3433240D02*
X1106500Y3433240D01*
X1055500Y3432240D02*
X1061500Y3432240D01*
X1075500Y3432240D02*
X1106500Y3432240D01*
X1055500Y3431240D02*
X1061500Y3431240D01*
X1075500Y3431240D02*
X1105500Y3431240D01*
X1055500Y3430240D02*
X1061500Y3430240D01*
X1075500Y3430240D02*
X1105500Y3430240D01*
X1055500Y3429240D02*
X1061500Y3429240D01*
X1076500Y3429240D02*
X1106500Y3429240D01*
X1055500Y3428240D02*
X1061500Y3428240D01*
X1077500Y3428240D02*
X1106500Y3428240D01*
X1055500Y3427240D02*
X1061500Y3427240D01*
X1099500Y3427240D02*
X1107500Y3427240D01*
X1055500Y3426240D02*
X1061500Y3426240D01*
X1101500Y3426240D02*
X1107500Y3426240D01*
X1055500Y3425240D02*
X1061500Y3425240D01*
X1101500Y3425240D02*
X1107500Y3425240D01*
X1055500Y3424240D02*
X1061500Y3424240D01*
X1101500Y3424240D02*
X1107500Y3424240D01*
X1055500Y3423240D02*
X1062500Y3423240D01*
X1101500Y3423240D02*
X1107500Y3423240D01*
X1056500Y3422240D02*
X1063500Y3422240D01*
X1101500Y3422240D02*
X1107500Y3422240D01*
X1056500Y3421240D02*
X1064500Y3421240D01*
X1100500Y3421240D02*
X1107500Y3421240D01*
X1056500Y3420240D02*
X1107500Y3420240D01*
X1057500Y3419240D02*
X1106500Y3419240D01*
X1058500Y3418240D02*
X1105500Y3418240D01*
X1059500Y3417240D02*
X1105500Y3417240D01*
X1060500Y3416240D02*
X1104500Y3416240D01*
X1061500Y3415240D02*
X1102500Y3415240D01*
X1064500Y3414240D02*
X1100500Y3414240D01*
X1071500Y3398240D02*
X1119500Y3398240D01*
X1069500Y3397240D02*
X1121500Y3397240D01*
X1068500Y3396240D02*
X1122500Y3396240D01*
X1068500Y3395240D02*
X1122500Y3395240D01*
X1068500Y3394240D02*
X1122500Y3394240D01*
X1068500Y3393240D02*
X1121500Y3393240D01*
X1069500Y3392240D02*
X1120500Y3392240D01*
X1073500Y3391240D02*
X1082500Y3391240D01*
X1095500Y3391240D02*
X1104500Y3391240D01*
X1072500Y3390240D02*
X1081500Y3390240D01*
X1096500Y3390240D02*
X1105500Y3390240D01*
X1071500Y3389240D02*
X1080500Y3389240D01*
X1097500Y3389240D02*
X1106500Y3389240D01*
X1070500Y3388240D02*
X1079500Y3388240D01*
X1098500Y3388240D02*
X1107500Y3388240D01*
X1070500Y3387240D02*
X1078500Y3387240D01*
X1099500Y3387240D02*
X1107500Y3387240D01*
X1069500Y3386240D02*
X1077500Y3386240D01*
X1100500Y3386240D02*
X1108500Y3386240D01*
X1069500Y3385240D02*
X1076500Y3385240D01*
X1101500Y3385240D02*
X1108500Y3385240D01*
X1068500Y3384240D02*
X1075500Y3384240D01*
X1102500Y3384240D02*
X1108500Y3384240D01*
X1068500Y3383240D02*
X1074500Y3383240D01*
X1103500Y3383240D02*
X1109500Y3383240D01*
X1068500Y3382240D02*
X1074500Y3382240D01*
X1103500Y3382240D02*
X1109500Y3382240D01*
X1068500Y3381240D02*
X1074500Y3381240D01*
X1103500Y3381240D02*
X1109500Y3381240D01*
X1068500Y3380240D02*
X1074500Y3380240D01*
X1103500Y3380240D02*
X1109500Y3380240D01*
X1068500Y3379240D02*
X1074500Y3379240D01*
X1103500Y3379240D02*
X1109500Y3379240D01*
X1068500Y3378240D02*
X1075500Y3378240D01*
X1102500Y3378240D02*
X1109500Y3378240D01*
X1069500Y3377240D02*
X1076500Y3377240D01*
X1101500Y3377240D02*
X1108500Y3377240D01*
X1069500Y3376240D02*
X1077500Y3376240D01*
X1100500Y3376240D02*
X1108500Y3376240D01*
X1070500Y3375240D02*
X1077500Y3375240D01*
X1099500Y3375240D02*
X1107500Y3375240D01*
X1070500Y3374240D02*
X1078500Y3374240D01*
X1099500Y3374240D02*
X1107500Y3374240D01*
X1071500Y3373240D02*
X1079500Y3373240D01*
X1098500Y3373240D02*
X1106500Y3373240D01*
X1072500Y3372240D02*
X1080500Y3372240D01*
X1097500Y3372240D02*
X1105500Y3372240D01*
X1073500Y3371240D02*
X1104500Y3371240D01*
X1074500Y3370240D02*
X1103500Y3370240D01*
X1075500Y3369240D02*
X1102500Y3369240D01*
X1075500Y3368240D02*
X1102500Y3368240D01*
X1076500Y3367240D02*
X1101500Y3367240D01*
X1078500Y3366240D02*
X1099500Y3366240D01*
X1079500Y3365240D02*
X1098500Y3365240D01*
X1079500Y3348240D02*
X1099500Y3348240D01*
X1077500Y3347240D02*
X1101500Y3347240D01*
X1075500Y3346240D02*
X1102500Y3346240D01*
X1074500Y3345240D02*
X1103500Y3345240D01*
X1073500Y3344240D02*
X1104500Y3344240D01*
X1072500Y3343240D02*
X1104500Y3343240D01*
X1072500Y3342240D02*
X1105500Y3342240D01*
X1071500Y3341240D02*
X1079500Y3341240D01*
X1098500Y3341240D02*
X1106500Y3341240D01*
X1070500Y3340240D02*
X1078500Y3340240D01*
X1099500Y3340240D02*
X1106500Y3340240D01*
X1070500Y3339240D02*
X1077500Y3339240D01*
X1100500Y3339240D02*
X1107500Y3339240D01*
X1070500Y3338240D02*
X1076500Y3338240D01*
X1101500Y3338240D02*
X1107500Y3338240D01*
X1070500Y3337240D02*
X1076500Y3337240D01*
X1101500Y3337240D02*
X1107500Y3337240D01*
X1070500Y3336240D02*
X1075500Y3336240D01*
X1101500Y3336240D02*
X1107500Y3336240D01*
X1069500Y3335240D02*
X1075500Y3335240D01*
X1101500Y3335240D02*
X1107500Y3335240D01*
X1069500Y3334240D02*
X1075500Y3334240D01*
X1101500Y3334240D02*
X1107500Y3334240D01*
X1069500Y3333240D02*
X1075500Y3333240D01*
X1101500Y3333240D02*
X1107500Y3333240D01*
X1069500Y3332240D02*
X1075500Y3332240D01*
X1101500Y3332240D02*
X1107500Y3332240D01*
X1069500Y3331240D02*
X1075500Y3331240D01*
X1101500Y3331240D02*
X1107500Y3331240D01*
X1069500Y3330240D02*
X1075500Y3330240D01*
X1101500Y3330240D02*
X1107500Y3330240D01*
X1069500Y3329240D02*
X1075500Y3329240D01*
X1101500Y3329240D02*
X1107500Y3329240D01*
X1069500Y3328240D02*
X1075500Y3328240D01*
X1101500Y3328240D02*
X1107500Y3328240D01*
X1070500Y3327240D02*
X1075500Y3327240D01*
X1101500Y3327240D02*
X1107500Y3327240D01*
X1070500Y3326240D02*
X1076500Y3326240D01*
X1101500Y3326240D02*
X1107500Y3326240D01*
X1070500Y3325240D02*
X1076500Y3325240D01*
X1101500Y3325240D02*
X1107500Y3325240D01*
X1070500Y3324240D02*
X1077500Y3324240D01*
X1100500Y3324240D02*
X1107500Y3324240D01*
X1070500Y3323240D02*
X1078500Y3323240D01*
X1099500Y3323240D02*
X1106500Y3323240D01*
X1071500Y3322240D02*
X1079500Y3322240D01*
X1098500Y3322240D02*
X1106500Y3322240D01*
X1072500Y3321240D02*
X1105500Y3321240D01*
X1072500Y3320240D02*
X1104500Y3320240D01*
X1073500Y3319240D02*
X1103500Y3319240D01*
X1074500Y3318240D02*
X1103500Y3318240D01*
X1075500Y3317240D02*
X1101500Y3317240D01*
X1077500Y3316240D02*
X1100500Y3316240D01*
X1079500Y3315240D02*
X1098500Y3315240D01*
X1081500Y3299240D02*
X1096500Y3299240D01*
X1077500Y3298240D02*
X1100500Y3298240D01*
X1076500Y3297240D02*
X1101500Y3297240D01*
X1075500Y3296240D02*
X1102500Y3296240D01*
X1074500Y3295240D02*
X1103500Y3295240D01*
X1073500Y3294240D02*
X1104500Y3294240D01*
X1072500Y3293240D02*
X1105500Y3293240D01*
X1071500Y3292240D02*
X1080500Y3292240D01*
X1085500Y3292240D02*
X1092500Y3292240D01*
X1097500Y3292240D02*
X1106500Y3292240D01*
X1071500Y3291240D02*
X1078500Y3291240D01*
X1086500Y3291240D02*
X1092500Y3291240D01*
X1098500Y3291240D02*
X1106500Y3291240D01*
X1070500Y3290240D02*
X1077500Y3290240D01*
X1086500Y3290240D02*
X1092500Y3290240D01*
X1100500Y3290240D02*
X1107500Y3290240D01*
X1070500Y3289240D02*
X1077500Y3289240D01*
X1086500Y3289240D02*
X1092500Y3289240D01*
X1100500Y3289240D02*
X1107500Y3289240D01*
X1070500Y3288240D02*
X1076500Y3288240D01*
X1086500Y3288240D02*
X1092500Y3288240D01*
X1101500Y3288240D02*
X1107500Y3288240D01*
X1070500Y3287240D02*
X1076500Y3287240D01*
X1086500Y3287240D02*
X1092500Y3287240D01*
X1101500Y3287240D02*
X1107500Y3287240D01*
X1070500Y3286240D02*
X1075500Y3286240D01*
X1086500Y3286240D02*
X1092500Y3286240D01*
X1101500Y3286240D02*
X1107500Y3286240D01*
X1069500Y3285240D02*
X1075500Y3285240D01*
X1086500Y3285240D02*
X1092500Y3285240D01*
X1101500Y3285240D02*
X1107500Y3285240D01*
X1069500Y3284240D02*
X1075500Y3284240D01*
X1086500Y3284240D02*
X1092500Y3284240D01*
X1101500Y3284240D02*
X1107500Y3284240D01*
X1069500Y3283240D02*
X1075500Y3283240D01*
X1086500Y3283240D02*
X1092500Y3283240D01*
X1101500Y3283240D02*
X1107500Y3283240D01*
X1069500Y3282240D02*
X1075500Y3282240D01*
X1086500Y3282240D02*
X1092500Y3282240D01*
X1101500Y3282240D02*
X1107500Y3282240D01*
X1069500Y3281240D02*
X1075500Y3281240D01*
X1086500Y3281240D02*
X1092500Y3281240D01*
X1101500Y3281240D02*
X1107500Y3281240D01*
X1069500Y3280240D02*
X1075500Y3280240D01*
X1086500Y3280240D02*
X1092500Y3280240D01*
X1101500Y3280240D02*
X1107500Y3280240D01*
X1069500Y3279240D02*
X1075500Y3279240D01*
X1086500Y3279240D02*
X1092500Y3279240D01*
X1101500Y3279240D02*
X1107500Y3279240D01*
X1070500Y3278240D02*
X1075500Y3278240D01*
X1086500Y3278240D02*
X1092500Y3278240D01*
X1101500Y3278240D02*
X1107500Y3278240D01*
X1070500Y3277240D02*
X1076500Y3277240D01*
X1086500Y3277240D02*
X1092500Y3277240D01*
X1101500Y3277240D02*
X1107500Y3277240D01*
X1070500Y3276240D02*
X1076500Y3276240D01*
X1086500Y3276240D02*
X1092500Y3276240D01*
X1101500Y3276240D02*
X1107500Y3276240D01*
X1070500Y3275240D02*
X1077500Y3275240D01*
X1086500Y3275240D02*
X1092500Y3275240D01*
X1101500Y3275240D02*
X1107500Y3275240D01*
X1070500Y3274240D02*
X1077500Y3274240D01*
X1086500Y3274240D02*
X1092500Y3274240D01*
X1101500Y3274240D02*
X1107500Y3274240D01*
X1071500Y3273240D02*
X1078500Y3273240D01*
X1086500Y3273240D02*
X1092500Y3273240D01*
X1101500Y3273240D02*
X1107500Y3273240D01*
X1071500Y3272240D02*
X1080500Y3272240D01*
X1085500Y3272240D02*
X1092500Y3272240D01*
X1101500Y3272240D02*
X1107500Y3272240D01*
X1072500Y3271240D02*
X1092500Y3271240D01*
X1101500Y3271240D02*
X1107500Y3271240D01*
X1073500Y3270240D02*
X1092500Y3270240D01*
X1101500Y3270240D02*
X1107500Y3270240D01*
X1074500Y3269240D02*
X1092500Y3269240D01*
X1101500Y3269240D02*
X1107500Y3269240D01*
X1075500Y3268240D02*
X1091500Y3268240D01*
X1102500Y3268240D02*
X1107500Y3268240D01*
X1076500Y3267240D02*
X1091500Y3267240D01*
X1102500Y3267240D02*
X1107500Y3267240D01*
X1078500Y3266240D02*
X1090500Y3266240D01*
X1103500Y3266240D02*
X1106500Y3266240D01*
X1082500Y3265240D02*
X1088500Y3265240D01*
X1071500Y3249240D02*
X1074500Y3249240D01*
X1070500Y3248240D02*
X1075500Y3248240D01*
X1070500Y3247240D02*
X1075500Y3247240D01*
X1070500Y3246240D02*
X1075500Y3246240D01*
X1070500Y3245240D02*
X1075500Y3245240D01*
X1069500Y3244240D02*
X1075500Y3244240D01*
X1061500Y3243240D02*
X1076500Y3243240D01*
X1059500Y3242240D02*
X1101500Y3242240D01*
X1058500Y3241240D02*
X1103500Y3241240D01*
X1058500Y3240240D02*
X1104500Y3240240D01*
X1058500Y3239240D02*
X1105500Y3239240D01*
X1058500Y3238240D02*
X1106500Y3238240D01*
X1059500Y3237240D02*
X1106500Y3237240D01*
X1061500Y3236240D02*
X1107500Y3236240D01*
X1069500Y3235240D02*
X1075500Y3235240D01*
X1100500Y3235240D02*
X1107500Y3235240D01*
X1069500Y3234240D02*
X1075500Y3234240D01*
X1101500Y3234240D02*
X1107500Y3234240D01*
X1069500Y3233240D02*
X1075500Y3233240D01*
X1101500Y3233240D02*
X1107500Y3233240D01*
X1069500Y3232240D02*
X1075500Y3232240D01*
X1101500Y3232240D02*
X1107500Y3232240D01*
X1069500Y3231240D02*
X1075500Y3231240D01*
X1101500Y3231240D02*
X1107500Y3231240D01*
X1069500Y3230240D02*
X1075500Y3230240D01*
X1101500Y3230240D02*
X1107500Y3230240D01*
X1069500Y3229240D02*
X1075500Y3229240D01*
X1101500Y3229240D02*
X1107500Y3229240D01*
X1069500Y3228240D02*
X1075500Y3228240D01*
X1101500Y3228240D02*
X1107500Y3228240D01*
X1069500Y3227240D02*
X1075500Y3227240D01*
X1101500Y3227240D02*
X1107500Y3227240D01*
X1069500Y3226240D02*
X1075500Y3226240D01*
X1101500Y3226240D02*
X1107500Y3226240D01*
X1069500Y3225240D02*
X1075500Y3225240D01*
X1101500Y3225240D02*
X1107500Y3225240D01*
X1070500Y3224240D02*
X1075500Y3224240D01*
X1101500Y3224240D02*
X1107500Y3224240D01*
X1070500Y3223240D02*
X1075500Y3223240D01*
X1100500Y3223240D02*
X1107500Y3223240D01*
X1071500Y3222240D02*
X1074500Y3222240D01*
X1098500Y3222240D02*
X1107500Y3222240D01*
X1096500Y3221240D02*
X1106500Y3221240D01*
X1096500Y3220240D02*
X1105500Y3220240D01*
X1096500Y3219240D02*
X1105500Y3219240D01*
X1096500Y3218240D02*
X1104500Y3218240D01*
X1096500Y3217240D02*
X1102500Y3217240D01*
X1098500Y3216240D02*
X1100500Y3216240D01*
X1093500Y3200240D02*
X1098500Y3200240D01*
X1090500Y3199240D02*
X1102500Y3199240D01*
X1088500Y3198240D02*
X1103500Y3198240D01*
X1087500Y3197240D02*
X1104500Y3197240D01*
X1086500Y3196240D02*
X1105500Y3196240D01*
X1072500Y3195240D02*
X1073500Y3195240D01*
X1085500Y3195240D02*
X1106500Y3195240D01*
X1070500Y3194240D02*
X1074500Y3194240D01*
X1085500Y3194240D02*
X1107500Y3194240D01*
X1070500Y3193240D02*
X1075500Y3193240D01*
X1085500Y3193240D02*
X1091500Y3193240D01*
X1100500Y3193240D02*
X1107500Y3193240D01*
X1070500Y3192240D02*
X1075500Y3192240D01*
X1084500Y3192240D02*
X1090500Y3192240D01*
X1101500Y3192240D02*
X1107500Y3192240D01*
X1069500Y3191240D02*
X1075500Y3191240D01*
X1084500Y3191240D02*
X1090500Y3191240D01*
X1102500Y3191240D02*
X1107500Y3191240D01*
X1069500Y3190240D02*
X1075500Y3190240D01*
X1084500Y3190240D02*
X1090500Y3190240D01*
X1102500Y3190240D02*
X1107500Y3190240D01*
X1069500Y3189240D02*
X1075500Y3189240D01*
X1084500Y3189240D02*
X1090500Y3189240D01*
X1102500Y3189240D02*
X1107500Y3189240D01*
X1069500Y3188240D02*
X1075500Y3188240D01*
X1084500Y3188240D02*
X1090500Y3188240D01*
X1102500Y3188240D02*
X1107500Y3188240D01*
X1069500Y3187240D02*
X1075500Y3187240D01*
X1084500Y3187240D02*
X1090500Y3187240D01*
X1102500Y3187240D02*
X1107500Y3187240D01*
X1069500Y3186240D02*
X1075500Y3186240D01*
X1084500Y3186240D02*
X1090500Y3186240D01*
X1102500Y3186240D02*
X1107500Y3186240D01*
X1069500Y3185240D02*
X1075500Y3185240D01*
X1084500Y3185240D02*
X1090500Y3185240D01*
X1102500Y3185240D02*
X1107500Y3185240D01*
X1069500Y3184240D02*
X1075500Y3184240D01*
X1084500Y3184240D02*
X1090500Y3184240D01*
X1102500Y3184240D02*
X1107500Y3184240D01*
X1069500Y3183240D02*
X1075500Y3183240D01*
X1084500Y3183240D02*
X1090500Y3183240D01*
X1102500Y3183240D02*
X1107500Y3183240D01*
X1069500Y3182240D02*
X1075500Y3182240D01*
X1084500Y3182240D02*
X1090500Y3182240D01*
X1102500Y3182240D02*
X1107500Y3182240D01*
X1069500Y3181240D02*
X1075500Y3181240D01*
X1084500Y3181240D02*
X1090500Y3181240D01*
X1102500Y3181240D02*
X1107500Y3181240D01*
X1069500Y3180240D02*
X1075500Y3180240D01*
X1084500Y3180240D02*
X1090500Y3180240D01*
X1102500Y3180240D02*
X1107500Y3180240D01*
X1069500Y3179240D02*
X1075500Y3179240D01*
X1084500Y3179240D02*
X1090500Y3179240D01*
X1101500Y3179240D02*
X1107500Y3179240D01*
X1069500Y3178240D02*
X1075500Y3178240D01*
X1084500Y3178240D02*
X1090500Y3178240D01*
X1100500Y3178240D02*
X1107500Y3178240D01*
X1070500Y3177240D02*
X1075500Y3177240D01*
X1084500Y3177240D02*
X1090500Y3177240D01*
X1100500Y3177240D02*
X1106500Y3177240D01*
X1070500Y3176240D02*
X1075500Y3176240D01*
X1084500Y3176240D02*
X1090500Y3176240D01*
X1099500Y3176240D02*
X1106500Y3176240D01*
X1070500Y3175240D02*
X1076500Y3175240D01*
X1084500Y3175240D02*
X1090500Y3175240D01*
X1099500Y3175240D02*
X1105500Y3175240D01*
X1070500Y3174240D02*
X1076500Y3174240D01*
X1084500Y3174240D02*
X1091500Y3174240D01*
X1098500Y3174240D02*
X1105500Y3174240D01*
X1070500Y3173240D02*
X1078500Y3173240D01*
X1084500Y3173240D02*
X1092500Y3173240D01*
X1097500Y3173240D02*
X1104500Y3173240D01*
X1071500Y3172240D02*
X1106500Y3172240D01*
X1071500Y3171240D02*
X1107500Y3171240D01*
X1072500Y3170240D02*
X1107500Y3170240D01*
X1073500Y3169240D02*
X1107500Y3169240D01*
X1074500Y3168240D02*
X1107500Y3168240D01*
X1076500Y3167240D02*
X1106500Y3167240D01*
X1080500Y3166240D02*
X1104500Y3166240D01*
X1100500Y3150240D02*
X1103500Y3150240D01*
X1075500Y3149240D02*
X1081500Y3149240D01*
X1099500Y3149240D02*
X1104500Y3149240D01*
X1073500Y3148240D02*
X1082500Y3148240D01*
X1099500Y3148240D02*
X1105500Y3148240D01*
X1072500Y3147240D02*
X1084500Y3147240D01*
X1099500Y3147240D02*
X1105500Y3147240D01*
X1071500Y3146240D02*
X1084500Y3146240D01*
X1099500Y3146240D02*
X1106500Y3146240D01*
X1070500Y3145240D02*
X1085500Y3145240D01*
X1099500Y3145240D02*
X1106500Y3145240D01*
X1070500Y3144240D02*
X1086500Y3144240D01*
X1100500Y3144240D02*
X1107500Y3144240D01*
X1070500Y3143240D02*
X1086500Y3143240D01*
X1101500Y3143240D02*
X1107500Y3143240D01*
X1070500Y3142240D02*
X1076500Y3142240D01*
X1080500Y3142240D02*
X1086500Y3142240D01*
X1101500Y3142240D02*
X1107500Y3142240D01*
X1070500Y3141240D02*
X1075500Y3141240D01*
X1080500Y3141240D02*
X1087500Y3141240D01*
X1101500Y3141240D02*
X1107500Y3141240D01*
X1069500Y3140240D02*
X1075500Y3140240D01*
X1081500Y3140240D02*
X1087500Y3140240D01*
X1101500Y3140240D02*
X1107500Y3140240D01*
X1069500Y3139240D02*
X1075500Y3139240D01*
X1081500Y3139240D02*
X1088500Y3139240D01*
X1101500Y3139240D02*
X1107500Y3139240D01*
X1069500Y3138240D02*
X1075500Y3138240D01*
X1082500Y3138240D02*
X1088500Y3138240D01*
X1101500Y3138240D02*
X1107500Y3138240D01*
X1069500Y3137240D02*
X1075500Y3137240D01*
X1082500Y3137240D02*
X1089500Y3137240D01*
X1101500Y3137240D02*
X1107500Y3137240D01*
X1069500Y3136240D02*
X1075500Y3136240D01*
X1083500Y3136240D02*
X1089500Y3136240D01*
X1101500Y3136240D02*
X1107500Y3136240D01*
X1069500Y3135240D02*
X1075500Y3135240D01*
X1083500Y3135240D02*
X1089500Y3135240D01*
X1101500Y3135240D02*
X1107500Y3135240D01*
X1069500Y3134240D02*
X1075500Y3134240D01*
X1083500Y3134240D02*
X1090500Y3134240D01*
X1101500Y3134240D02*
X1107500Y3134240D01*
X1069500Y3133240D02*
X1075500Y3133240D01*
X1084500Y3133240D02*
X1090500Y3133240D01*
X1101500Y3133240D02*
X1107500Y3133240D01*
X1069500Y3132240D02*
X1075500Y3132240D01*
X1084500Y3132240D02*
X1091500Y3132240D01*
X1101500Y3132240D02*
X1107500Y3132240D01*
X1069500Y3131240D02*
X1075500Y3131240D01*
X1085500Y3131240D02*
X1091500Y3131240D01*
X1101500Y3131240D02*
X1107500Y3131240D01*
X1069500Y3130240D02*
X1075500Y3130240D01*
X1085500Y3130240D02*
X1092500Y3130240D01*
X1101500Y3130240D02*
X1107500Y3130240D01*
X1069500Y3129240D02*
X1075500Y3129240D01*
X1086500Y3129240D02*
X1092500Y3129240D01*
X1101500Y3129240D02*
X1107500Y3129240D01*
X1069500Y3128240D02*
X1075500Y3128240D01*
X1086500Y3128240D02*
X1093500Y3128240D01*
X1101500Y3128240D02*
X1107500Y3128240D01*
X1069500Y3127240D02*
X1075500Y3127240D01*
X1086500Y3127240D02*
X1093500Y3127240D01*
X1101500Y3127240D02*
X1107500Y3127240D01*
X1070500Y3126240D02*
X1076500Y3126240D01*
X1087500Y3126240D02*
X1093500Y3126240D01*
X1101500Y3126240D02*
X1107500Y3126240D01*
X1070500Y3125240D02*
X1076500Y3125240D01*
X1087500Y3125240D02*
X1094500Y3125240D01*
X1101500Y3125240D02*
X1107500Y3125240D01*
X1070500Y3124240D02*
X1077500Y3124240D01*
X1088500Y3124240D02*
X1095500Y3124240D01*
X1099500Y3124240D02*
X1107500Y3124240D01*
X1070500Y3123240D02*
X1077500Y3123240D01*
X1088500Y3123240D02*
X1107500Y3123240D01*
X1071500Y3122240D02*
X1078500Y3122240D01*
X1089500Y3122240D02*
X1106500Y3122240D01*
X1071500Y3121240D02*
X1078500Y3121240D01*
X1089500Y3121240D02*
X1105500Y3121240D01*
X1072500Y3120240D02*
X1078500Y3120240D01*
X1090500Y3120240D02*
X1105500Y3120240D01*
X1072500Y3119240D02*
X1078500Y3119240D01*
X1091500Y3119240D02*
X1104500Y3119240D01*
X1074500Y3118240D02*
X1077500Y3118240D01*
X1093500Y3118240D02*
X1102500Y3118240D01*
X1095500Y3117240D02*
X1100500Y3117240D01*
X1072500Y3101240D02*
X1073500Y3101240D01*
X1070500Y3100240D02*
X1075500Y3100240D01*
X1070500Y3099240D02*
X1075500Y3099240D01*
X1070500Y3098240D02*
X1075500Y3098240D01*
X1070500Y3097240D02*
X1075500Y3097240D01*
X1069500Y3096240D02*
X1075500Y3096240D01*
X1069500Y3095240D02*
X1075500Y3095240D01*
X1060500Y3094240D02*
X1100500Y3094240D01*
X1059500Y3093240D02*
X1102500Y3093240D01*
X1058500Y3092240D02*
X1104500Y3092240D01*
X1058500Y3091240D02*
X1105500Y3091240D01*
X1058500Y3090240D02*
X1105500Y3090240D01*
X1059500Y3089240D02*
X1106500Y3089240D01*
X1060500Y3088240D02*
X1107500Y3088240D01*
X1069500Y3087240D02*
X1075500Y3087240D01*
X1100500Y3087240D02*
X1107500Y3087240D01*
X1069500Y3086240D02*
X1075500Y3086240D01*
X1101500Y3086240D02*
X1107500Y3086240D01*
X1069500Y3085240D02*
X1075500Y3085240D01*
X1101500Y3085240D02*
X1107500Y3085240D01*
X1069500Y3084240D02*
X1075500Y3084240D01*
X1101500Y3084240D02*
X1107500Y3084240D01*
X1069500Y3083240D02*
X1075500Y3083240D01*
X1101500Y3083240D02*
X1107500Y3083240D01*
X1069500Y3082240D02*
X1075500Y3082240D01*
X1101500Y3082240D02*
X1107500Y3082240D01*
X1069500Y3081240D02*
X1075500Y3081240D01*
X1101500Y3081240D02*
X1107500Y3081240D01*
X1069500Y3080240D02*
X1075500Y3080240D01*
X1101500Y3080240D02*
X1107500Y3080240D01*
X1069500Y3079240D02*
X1075500Y3079240D01*
X1101500Y3079240D02*
X1107500Y3079240D01*
X1069500Y3078240D02*
X1075500Y3078240D01*
X1101500Y3078240D02*
X1107500Y3078240D01*
X1069500Y3077240D02*
X1075500Y3077240D01*
X1101500Y3077240D02*
X1107500Y3077240D01*
X1070500Y3076240D02*
X1075500Y3076240D01*
X1101500Y3076240D02*
X1107500Y3076240D01*
X1070500Y3075240D02*
X1075500Y3075240D01*
X1100500Y3075240D02*
X1107500Y3075240D01*
X1070500Y3074240D02*
X1075500Y3074240D01*
X1099500Y3074240D02*
X1107500Y3074240D01*
X1071500Y3073240D02*
X1074500Y3073240D01*
X1097500Y3073240D02*
X1106500Y3073240D01*
X1096500Y3072240D02*
X1106500Y3072240D01*
X1096500Y3071240D02*
X1105500Y3071240D01*
X1096500Y3070240D02*
X1104500Y3070240D01*
X1096500Y3069240D02*
X1103500Y3069240D01*
X1097500Y3068240D02*
X1101500Y3068240D01*
X1079500Y3051240D02*
X1098500Y3051240D01*
X1077500Y3050240D02*
X1100500Y3050240D01*
X1075500Y3049240D02*
X1102500Y3049240D01*
X1074500Y3048240D02*
X1103500Y3048240D01*
X1073500Y3047240D02*
X1104500Y3047240D01*
X1072500Y3046240D02*
X1104500Y3046240D01*
X1072500Y3045240D02*
X1105500Y3045240D01*
X1071500Y3044240D02*
X1079500Y3044240D01*
X1086500Y3044240D02*
X1092500Y3044240D01*
X1098500Y3044240D02*
X1106500Y3044240D01*
X1070500Y3043240D02*
X1078500Y3043240D01*
X1086500Y3043240D02*
X1092500Y3043240D01*
X1099500Y3043240D02*
X1106500Y3043240D01*
X1070500Y3042240D02*
X1077500Y3042240D01*
X1086500Y3042240D02*
X1092500Y3042240D01*
X1100500Y3042240D02*
X1107500Y3042240D01*
X1070500Y3041240D02*
X1076500Y3041240D01*
X1086500Y3041240D02*
X1092500Y3041240D01*
X1101500Y3041240D02*
X1107500Y3041240D01*
X1070500Y3040240D02*
X1076500Y3040240D01*
X1086500Y3040240D02*
X1092500Y3040240D01*
X1101500Y3040240D02*
X1107500Y3040240D01*
X1070500Y3039240D02*
X1075500Y3039240D01*
X1086500Y3039240D02*
X1092500Y3039240D01*
X1101500Y3039240D02*
X1107500Y3039240D01*
X1069500Y3038240D02*
X1075500Y3038240D01*
X1086500Y3038240D02*
X1092500Y3038240D01*
X1101500Y3038240D02*
X1107500Y3038240D01*
X1069500Y3037240D02*
X1075500Y3037240D01*
X1086500Y3037240D02*
X1092500Y3037240D01*
X1101500Y3037240D02*
X1107500Y3037240D01*
X1069500Y3036240D02*
X1075500Y3036240D01*
X1086500Y3036240D02*
X1092500Y3036240D01*
X1101500Y3036240D02*
X1107500Y3036240D01*
X1069500Y3035240D02*
X1075500Y3035240D01*
X1086500Y3035240D02*
X1092500Y3035240D01*
X1101500Y3035240D02*
X1107500Y3035240D01*
X1069500Y3034240D02*
X1075500Y3034240D01*
X1086500Y3034240D02*
X1092500Y3034240D01*
X1101500Y3034240D02*
X1107500Y3034240D01*
X1069500Y3033240D02*
X1075500Y3033240D01*
X1086500Y3033240D02*
X1092500Y3033240D01*
X1101500Y3033240D02*
X1107500Y3033240D01*
X1069500Y3032240D02*
X1075500Y3032240D01*
X1086500Y3032240D02*
X1092500Y3032240D01*
X1101500Y3032240D02*
X1107500Y3032240D01*
X1069500Y3031240D02*
X1075500Y3031240D01*
X1086500Y3031240D02*
X1092500Y3031240D01*
X1101500Y3031240D02*
X1107500Y3031240D01*
X1070500Y3030240D02*
X1075500Y3030240D01*
X1086500Y3030240D02*
X1092500Y3030240D01*
X1101500Y3030240D02*
X1107500Y3030240D01*
X1070500Y3029240D02*
X1076500Y3029240D01*
X1086500Y3029240D02*
X1092500Y3029240D01*
X1101500Y3029240D02*
X1107500Y3029240D01*
X1070500Y3028240D02*
X1076500Y3028240D01*
X1086500Y3028240D02*
X1092500Y3028240D01*
X1101500Y3028240D02*
X1107500Y3028240D01*
X1070500Y3027240D02*
X1077500Y3027240D01*
X1086500Y3027240D02*
X1092500Y3027240D01*
X1101500Y3027240D02*
X1107500Y3027240D01*
X1070500Y3026240D02*
X1078500Y3026240D01*
X1086500Y3026240D02*
X1092500Y3026240D01*
X1101500Y3026240D02*
X1107500Y3026240D01*
X1071500Y3025240D02*
X1079500Y3025240D01*
X1086500Y3025240D02*
X1092500Y3025240D01*
X1101500Y3025240D02*
X1107500Y3025240D01*
X1072500Y3024240D02*
X1092500Y3024240D01*
X1101500Y3024240D02*
X1107500Y3024240D01*
X1072500Y3023240D02*
X1092500Y3023240D01*
X1101500Y3023240D02*
X1107500Y3023240D01*
X1073500Y3022240D02*
X1092500Y3022240D01*
X1101500Y3022240D02*
X1107500Y3022240D01*
X1074500Y3021240D02*
X1091500Y3021240D01*
X1101500Y3021240D02*
X1107500Y3021240D01*
X1075500Y3020240D02*
X1091500Y3020240D01*
X1102500Y3020240D02*
X1107500Y3020240D01*
X1077500Y3019240D02*
X1091500Y3019240D01*
X1102500Y3019240D02*
X1107500Y3019240D01*
X1079500Y3018240D02*
X1090500Y3018240D01*
X1103500Y3018240D02*
X1106500Y3018240D01*
X1072500Y3002240D02*
X1105500Y3002240D01*
X1070500Y3001240D02*
X1106500Y3001240D01*
X1070500Y3000240D02*
X1107500Y3000240D01*
X1070500Y2999240D02*
X1107500Y2999240D01*
X1070500Y2998240D02*
X1107500Y2998240D01*
X1070500Y2997240D02*
X1107500Y2997240D01*
X1071500Y2996240D02*
X1106500Y2996240D01*
X1077500Y2995240D02*
X1085500Y2995240D01*
X1076500Y2994240D02*
X1084500Y2994240D01*
X1075500Y2993240D02*
X1083500Y2993240D01*
X1074500Y2992240D02*
X1082500Y2992240D01*
X1073500Y2991240D02*
X1082500Y2991240D01*
X1073500Y2990240D02*
X1081500Y2990240D01*
X1072500Y2989240D02*
X1080500Y2989240D01*
X1071500Y2988240D02*
X1079500Y2988240D01*
X1070500Y2987240D02*
X1078500Y2987240D01*
X1070500Y2986240D02*
X1077500Y2986240D01*
X1070500Y2985240D02*
X1076500Y2985240D01*
X1069500Y2984240D02*
X1076500Y2984240D01*
X1069500Y2983240D02*
X1075500Y2983240D01*
X1069500Y2982240D02*
X1075500Y2982240D01*
X1069500Y2981240D02*
X1075500Y2981240D01*
X1069500Y2980240D02*
X1075500Y2980240D01*
X1069500Y2979240D02*
X1075500Y2979240D01*
X1070500Y2978240D02*
X1075500Y2978240D01*
X1070500Y2977240D02*
X1076500Y2977240D01*
X1070500Y2976240D02*
X1076500Y2976240D01*
X1070500Y2975240D02*
X1078500Y2975240D01*
X1070500Y2974240D02*
X1082500Y2974240D01*
X1071500Y2973240D02*
X1083500Y2973240D01*
X1071500Y2972240D02*
X1083500Y2972240D01*
X1072500Y2971240D02*
X1083500Y2971240D01*
X1073500Y2970240D02*
X1083500Y2970240D01*
X1075500Y2969240D02*
X1083500Y2969240D01*
X1079500Y2968240D02*
X1080500Y2968240D01*
X1092500Y2892240D02*
X1101500Y2892240D01*
X1091500Y2891240D02*
X1102500Y2891240D01*
X1091500Y2890240D02*
X1102500Y2890240D01*
X1091500Y2889240D02*
X1102500Y2889240D01*
X1091500Y2888240D02*
X1102500Y2888240D01*
X1091500Y2887240D02*
X1102500Y2887240D01*
X1091500Y2886240D02*
X1102500Y2886240D01*
X1091500Y2885240D02*
X1102500Y2885240D01*
X1091500Y2884240D02*
X1102500Y2884240D01*
X1091500Y2883240D02*
X1102500Y2883240D01*
X1091500Y2882240D02*
X1102500Y2882240D01*
X1091500Y2881240D02*
X1102500Y2881240D01*
X1092500Y2880240D02*
X1101500Y2880240D01*
X1081500Y2804240D02*
X1096500Y2804240D01*
X1077500Y2803240D02*
X1100500Y2803240D01*
X1076500Y2802240D02*
X1101500Y2802240D01*
X1075500Y2801240D02*
X1102500Y2801240D01*
X1074500Y2800240D02*
X1103500Y2800240D01*
X1073500Y2799240D02*
X1104500Y2799240D01*
X1072500Y2798240D02*
X1105500Y2798240D01*
X1071500Y2797240D02*
X1080500Y2797240D01*
X1097500Y2797240D02*
X1106500Y2797240D01*
X1071500Y2796240D02*
X1078500Y2796240D01*
X1098500Y2796240D02*
X1106500Y2796240D01*
X1070500Y2795240D02*
X1077500Y2795240D01*
X1100500Y2795240D02*
X1107500Y2795240D01*
X1070500Y2794240D02*
X1076500Y2794240D01*
X1100500Y2794240D02*
X1107500Y2794240D01*
X1070500Y2793240D02*
X1076500Y2793240D01*
X1101500Y2793240D02*
X1107500Y2793240D01*
X1070500Y2792240D02*
X1076500Y2792240D01*
X1101500Y2792240D02*
X1107500Y2792240D01*
X1070500Y2791240D02*
X1075500Y2791240D01*
X1101500Y2791240D02*
X1107500Y2791240D01*
X1069500Y2790240D02*
X1075500Y2790240D01*
X1101500Y2790240D02*
X1107500Y2790240D01*
X1069500Y2789240D02*
X1075500Y2789240D01*
X1101500Y2789240D02*
X1107500Y2789240D01*
X1069500Y2788240D02*
X1075500Y2788240D01*
X1101500Y2788240D02*
X1107500Y2788240D01*
X1069500Y2787240D02*
X1075500Y2787240D01*
X1101500Y2787240D02*
X1107500Y2787240D01*
X1070500Y2786240D02*
X1075500Y2786240D01*
X1101500Y2786240D02*
X1107500Y2786240D01*
X1070500Y2785240D02*
X1076500Y2785240D01*
X1101500Y2785240D02*
X1107500Y2785240D01*
X1070500Y2784240D02*
X1076500Y2784240D01*
X1101500Y2784240D02*
X1107500Y2784240D01*
X1070500Y2783240D02*
X1077500Y2783240D01*
X1100500Y2783240D02*
X1107500Y2783240D01*
X1071500Y2782240D02*
X1078500Y2782240D01*
X1099500Y2782240D02*
X1106500Y2782240D01*
X1071500Y2781240D02*
X1079500Y2781240D01*
X1098500Y2781240D02*
X1106500Y2781240D01*
X1072500Y2780240D02*
X1080500Y2780240D01*
X1097500Y2780240D02*
X1105500Y2780240D01*
X1073500Y2779240D02*
X1081500Y2779240D01*
X1096500Y2779240D02*
X1105500Y2779240D01*
X1073500Y2778240D02*
X1082500Y2778240D01*
X1095500Y2778240D02*
X1104500Y2778240D01*
X1074500Y2777240D02*
X1084500Y2777240D01*
X1093500Y2777240D02*
X1103500Y2777240D01*
X1056500Y2776240D02*
X1106500Y2776240D01*
X1055500Y2775240D02*
X1107500Y2775240D01*
X1055500Y2774240D02*
X1107500Y2774240D01*
X1055500Y2773240D02*
X1107500Y2773240D01*
X1055500Y2772240D02*
X1107500Y2772240D01*
X1056500Y2771240D02*
X1106500Y2771240D01*
X1079500Y2754240D02*
X1098500Y2754240D01*
X1077500Y2753240D02*
X1100500Y2753240D01*
X1075500Y2752240D02*
X1102500Y2752240D01*
X1074500Y2751240D02*
X1103500Y2751240D01*
X1073500Y2750240D02*
X1104500Y2750240D01*
X1072500Y2749240D02*
X1104500Y2749240D01*
X1072500Y2748240D02*
X1105500Y2748240D01*
X1071500Y2747240D02*
X1079500Y2747240D01*
X1086500Y2747240D02*
X1092500Y2747240D01*
X1098500Y2747240D02*
X1106500Y2747240D01*
X1070500Y2746240D02*
X1078500Y2746240D01*
X1086500Y2746240D02*
X1092500Y2746240D01*
X1099500Y2746240D02*
X1106500Y2746240D01*
X1070500Y2745240D02*
X1077500Y2745240D01*
X1086500Y2745240D02*
X1092500Y2745240D01*
X1100500Y2745240D02*
X1107500Y2745240D01*
X1070500Y2744240D02*
X1076500Y2744240D01*
X1086500Y2744240D02*
X1092500Y2744240D01*
X1101500Y2744240D02*
X1107500Y2744240D01*
X1070500Y2743240D02*
X1076500Y2743240D01*
X1086500Y2743240D02*
X1092500Y2743240D01*
X1101500Y2743240D02*
X1107500Y2743240D01*
X1070500Y2742240D02*
X1075500Y2742240D01*
X1086500Y2742240D02*
X1092500Y2742240D01*
X1101500Y2742240D02*
X1107500Y2742240D01*
X1069500Y2741240D02*
X1075500Y2741240D01*
X1086500Y2741240D02*
X1092500Y2741240D01*
X1101500Y2741240D02*
X1107500Y2741240D01*
X1069500Y2740240D02*
X1075500Y2740240D01*
X1086500Y2740240D02*
X1092500Y2740240D01*
X1101500Y2740240D02*
X1107500Y2740240D01*
X1069500Y2739240D02*
X1075500Y2739240D01*
X1086500Y2739240D02*
X1092500Y2739240D01*
X1101500Y2739240D02*
X1107500Y2739240D01*
X1069500Y2738240D02*
X1075500Y2738240D01*
X1086500Y2738240D02*
X1092500Y2738240D01*
X1101500Y2738240D02*
X1107500Y2738240D01*
X1069500Y2737240D02*
X1075500Y2737240D01*
X1086500Y2737240D02*
X1092500Y2737240D01*
X1101500Y2737240D02*
X1107500Y2737240D01*
X1069500Y2736240D02*
X1075500Y2736240D01*
X1086500Y2736240D02*
X1092500Y2736240D01*
X1101500Y2736240D02*
X1107500Y2736240D01*
X1069500Y2735240D02*
X1075500Y2735240D01*
X1086500Y2735240D02*
X1092500Y2735240D01*
X1101500Y2735240D02*
X1107500Y2735240D01*
X1069500Y2734240D02*
X1075500Y2734240D01*
X1086500Y2734240D02*
X1092500Y2734240D01*
X1101500Y2734240D02*
X1107500Y2734240D01*
X1070500Y2733240D02*
X1075500Y2733240D01*
X1086500Y2733240D02*
X1092500Y2733240D01*
X1101500Y2733240D02*
X1107500Y2733240D01*
X1070500Y2732240D02*
X1076500Y2732240D01*
X1086500Y2732240D02*
X1092500Y2732240D01*
X1101500Y2732240D02*
X1107500Y2732240D01*
X1070500Y2731240D02*
X1076500Y2731240D01*
X1086500Y2731240D02*
X1092500Y2731240D01*
X1101500Y2731240D02*
X1107500Y2731240D01*
X1070500Y2730240D02*
X1077500Y2730240D01*
X1086500Y2730240D02*
X1092500Y2730240D01*
X1101500Y2730240D02*
X1107500Y2730240D01*
X1070500Y2729240D02*
X1078500Y2729240D01*
X1086500Y2729240D02*
X1092500Y2729240D01*
X1101500Y2729240D02*
X1107500Y2729240D01*
X1071500Y2728240D02*
X1079500Y2728240D01*
X1086500Y2728240D02*
X1092500Y2728240D01*
X1101500Y2728240D02*
X1107500Y2728240D01*
X1072500Y2727240D02*
X1092500Y2727240D01*
X1101500Y2727240D02*
X1107500Y2727240D01*
X1072500Y2726240D02*
X1092500Y2726240D01*
X1101500Y2726240D02*
X1107500Y2726240D01*
X1073500Y2725240D02*
X1092500Y2725240D01*
X1101500Y2725240D02*
X1107500Y2725240D01*
X1074500Y2724240D02*
X1091500Y2724240D01*
X1101500Y2724240D02*
X1107500Y2724240D01*
X1075500Y2723240D02*
X1091500Y2723240D01*
X1102500Y2723240D02*
X1107500Y2723240D01*
X1077500Y2722240D02*
X1091500Y2722240D01*
X1102500Y2722240D02*
X1107500Y2722240D01*
X1079500Y2721240D02*
X1090500Y2721240D01*
X1103500Y2721240D02*
X1106500Y2721240D01*
X1057500Y2655240D02*
X1059500Y2655240D01*
X1082500Y2655240D02*
X1107500Y2655240D01*
X1056500Y2654240D02*
X1060500Y2654240D01*
X1081500Y2654240D02*
X1107500Y2654240D01*
X1055500Y2653240D02*
X1061500Y2653240D01*
X1080500Y2653240D02*
X1107500Y2653240D01*
X1055500Y2652240D02*
X1061500Y2652240D01*
X1079500Y2652240D02*
X1107500Y2652240D01*
X1055500Y2651240D02*
X1061500Y2651240D01*
X1079500Y2651240D02*
X1107500Y2651240D01*
X1055500Y2650240D02*
X1061500Y2650240D01*
X1078500Y2650240D02*
X1107500Y2650240D01*
X1055500Y2649240D02*
X1061500Y2649240D01*
X1078500Y2649240D02*
X1107500Y2649240D01*
X1055500Y2648240D02*
X1061500Y2648240D01*
X1078500Y2648240D02*
X1084500Y2648240D01*
X1101500Y2648240D02*
X1107500Y2648240D01*
X1055500Y2647240D02*
X1061500Y2647240D01*
X1078500Y2647240D02*
X1084500Y2647240D01*
X1101500Y2647240D02*
X1107500Y2647240D01*
X1055500Y2646240D02*
X1061500Y2646240D01*
X1078500Y2646240D02*
X1084500Y2646240D01*
X1101500Y2646240D02*
X1107500Y2646240D01*
X1055500Y2645240D02*
X1061500Y2645240D01*
X1078500Y2645240D02*
X1084500Y2645240D01*
X1101500Y2645240D02*
X1107500Y2645240D01*
X1055500Y2644240D02*
X1061500Y2644240D01*
X1078500Y2644240D02*
X1084500Y2644240D01*
X1101500Y2644240D02*
X1107500Y2644240D01*
X1055500Y2643240D02*
X1061500Y2643240D01*
X1078500Y2643240D02*
X1084500Y2643240D01*
X1101500Y2643240D02*
X1107500Y2643240D01*
X1055500Y2642240D02*
X1061500Y2642240D01*
X1078500Y2642240D02*
X1084500Y2642240D01*
X1101500Y2642240D02*
X1107500Y2642240D01*
X1055500Y2641240D02*
X1061500Y2641240D01*
X1078500Y2641240D02*
X1084500Y2641240D01*
X1101500Y2641240D02*
X1107500Y2641240D01*
X1055500Y2640240D02*
X1061500Y2640240D01*
X1078500Y2640240D02*
X1084500Y2640240D01*
X1101500Y2640240D02*
X1107500Y2640240D01*
X1055500Y2639240D02*
X1061500Y2639240D01*
X1078500Y2639240D02*
X1084500Y2639240D01*
X1101500Y2639240D02*
X1107500Y2639240D01*
X1055500Y2638240D02*
X1061500Y2638240D01*
X1078500Y2638240D02*
X1084500Y2638240D01*
X1101500Y2638240D02*
X1107500Y2638240D01*
X1055500Y2637240D02*
X1061500Y2637240D01*
X1078500Y2637240D02*
X1084500Y2637240D01*
X1101500Y2637240D02*
X1107500Y2637240D01*
X1055500Y2636240D02*
X1061500Y2636240D01*
X1078500Y2636240D02*
X1084500Y2636240D01*
X1101500Y2636240D02*
X1107500Y2636240D01*
X1055500Y2635240D02*
X1061500Y2635240D01*
X1078500Y2635240D02*
X1084500Y2635240D01*
X1101500Y2635240D02*
X1107500Y2635240D01*
X1055500Y2634240D02*
X1061500Y2634240D01*
X1078500Y2634240D02*
X1084500Y2634240D01*
X1101500Y2634240D02*
X1107500Y2634240D01*
X1055500Y2633240D02*
X1061500Y2633240D01*
X1078500Y2633240D02*
X1084500Y2633240D01*
X1101500Y2633240D02*
X1107500Y2633240D01*
X1055500Y2632240D02*
X1061500Y2632240D01*
X1078500Y2632240D02*
X1084500Y2632240D01*
X1101500Y2632240D02*
X1107500Y2632240D01*
X1055500Y2631240D02*
X1061500Y2631240D01*
X1078500Y2631240D02*
X1084500Y2631240D01*
X1101500Y2631240D02*
X1107500Y2631240D01*
X1055500Y2630240D02*
X1061500Y2630240D01*
X1078500Y2630240D02*
X1084500Y2630240D01*
X1101500Y2630240D02*
X1107500Y2630240D01*
X1055500Y2629240D02*
X1061500Y2629240D01*
X1078500Y2629240D02*
X1084500Y2629240D01*
X1101500Y2629240D02*
X1107500Y2629240D01*
X1055500Y2628240D02*
X1084500Y2628240D01*
X1101500Y2628240D02*
X1107500Y2628240D01*
X1055500Y2627240D02*
X1084500Y2627240D01*
X1101500Y2627240D02*
X1107500Y2627240D01*
X1055500Y2626240D02*
X1084500Y2626240D01*
X1101500Y2626240D02*
X1107500Y2626240D01*
X1056500Y2625240D02*
X1083500Y2625240D01*
X1101500Y2625240D02*
X1107500Y2625240D01*
X1057500Y2624240D02*
X1082500Y2624240D01*
X1102500Y2624240D02*
X1107500Y2624240D01*
X1058500Y2623240D02*
X1081500Y2623240D01*
X1102500Y2623240D02*
X1107500Y2623240D01*
X1059500Y2622240D02*
X1080500Y2622240D01*
X1103500Y2622240D02*
X1106500Y2622240D01*
X1061500Y2606240D02*
X1102500Y2606240D01*
X1058500Y2605240D02*
X1104500Y2605240D01*
X1057500Y2604240D02*
X1105500Y2604240D01*
X1056500Y2603240D02*
X1106500Y2603240D01*
X1056500Y2602240D02*
X1107500Y2602240D01*
X1055500Y2601240D02*
X1107500Y2601240D01*
X1055500Y2600240D02*
X1107500Y2600240D01*
X1055500Y2599240D02*
X1061500Y2599240D01*
X1101500Y2599240D02*
X1107500Y2599240D01*
X1055500Y2598240D02*
X1061500Y2598240D01*
X1101500Y2598240D02*
X1107500Y2598240D01*
X1055500Y2597240D02*
X1061500Y2597240D01*
X1101500Y2597240D02*
X1107500Y2597240D01*
X1055500Y2596240D02*
X1061500Y2596240D01*
X1101500Y2596240D02*
X1107500Y2596240D01*
X1055500Y2595240D02*
X1061500Y2595240D01*
X1101500Y2595240D02*
X1107500Y2595240D01*
X1055500Y2594240D02*
X1061500Y2594240D01*
X1101500Y2594240D02*
X1107500Y2594240D01*
X1055500Y2593240D02*
X1061500Y2593240D01*
X1101500Y2593240D02*
X1107500Y2593240D01*
X1055500Y2592240D02*
X1061500Y2592240D01*
X1101500Y2592240D02*
X1107500Y2592240D01*
X1055500Y2591240D02*
X1061500Y2591240D01*
X1101500Y2591240D02*
X1107500Y2591240D01*
X1055500Y2590240D02*
X1061500Y2590240D01*
X1101500Y2590240D02*
X1107500Y2590240D01*
X1055500Y2589240D02*
X1061500Y2589240D01*
X1101500Y2589240D02*
X1107500Y2589240D01*
X1055500Y2588240D02*
X1061500Y2588240D01*
X1101500Y2588240D02*
X1107500Y2588240D01*
X1055500Y2587240D02*
X1061500Y2587240D01*
X1101500Y2587240D02*
X1107500Y2587240D01*
X1055500Y2586240D02*
X1061500Y2586240D01*
X1101500Y2586240D02*
X1107500Y2586240D01*
X1055500Y2585240D02*
X1061500Y2585240D01*
X1101500Y2585240D02*
X1107500Y2585240D01*
X1055500Y2584240D02*
X1061500Y2584240D01*
X1101500Y2584240D02*
X1107500Y2584240D01*
X1055500Y2583240D02*
X1061500Y2583240D01*
X1101500Y2583240D02*
X1107500Y2583240D01*
X1055500Y2582240D02*
X1061500Y2582240D01*
X1101500Y2582240D02*
X1107500Y2582240D01*
X1055500Y2581240D02*
X1061500Y2581240D01*
X1101500Y2581240D02*
X1107500Y2581240D01*
X1055500Y2580240D02*
X1061500Y2580240D01*
X1101500Y2580240D02*
X1107500Y2580240D01*
X1055500Y2579240D02*
X1061500Y2579240D01*
X1101500Y2579240D02*
X1107500Y2579240D01*
X1055500Y2578240D02*
X1107500Y2578240D01*
X1055500Y2577240D02*
X1107500Y2577240D01*
X1056500Y2576240D02*
X1107500Y2576240D01*
X1056500Y2575240D02*
X1106500Y2575240D01*
X1057500Y2574240D02*
X1105500Y2574240D01*
X1058500Y2573240D02*
X1104500Y2573240D01*
X1057500Y2556240D02*
X1059500Y2556240D01*
X1082500Y2556240D02*
X1107500Y2556240D01*
X1056500Y2555240D02*
X1060500Y2555240D01*
X1081500Y2555240D02*
X1107500Y2555240D01*
X1055500Y2554240D02*
X1061500Y2554240D01*
X1080500Y2554240D02*
X1107500Y2554240D01*
X1055500Y2553240D02*
X1061500Y2553240D01*
X1079500Y2553240D02*
X1107500Y2553240D01*
X1055500Y2552240D02*
X1061500Y2552240D01*
X1079500Y2552240D02*
X1107500Y2552240D01*
X1055500Y2551240D02*
X1061500Y2551240D01*
X1078500Y2551240D02*
X1107500Y2551240D01*
X1055500Y2550240D02*
X1061500Y2550240D01*
X1078500Y2550240D02*
X1107500Y2550240D01*
X1055500Y2549240D02*
X1061500Y2549240D01*
X1078500Y2549240D02*
X1084500Y2549240D01*
X1101500Y2549240D02*
X1107500Y2549240D01*
X1055500Y2548240D02*
X1061500Y2548240D01*
X1078500Y2548240D02*
X1084500Y2548240D01*
X1101500Y2548240D02*
X1107500Y2548240D01*
X1055500Y2547240D02*
X1061500Y2547240D01*
X1078500Y2547240D02*
X1084500Y2547240D01*
X1101500Y2547240D02*
X1107500Y2547240D01*
X1055500Y2546240D02*
X1061500Y2546240D01*
X1078500Y2546240D02*
X1084500Y2546240D01*
X1101500Y2546240D02*
X1107500Y2546240D01*
X1055500Y2545240D02*
X1061500Y2545240D01*
X1078500Y2545240D02*
X1084500Y2545240D01*
X1101500Y2545240D02*
X1107500Y2545240D01*
X1055500Y2544240D02*
X1061500Y2544240D01*
X1078500Y2544240D02*
X1084500Y2544240D01*
X1101500Y2544240D02*
X1107500Y2544240D01*
X1055500Y2543240D02*
X1061500Y2543240D01*
X1078500Y2543240D02*
X1084500Y2543240D01*
X1101500Y2543240D02*
X1107500Y2543240D01*
X1055500Y2542240D02*
X1061500Y2542240D01*
X1078500Y2542240D02*
X1084500Y2542240D01*
X1101500Y2542240D02*
X1107500Y2542240D01*
X1055500Y2541240D02*
X1061500Y2541240D01*
X1078500Y2541240D02*
X1084500Y2541240D01*
X1101500Y2541240D02*
X1107500Y2541240D01*
X1055500Y2540240D02*
X1061500Y2540240D01*
X1078500Y2540240D02*
X1084500Y2540240D01*
X1101500Y2540240D02*
X1107500Y2540240D01*
X1055500Y2539240D02*
X1061500Y2539240D01*
X1078500Y2539240D02*
X1084500Y2539240D01*
X1101500Y2539240D02*
X1107500Y2539240D01*
X1055500Y2538240D02*
X1061500Y2538240D01*
X1078500Y2538240D02*
X1084500Y2538240D01*
X1101500Y2538240D02*
X1107500Y2538240D01*
X1055500Y2537240D02*
X1061500Y2537240D01*
X1078500Y2537240D02*
X1084500Y2537240D01*
X1101500Y2537240D02*
X1107500Y2537240D01*
X1055500Y2536240D02*
X1061500Y2536240D01*
X1078500Y2536240D02*
X1084500Y2536240D01*
X1101500Y2536240D02*
X1107500Y2536240D01*
X1055500Y2535240D02*
X1061500Y2535240D01*
X1078500Y2535240D02*
X1084500Y2535240D01*
X1101500Y2535240D02*
X1107500Y2535240D01*
X1055500Y2534240D02*
X1061500Y2534240D01*
X1078500Y2534240D02*
X1084500Y2534240D01*
X1101500Y2534240D02*
X1107500Y2534240D01*
X1055500Y2533240D02*
X1061500Y2533240D01*
X1078500Y2533240D02*
X1084500Y2533240D01*
X1101500Y2533240D02*
X1107500Y2533240D01*
X1055500Y2532240D02*
X1061500Y2532240D01*
X1078500Y2532240D02*
X1084500Y2532240D01*
X1101500Y2532240D02*
X1107500Y2532240D01*
X1055500Y2531240D02*
X1061500Y2531240D01*
X1078500Y2531240D02*
X1084500Y2531240D01*
X1101500Y2531240D02*
X1107500Y2531240D01*
X1055500Y2530240D02*
X1061500Y2530240D01*
X1078500Y2530240D02*
X1084500Y2530240D01*
X1101500Y2530240D02*
X1107500Y2530240D01*
X1055500Y2529240D02*
X1084500Y2529240D01*
X1101500Y2529240D02*
X1107500Y2529240D01*
X1055500Y2528240D02*
X1084500Y2528240D01*
X1101500Y2528240D02*
X1107500Y2528240D01*
X1055500Y2527240D02*
X1084500Y2527240D01*
X1101500Y2527240D02*
X1107500Y2527240D01*
X1056500Y2526240D02*
X1083500Y2526240D01*
X1101500Y2526240D02*
X1107500Y2526240D01*
X1057500Y2525240D02*
X1082500Y2525240D01*
X1102500Y2525240D02*
X1107500Y2525240D01*
X1058500Y2524240D02*
X1081500Y2524240D01*
X1102500Y2524240D02*
X1107500Y2524240D01*
X1059500Y2523240D02*
X1080500Y2523240D01*
X1103500Y2523240D02*
X1106500Y2523240D01*
X1101500Y2505240D02*
X1104500Y2505240D01*
X1100500Y2504240D02*
X1105500Y2504240D01*
X1100500Y2503240D02*
X1105500Y2503240D01*
X1100500Y2502240D02*
X1106500Y2502240D01*
X1055500Y2501240D02*
X1084500Y2501240D01*
X1100500Y2501240D02*
X1106500Y2501240D01*
X1055500Y2500240D02*
X1084500Y2500240D01*
X1100500Y2500240D02*
X1107500Y2500240D01*
X1055500Y2499240D02*
X1084500Y2499240D01*
X1101500Y2499240D02*
X1107500Y2499240D01*
X1055500Y2498240D02*
X1084500Y2498240D01*
X1101500Y2498240D02*
X1107500Y2498240D01*
X1055500Y2497240D02*
X1084500Y2497240D01*
X1101500Y2497240D02*
X1107500Y2497240D01*
X1055500Y2496240D02*
X1084500Y2496240D01*
X1101500Y2496240D02*
X1107500Y2496240D01*
X1055500Y2495240D02*
X1084500Y2495240D01*
X1101500Y2495240D02*
X1107500Y2495240D01*
X1055500Y2494240D02*
X1061500Y2494240D01*
X1078500Y2494240D02*
X1084500Y2494240D01*
X1101500Y2494240D02*
X1107500Y2494240D01*
X1055500Y2493240D02*
X1061500Y2493240D01*
X1078500Y2493240D02*
X1084500Y2493240D01*
X1101500Y2493240D02*
X1107500Y2493240D01*
X1055500Y2492240D02*
X1061500Y2492240D01*
X1078500Y2492240D02*
X1084500Y2492240D01*
X1101500Y2492240D02*
X1107500Y2492240D01*
X1055500Y2491240D02*
X1061500Y2491240D01*
X1078500Y2491240D02*
X1084500Y2491240D01*
X1101500Y2491240D02*
X1107500Y2491240D01*
X1055500Y2490240D02*
X1061500Y2490240D01*
X1078500Y2490240D02*
X1084500Y2490240D01*
X1101500Y2490240D02*
X1107500Y2490240D01*
X1055500Y2489240D02*
X1061500Y2489240D01*
X1078500Y2489240D02*
X1084500Y2489240D01*
X1101500Y2489240D02*
X1107500Y2489240D01*
X1055500Y2488240D02*
X1061500Y2488240D01*
X1078500Y2488240D02*
X1084500Y2488240D01*
X1101500Y2488240D02*
X1107500Y2488240D01*
X1055500Y2487240D02*
X1061500Y2487240D01*
X1078500Y2487240D02*
X1084500Y2487240D01*
X1101500Y2487240D02*
X1107500Y2487240D01*
X1055500Y2486240D02*
X1061500Y2486240D01*
X1078500Y2486240D02*
X1084500Y2486240D01*
X1101500Y2486240D02*
X1107500Y2486240D01*
X1055500Y2485240D02*
X1061500Y2485240D01*
X1078500Y2485240D02*
X1084500Y2485240D01*
X1101500Y2485240D02*
X1107500Y2485240D01*
X1055500Y2484240D02*
X1061500Y2484240D01*
X1078500Y2484240D02*
X1084500Y2484240D01*
X1101500Y2484240D02*
X1107500Y2484240D01*
X1055500Y2483240D02*
X1061500Y2483240D01*
X1078500Y2483240D02*
X1084500Y2483240D01*
X1101500Y2483240D02*
X1107500Y2483240D01*
X1055500Y2482240D02*
X1061500Y2482240D01*
X1078500Y2482240D02*
X1084500Y2482240D01*
X1101500Y2482240D02*
X1107500Y2482240D01*
X1055500Y2481240D02*
X1061500Y2481240D01*
X1078500Y2481240D02*
X1107500Y2481240D01*
X1055500Y2480240D02*
X1061500Y2480240D01*
X1078500Y2480240D02*
X1107500Y2480240D01*
X1055500Y2479240D02*
X1061500Y2479240D01*
X1079500Y2479240D02*
X1107500Y2479240D01*
X1055500Y2478240D02*
X1061500Y2478240D01*
X1079500Y2478240D02*
X1107500Y2478240D01*
X1055500Y2477240D02*
X1061500Y2477240D01*
X1080500Y2477240D02*
X1106500Y2477240D01*
X1056500Y2476240D02*
X1060500Y2476240D01*
X1081500Y2476240D02*
X1105500Y2476240D01*
X1056500Y2475240D02*
X1059500Y2475240D01*
X1082500Y2475240D02*
X1103500Y2475240D01*
X442500Y323240D02*
X452500Y323240D01*
X702500Y323240D02*
X711500Y323240D01*
X961500Y323240D02*
X970500Y323240D01*
X1221500Y323240D02*
X1230500Y323240D01*
X441500Y322240D02*
X453500Y322240D01*
X700500Y322240D02*
X713500Y322240D01*
X960500Y322240D02*
X972500Y322240D01*
X1219500Y322240D02*
X1231500Y322240D01*
X440500Y321240D02*
X454500Y321240D01*
X699500Y321240D02*
X714500Y321240D01*
X959500Y321240D02*
X973500Y321240D01*
X1218500Y321240D02*
X1232500Y321240D01*
X439500Y320240D02*
X455500Y320240D01*
X699500Y320240D02*
X714500Y320240D01*
X958500Y320240D02*
X974500Y320240D01*
X1217500Y320240D02*
X1233500Y320240D01*
X439500Y319240D02*
X455500Y319240D01*
X698500Y319240D02*
X715500Y319240D01*
X957500Y319240D02*
X974500Y319240D01*
X1217500Y319240D02*
X1234500Y319240D01*
X374500Y318240D02*
X395500Y318240D01*
X439500Y318240D02*
X455500Y318240D01*
X633500Y318240D02*
X654500Y318240D01*
X698500Y318240D02*
X715500Y318240D01*
X893500Y318240D02*
X913500Y318240D01*
X957500Y318240D02*
X974500Y318240D01*
X1152500Y318240D02*
X1173500Y318240D01*
X1217500Y318240D02*
X1234500Y318240D01*
X372500Y317240D02*
X396500Y317240D01*
X438500Y317240D02*
X456500Y317240D01*
X632500Y317240D02*
X656500Y317240D01*
X698500Y317240D02*
X715500Y317240D01*
X891500Y317240D02*
X915500Y317240D01*
X957500Y317240D02*
X974500Y317240D01*
X1150500Y317240D02*
X1174500Y317240D01*
X1217500Y317240D02*
X1234500Y317240D01*
X371500Y316240D02*
X397500Y316240D01*
X438500Y316240D02*
X456500Y316240D01*
X631500Y316240D02*
X657500Y316240D01*
X698500Y316240D02*
X715500Y316240D01*
X890500Y316240D02*
X916500Y316240D01*
X957500Y316240D02*
X974500Y316240D01*
X1149500Y316240D02*
X1176500Y316240D01*
X1217500Y316240D02*
X1234500Y316240D01*
X371500Y315240D02*
X398500Y315240D01*
X438500Y315240D02*
X456500Y315240D01*
X630500Y315240D02*
X657500Y315240D01*
X698500Y315240D02*
X715500Y315240D01*
X889500Y315240D02*
X917500Y315240D01*
X957500Y315240D02*
X974500Y315240D01*
X1149500Y315240D02*
X1176500Y315240D01*
X1217500Y315240D02*
X1234500Y315240D01*
X370500Y314240D02*
X398500Y314240D01*
X438500Y314240D02*
X456500Y314240D01*
X629500Y314240D02*
X658500Y314240D01*
X698500Y314240D02*
X715500Y314240D01*
X889500Y314240D02*
X917500Y314240D01*
X957500Y314240D02*
X974500Y314240D01*
X1148500Y314240D02*
X1177500Y314240D01*
X1217500Y314240D02*
X1234500Y314240D01*
X370500Y313240D02*
X399500Y313240D01*
X438500Y313240D02*
X456500Y313240D01*
X629500Y313240D02*
X658500Y313240D01*
X698500Y313240D02*
X715500Y313240D01*
X889500Y313240D02*
X917500Y313240D01*
X957500Y313240D02*
X974500Y313240D01*
X1148500Y313240D02*
X1177500Y313240D01*
X1217500Y313240D02*
X1234500Y313240D01*
X370500Y312240D02*
X399500Y312240D01*
X439500Y312240D02*
X456500Y312240D01*
X629500Y312240D02*
X658500Y312240D01*
X698500Y312240D02*
X715500Y312240D01*
X889500Y312240D02*
X917500Y312240D01*
X957500Y312240D02*
X974500Y312240D01*
X1148500Y312240D02*
X1177500Y312240D01*
X1217500Y312240D02*
X1234500Y312240D01*
X370500Y311240D02*
X399500Y311240D01*
X439500Y311240D02*
X455500Y311240D01*
X629500Y311240D02*
X658500Y311240D01*
X698500Y311240D02*
X715500Y311240D01*
X889500Y311240D02*
X917500Y311240D01*
X957500Y311240D02*
X974500Y311240D01*
X1148500Y311240D02*
X1177500Y311240D01*
X1217500Y311240D02*
X1234500Y311240D01*
X370500Y310240D02*
X398500Y310240D01*
X439500Y310240D02*
X455500Y310240D01*
X629500Y310240D02*
X658500Y310240D01*
X698500Y310240D02*
X714500Y310240D01*
X889500Y310240D02*
X917500Y310240D01*
X958500Y310240D02*
X974500Y310240D01*
X1148500Y310240D02*
X1176500Y310240D01*
X1217500Y310240D02*
X1233500Y310240D01*
X370500Y309240D02*
X398500Y309240D01*
X440500Y309240D02*
X454500Y309240D01*
X629500Y309240D02*
X657500Y309240D01*
X699500Y309240D02*
X714500Y309240D01*
X889500Y309240D02*
X916500Y309240D01*
X958500Y309240D02*
X973500Y309240D01*
X1148500Y309240D02*
X1176500Y309240D01*
X1218500Y309240D02*
X1233500Y309240D01*
X370500Y308240D02*
X397500Y308240D01*
X440500Y308240D02*
X454500Y308240D01*
X629500Y308240D02*
X656500Y308240D01*
X700500Y308240D02*
X713500Y308240D01*
X889500Y308240D02*
X916500Y308240D01*
X959500Y308240D02*
X972500Y308240D01*
X1148500Y308240D02*
X1175500Y308240D01*
X1219500Y308240D02*
X1232500Y308240D01*
X370500Y307240D02*
X395500Y307240D01*
X442500Y307240D02*
X452500Y307240D01*
X629500Y307240D02*
X655500Y307240D01*
X701500Y307240D02*
X712500Y307240D01*
X889500Y307240D02*
X914500Y307240D01*
X961500Y307240D02*
X971500Y307240D01*
X1148500Y307240D02*
X1173500Y307240D01*
X1220500Y307240D02*
X1230500Y307240D01*
X370500Y306240D02*
X381500Y306240D01*
X629500Y306240D02*
X640500Y306240D01*
X889500Y306240D02*
X900500Y306240D01*
X1148500Y306240D02*
X1159500Y306240D01*
X370500Y305240D02*
X381500Y305240D01*
X629500Y305240D02*
X640500Y305240D01*
X889500Y305240D02*
X900500Y305240D01*
X1148500Y305240D02*
X1159500Y305240D01*
X370500Y304240D02*
X381500Y304240D01*
X629500Y304240D02*
X640500Y304240D01*
X889500Y304240D02*
X900500Y304240D01*
X1148500Y304240D02*
X1159500Y304240D01*
X370500Y303240D02*
X381500Y303240D01*
X629500Y303240D02*
X640500Y303240D01*
X889500Y303240D02*
X900500Y303240D01*
X1148500Y303240D02*
X1159500Y303240D01*
X370500Y302240D02*
X381500Y302240D01*
X629500Y302240D02*
X640500Y302240D01*
X889500Y302240D02*
X900500Y302240D01*
X1148500Y302240D02*
X1159500Y302240D01*
X370500Y301240D02*
X381500Y301240D01*
X629500Y301240D02*
X640500Y301240D01*
X889500Y301240D02*
X900500Y301240D01*
X1148500Y301240D02*
X1159500Y301240D01*
X370500Y300240D02*
X381500Y300240D01*
X629500Y300240D02*
X640500Y300240D01*
X889500Y300240D02*
X900500Y300240D01*
X1148500Y300240D02*
X1159500Y300240D01*
X370500Y299240D02*
X381500Y299240D01*
X629500Y299240D02*
X640500Y299240D01*
X889500Y299240D02*
X900500Y299240D01*
X1148500Y299240D02*
X1159500Y299240D01*
X370500Y298240D02*
X381500Y298240D01*
X629500Y298240D02*
X640500Y298240D01*
X889500Y298240D02*
X900500Y298240D01*
X1148500Y298240D02*
X1159500Y298240D01*
X370500Y297240D02*
X381500Y297240D01*
X629500Y297240D02*
X640500Y297240D01*
X889500Y297240D02*
X900500Y297240D01*
X1148500Y297240D02*
X1159500Y297240D01*
X370500Y296240D02*
X381500Y296240D01*
X629500Y296240D02*
X640500Y296240D01*
X889500Y296240D02*
X900500Y296240D01*
X1148500Y296240D02*
X1159500Y296240D01*
X370500Y295240D02*
X381500Y295240D01*
X629500Y295240D02*
X640500Y295240D01*
X889500Y295240D02*
X900500Y295240D01*
X1148500Y295240D02*
X1159500Y295240D01*
X370500Y294240D02*
X381500Y294240D01*
X629500Y294240D02*
X640500Y294240D01*
X889500Y294240D02*
X900500Y294240D01*
X1148500Y294240D02*
X1159500Y294240D01*
X265500Y293240D02*
X290500Y293240D01*
X370500Y293240D02*
X381500Y293240D01*
X444500Y293240D02*
X468500Y293240D01*
X525500Y293240D02*
X550500Y293240D01*
X629500Y293240D02*
X640500Y293240D01*
X704500Y293240D02*
X727500Y293240D01*
X784500Y293240D02*
X809500Y293240D01*
X889500Y293240D02*
X900500Y293240D01*
X963500Y293240D02*
X986500Y293240D01*
X1044500Y293240D02*
X1069500Y293240D01*
X1148500Y293240D02*
X1159500Y293240D01*
X1222500Y293240D02*
X1246500Y293240D01*
X262500Y292240D02*
X296500Y292240D01*
X370500Y292240D02*
X381500Y292240D01*
X441500Y292240D02*
X470500Y292240D01*
X522500Y292240D02*
X555500Y292240D01*
X629500Y292240D02*
X640500Y292240D01*
X701500Y292240D02*
X730500Y292240D01*
X781500Y292240D02*
X815500Y292240D01*
X889500Y292240D02*
X900500Y292240D01*
X960500Y292240D02*
X989500Y292240D01*
X1041500Y292240D02*
X1074500Y292240D01*
X1148500Y292240D02*
X1159500Y292240D01*
X1220500Y292240D02*
X1249500Y292240D01*
X261500Y291240D02*
X299500Y291240D01*
X370500Y291240D02*
X381500Y291240D01*
X440500Y291240D02*
X472500Y291240D01*
X521500Y291240D02*
X558500Y291240D01*
X629500Y291240D02*
X640500Y291240D01*
X700500Y291240D02*
X731500Y291240D01*
X780500Y291240D02*
X817500Y291240D01*
X889500Y291240D02*
X900500Y291240D01*
X959500Y291240D02*
X990500Y291240D01*
X1039500Y291240D02*
X1077500Y291240D01*
X1148500Y291240D02*
X1159500Y291240D01*
X1218500Y291240D02*
X1250500Y291240D01*
X261500Y290240D02*
X300500Y290240D01*
X370500Y290240D02*
X381500Y290240D01*
X439500Y290240D02*
X472500Y290240D01*
X520500Y290240D02*
X560500Y290240D01*
X629500Y290240D02*
X640500Y290240D01*
X699500Y290240D02*
X732500Y290240D01*
X779500Y290240D02*
X819500Y290240D01*
X889500Y290240D02*
X900500Y290240D01*
X958500Y290240D02*
X991500Y290240D01*
X1039500Y290240D02*
X1079500Y290240D01*
X1148500Y290240D02*
X1159500Y290240D01*
X1218500Y290240D02*
X1251500Y290240D01*
X260500Y289240D02*
X302500Y289240D01*
X370500Y289240D02*
X381500Y289240D01*
X439500Y289240D02*
X473500Y289240D01*
X519500Y289240D02*
X561500Y289240D01*
X629500Y289240D02*
X640500Y289240D01*
X698500Y289240D02*
X732500Y289240D01*
X779500Y289240D02*
X821500Y289240D01*
X889500Y289240D02*
X900500Y289240D01*
X958500Y289240D02*
X992500Y289240D01*
X1038500Y289240D02*
X1080500Y289240D01*
X1148500Y289240D02*
X1159500Y289240D01*
X1217500Y289240D02*
X1251500Y289240D01*
X260500Y288240D02*
X303500Y288240D01*
X370500Y288240D02*
X381500Y288240D01*
X439500Y288240D02*
X473500Y288240D01*
X519500Y288240D02*
X563500Y288240D01*
X629500Y288240D02*
X640500Y288240D01*
X698500Y288240D02*
X733500Y288240D01*
X778500Y288240D02*
X822500Y288240D01*
X889500Y288240D02*
X900500Y288240D01*
X957500Y288240D02*
X992500Y288240D01*
X1038500Y288240D02*
X1081500Y288240D01*
X1148500Y288240D02*
X1159500Y288240D01*
X1217500Y288240D02*
X1251500Y288240D01*
X260500Y287240D02*
X304500Y287240D01*
X370500Y287240D02*
X381500Y287240D01*
X438500Y287240D02*
X473500Y287240D01*
X519500Y287240D02*
X564500Y287240D01*
X629500Y287240D02*
X640500Y287240D01*
X698500Y287240D02*
X733500Y287240D01*
X778500Y287240D02*
X823500Y287240D01*
X889500Y287240D02*
X900500Y287240D01*
X957500Y287240D02*
X992500Y287240D01*
X1038500Y287240D02*
X1083500Y287240D01*
X1148500Y287240D02*
X1159500Y287240D01*
X1217500Y287240D02*
X1252500Y287240D01*
X260500Y286240D02*
X306500Y286240D01*
X370500Y286240D02*
X381500Y286240D01*
X438500Y286240D02*
X473500Y286240D01*
X519500Y286240D02*
X565500Y286240D01*
X629500Y286240D02*
X640500Y286240D01*
X698500Y286240D02*
X733500Y286240D01*
X778500Y286240D02*
X824500Y286240D01*
X889500Y286240D02*
X900500Y286240D01*
X957500Y286240D02*
X992500Y286240D01*
X1038500Y286240D02*
X1084500Y286240D01*
X1148500Y286240D02*
X1159500Y286240D01*
X1217500Y286240D02*
X1251500Y286240D01*
X260500Y285240D02*
X307500Y285240D01*
X370500Y285240D02*
X381500Y285240D01*
X438500Y285240D02*
X473500Y285240D01*
X519500Y285240D02*
X566500Y285240D01*
X629500Y285240D02*
X640500Y285240D01*
X698500Y285240D02*
X732500Y285240D01*
X779500Y285240D02*
X825500Y285240D01*
X889500Y285240D02*
X900500Y285240D01*
X957500Y285240D02*
X992500Y285240D01*
X1038500Y285240D02*
X1085500Y285240D01*
X1148500Y285240D02*
X1159500Y285240D01*
X1217500Y285240D02*
X1251500Y285240D01*
X260500Y284240D02*
X308500Y284240D01*
X370500Y284240D02*
X381500Y284240D01*
X438500Y284240D02*
X472500Y284240D01*
X520500Y284240D02*
X567500Y284240D01*
X629500Y284240D02*
X640500Y284240D01*
X698500Y284240D02*
X732500Y284240D01*
X779500Y284240D02*
X827500Y284240D01*
X889500Y284240D02*
X900500Y284240D01*
X957500Y284240D02*
X991500Y284240D01*
X1039500Y284240D02*
X1086500Y284240D01*
X1148500Y284240D02*
X1159500Y284240D01*
X1217500Y284240D02*
X1251500Y284240D01*
X261500Y283240D02*
X309500Y283240D01*
X370500Y283240D02*
X381500Y283240D01*
X438500Y283240D02*
X472500Y283240D01*
X521500Y283240D02*
X568500Y283240D01*
X629500Y283240D02*
X640500Y283240D01*
X698500Y283240D02*
X731500Y283240D01*
X780500Y283240D02*
X828500Y283240D01*
X889500Y283240D02*
X900500Y283240D01*
X957500Y283240D02*
X991500Y283240D01*
X1039500Y283240D02*
X1087500Y283240D01*
X1148500Y283240D02*
X1159500Y283240D01*
X1217500Y283240D02*
X1250500Y283240D01*
X262500Y282240D02*
X310500Y282240D01*
X370500Y282240D02*
X381500Y282240D01*
X438500Y282240D02*
X471500Y282240D01*
X522500Y282240D02*
X569500Y282240D01*
X629500Y282240D02*
X640500Y282240D01*
X698500Y282240D02*
X730500Y282240D01*
X781500Y282240D02*
X829500Y282240D01*
X889500Y282240D02*
X900500Y282240D01*
X957500Y282240D02*
X989500Y282240D01*
X1041500Y282240D02*
X1088500Y282240D01*
X1148500Y282240D02*
X1159500Y282240D01*
X1217500Y282240D02*
X1249500Y282240D01*
X265500Y281240D02*
X311500Y281240D01*
X370500Y281240D02*
X381500Y281240D01*
X438500Y281240D02*
X468500Y281240D01*
X525500Y281240D02*
X570500Y281240D01*
X629500Y281240D02*
X640500Y281240D01*
X698500Y281240D02*
X727500Y281240D01*
X784500Y281240D02*
X830500Y281240D01*
X889500Y281240D02*
X900500Y281240D01*
X957500Y281240D02*
X987500Y281240D01*
X1043500Y281240D02*
X1089500Y281240D01*
X1148500Y281240D02*
X1159500Y281240D01*
X1217500Y281240D02*
X1246500Y281240D01*
X294500Y280240D02*
X312500Y280240D01*
X370500Y280240D02*
X381500Y280240D01*
X438500Y280240D02*
X449500Y280240D01*
X553500Y280240D02*
X571500Y280240D01*
X629500Y280240D02*
X640500Y280240D01*
X698500Y280240D02*
X709500Y280240D01*
X813500Y280240D02*
X831500Y280240D01*
X889500Y280240D02*
X900500Y280240D01*
X957500Y280240D02*
X968500Y280240D01*
X1072500Y280240D02*
X1090500Y280240D01*
X1148500Y280240D02*
X1159500Y280240D01*
X1217500Y280240D02*
X1228500Y280240D01*
X295500Y279240D02*
X313500Y279240D01*
X370500Y279240D02*
X381500Y279240D01*
X438500Y279240D02*
X449500Y279240D01*
X555500Y279240D02*
X572500Y279240D01*
X629500Y279240D02*
X640500Y279240D01*
X698500Y279240D02*
X709500Y279240D01*
X814500Y279240D02*
X832500Y279240D01*
X889500Y279240D02*
X900500Y279240D01*
X957500Y279240D02*
X968500Y279240D01*
X1074500Y279240D02*
X1091500Y279240D01*
X1148500Y279240D02*
X1159500Y279240D01*
X1217500Y279240D02*
X1228500Y279240D01*
X296500Y278240D02*
X314500Y278240D01*
X370500Y278240D02*
X381500Y278240D01*
X438500Y278240D02*
X449500Y278240D01*
X556500Y278240D02*
X573500Y278240D01*
X629500Y278240D02*
X640500Y278240D01*
X698500Y278240D02*
X709500Y278240D01*
X815500Y278240D02*
X832500Y278240D01*
X889500Y278240D02*
X900500Y278240D01*
X957500Y278240D02*
X968500Y278240D01*
X1075500Y278240D02*
X1092500Y278240D01*
X1148500Y278240D02*
X1159500Y278240D01*
X1217500Y278240D02*
X1228500Y278240D01*
X298500Y277240D02*
X315500Y277240D01*
X370500Y277240D02*
X381500Y277240D01*
X438500Y277240D02*
X449500Y277240D01*
X557500Y277240D02*
X574500Y277240D01*
X629500Y277240D02*
X640500Y277240D01*
X698500Y277240D02*
X709500Y277240D01*
X816500Y277240D02*
X833500Y277240D01*
X889500Y277240D02*
X900500Y277240D01*
X957500Y277240D02*
X968500Y277240D01*
X1076500Y277240D02*
X1093500Y277240D01*
X1148500Y277240D02*
X1159500Y277240D01*
X1217500Y277240D02*
X1228500Y277240D01*
X299500Y276240D02*
X315500Y276240D01*
X370500Y276240D02*
X381500Y276240D01*
X438500Y276240D02*
X449500Y276240D01*
X558500Y276240D02*
X575500Y276240D01*
X629500Y276240D02*
X640500Y276240D01*
X698500Y276240D02*
X709500Y276240D01*
X818500Y276240D02*
X834500Y276240D01*
X889500Y276240D02*
X900500Y276240D01*
X957500Y276240D02*
X968500Y276240D01*
X1077500Y276240D02*
X1093500Y276240D01*
X1148500Y276240D02*
X1159500Y276240D01*
X1217500Y276240D02*
X1228500Y276240D01*
X300500Y275240D02*
X316500Y275240D01*
X370500Y275240D02*
X381500Y275240D01*
X438500Y275240D02*
X449500Y275240D01*
X559500Y275240D02*
X575500Y275240D01*
X629500Y275240D02*
X640500Y275240D01*
X698500Y275240D02*
X709500Y275240D01*
X819500Y275240D02*
X835500Y275240D01*
X889500Y275240D02*
X900500Y275240D01*
X957500Y275240D02*
X968500Y275240D01*
X1078500Y275240D02*
X1094500Y275240D01*
X1148500Y275240D02*
X1159500Y275240D01*
X1217500Y275240D02*
X1228500Y275240D01*
X301500Y274240D02*
X316500Y274240D01*
X370500Y274240D02*
X381500Y274240D01*
X438500Y274240D02*
X449500Y274240D01*
X561500Y274240D02*
X576500Y274240D01*
X629500Y274240D02*
X640500Y274240D01*
X698500Y274240D02*
X709500Y274240D01*
X820500Y274240D02*
X835500Y274240D01*
X889500Y274240D02*
X900500Y274240D01*
X957500Y274240D02*
X968500Y274240D01*
X1079500Y274240D02*
X1095500Y274240D01*
X1148500Y274240D02*
X1159500Y274240D01*
X1217500Y274240D02*
X1228500Y274240D01*
X302500Y273240D02*
X317500Y273240D01*
X370500Y273240D02*
X381500Y273240D01*
X438500Y273240D02*
X449500Y273240D01*
X562500Y273240D02*
X576500Y273240D01*
X629500Y273240D02*
X640500Y273240D01*
X698500Y273240D02*
X709500Y273240D01*
X821500Y273240D02*
X836500Y273240D01*
X889500Y273240D02*
X900500Y273240D01*
X957500Y273240D02*
X968500Y273240D01*
X1081500Y273240D02*
X1095500Y273240D01*
X1148500Y273240D02*
X1159500Y273240D01*
X1217500Y273240D02*
X1228500Y273240D01*
X303500Y272240D02*
X317500Y272240D01*
X370500Y272240D02*
X381500Y272240D01*
X438500Y272240D02*
X449500Y272240D01*
X563500Y272240D02*
X577500Y272240D01*
X629500Y272240D02*
X640500Y272240D01*
X698500Y272240D02*
X709500Y272240D01*
X822500Y272240D02*
X836500Y272240D01*
X889500Y272240D02*
X900500Y272240D01*
X957500Y272240D02*
X968500Y272240D01*
X1082500Y272240D02*
X1095500Y272240D01*
X1148500Y272240D02*
X1159500Y272240D01*
X1217500Y272240D02*
X1228500Y272240D01*
X305500Y271240D02*
X317500Y271240D01*
X370500Y271240D02*
X381500Y271240D01*
X438500Y271240D02*
X449500Y271240D01*
X564500Y271240D02*
X577500Y271240D01*
X629500Y271240D02*
X640500Y271240D01*
X698500Y271240D02*
X709500Y271240D01*
X823500Y271240D02*
X836500Y271240D01*
X889500Y271240D02*
X900500Y271240D01*
X957500Y271240D02*
X968500Y271240D01*
X1083500Y271240D02*
X1096500Y271240D01*
X1148500Y271240D02*
X1159500Y271240D01*
X1217500Y271240D02*
X1228500Y271240D01*
X306500Y270240D02*
X318500Y270240D01*
X370500Y270240D02*
X381500Y270240D01*
X438500Y270240D02*
X449500Y270240D01*
X565500Y270240D02*
X577500Y270240D01*
X629500Y270240D02*
X640500Y270240D01*
X698500Y270240D02*
X709500Y270240D01*
X824500Y270240D02*
X837500Y270240D01*
X889500Y270240D02*
X900500Y270240D01*
X957500Y270240D02*
X968500Y270240D01*
X1084500Y270240D02*
X1096500Y270240D01*
X1148500Y270240D02*
X1159500Y270240D01*
X1217500Y270240D02*
X1228500Y270240D01*
X306500Y269240D02*
X318500Y269240D01*
X370500Y269240D02*
X381500Y269240D01*
X438500Y269240D02*
X449500Y269240D01*
X566500Y269240D02*
X577500Y269240D01*
X629500Y269240D02*
X640500Y269240D01*
X698500Y269240D02*
X709500Y269240D01*
X825500Y269240D02*
X837500Y269240D01*
X889500Y269240D02*
X900500Y269240D01*
X957500Y269240D02*
X968500Y269240D01*
X1085500Y269240D02*
X1096500Y269240D01*
X1148500Y269240D02*
X1159500Y269240D01*
X1217500Y269240D02*
X1228500Y269240D01*
X307500Y268240D02*
X318500Y268240D01*
X370500Y268240D02*
X381500Y268240D01*
X438500Y268240D02*
X449500Y268240D01*
X566500Y268240D02*
X577500Y268240D01*
X629500Y268240D02*
X640500Y268240D01*
X698500Y268240D02*
X709500Y268240D01*
X826500Y268240D02*
X837500Y268240D01*
X889500Y268240D02*
X900500Y268240D01*
X957500Y268240D02*
X968500Y268240D01*
X1085500Y268240D02*
X1096500Y268240D01*
X1148500Y268240D02*
X1159500Y268240D01*
X1217500Y268240D02*
X1228500Y268240D01*
X307500Y267240D02*
X318500Y267240D01*
X370500Y267240D02*
X381500Y267240D01*
X438500Y267240D02*
X449500Y267240D01*
X566500Y267240D02*
X577500Y267240D01*
X629500Y267240D02*
X640500Y267240D01*
X698500Y267240D02*
X709500Y267240D01*
X826500Y267240D02*
X837500Y267240D01*
X889500Y267240D02*
X900500Y267240D01*
X957500Y267240D02*
X968500Y267240D01*
X1085500Y267240D02*
X1096500Y267240D01*
X1148500Y267240D02*
X1159500Y267240D01*
X1217500Y267240D02*
X1228500Y267240D01*
X307500Y266240D02*
X318500Y266240D01*
X370500Y266240D02*
X381500Y266240D01*
X438500Y266240D02*
X449500Y266240D01*
X566500Y266240D02*
X578500Y266240D01*
X629500Y266240D02*
X640500Y266240D01*
X698500Y266240D02*
X709500Y266240D01*
X826500Y266240D02*
X837500Y266240D01*
X889500Y266240D02*
X900500Y266240D01*
X957500Y266240D02*
X968500Y266240D01*
X1085500Y266240D02*
X1096500Y266240D01*
X1148500Y266240D02*
X1159500Y266240D01*
X1217500Y266240D02*
X1228500Y266240D01*
X307500Y265240D02*
X318500Y265240D01*
X370500Y265240D02*
X381500Y265240D01*
X438500Y265240D02*
X449500Y265240D01*
X566500Y265240D02*
X578500Y265240D01*
X629500Y265240D02*
X640500Y265240D01*
X698500Y265240D02*
X709500Y265240D01*
X826500Y265240D02*
X837500Y265240D01*
X889500Y265240D02*
X900500Y265240D01*
X957500Y265240D02*
X968500Y265240D01*
X1085500Y265240D02*
X1096500Y265240D01*
X1148500Y265240D02*
X1159500Y265240D01*
X1217500Y265240D02*
X1228500Y265240D01*
X307500Y264240D02*
X318500Y264240D01*
X370500Y264240D02*
X381500Y264240D01*
X438500Y264240D02*
X449500Y264240D01*
X566500Y264240D02*
X578500Y264240D01*
X629500Y264240D02*
X640500Y264240D01*
X698500Y264240D02*
X709500Y264240D01*
X826500Y264240D02*
X837500Y264240D01*
X889500Y264240D02*
X900500Y264240D01*
X957500Y264240D02*
X968500Y264240D01*
X1085500Y264240D02*
X1096500Y264240D01*
X1148500Y264240D02*
X1159500Y264240D01*
X1217500Y264240D02*
X1228500Y264240D01*
X307500Y263240D02*
X318500Y263240D01*
X370500Y263240D02*
X381500Y263240D01*
X438500Y263240D02*
X449500Y263240D01*
X566500Y263240D02*
X578500Y263240D01*
X629500Y263240D02*
X640500Y263240D01*
X698500Y263240D02*
X709500Y263240D01*
X826500Y263240D02*
X837500Y263240D01*
X889500Y263240D02*
X900500Y263240D01*
X957500Y263240D02*
X968500Y263240D01*
X1085500Y263240D02*
X1096500Y263240D01*
X1148500Y263240D02*
X1159500Y263240D01*
X1217500Y263240D02*
X1228500Y263240D01*
X307500Y262240D02*
X318500Y262240D01*
X370500Y262240D02*
X381500Y262240D01*
X438500Y262240D02*
X449500Y262240D01*
X566500Y262240D02*
X578500Y262240D01*
X629500Y262240D02*
X640500Y262240D01*
X698500Y262240D02*
X709500Y262240D01*
X826500Y262240D02*
X837500Y262240D01*
X889500Y262240D02*
X900500Y262240D01*
X957500Y262240D02*
X968500Y262240D01*
X1085500Y262240D02*
X1096500Y262240D01*
X1148500Y262240D02*
X1159500Y262240D01*
X1217500Y262240D02*
X1228500Y262240D01*
X307500Y261240D02*
X318500Y261240D01*
X370500Y261240D02*
X381500Y261240D01*
X438500Y261240D02*
X449500Y261240D01*
X566500Y261240D02*
X578500Y261240D01*
X629500Y261240D02*
X640500Y261240D01*
X698500Y261240D02*
X709500Y261240D01*
X826500Y261240D02*
X837500Y261240D01*
X889500Y261240D02*
X900500Y261240D01*
X957500Y261240D02*
X968500Y261240D01*
X1085500Y261240D02*
X1096500Y261240D01*
X1148500Y261240D02*
X1159500Y261240D01*
X1217500Y261240D02*
X1228500Y261240D01*
X307500Y260240D02*
X318500Y260240D01*
X370500Y260240D02*
X381500Y260240D01*
X438500Y260240D02*
X449500Y260240D01*
X566500Y260240D02*
X578500Y260240D01*
X629500Y260240D02*
X640500Y260240D01*
X698500Y260240D02*
X709500Y260240D01*
X826500Y260240D02*
X837500Y260240D01*
X889500Y260240D02*
X900500Y260240D01*
X957500Y260240D02*
X968500Y260240D01*
X1085500Y260240D02*
X1096500Y260240D01*
X1148500Y260240D02*
X1159500Y260240D01*
X1217500Y260240D02*
X1228500Y260240D01*
X307500Y259240D02*
X318500Y259240D01*
X370500Y259240D02*
X381500Y259240D01*
X438500Y259240D02*
X449500Y259240D01*
X566500Y259240D02*
X578500Y259240D01*
X629500Y259240D02*
X640500Y259240D01*
X698500Y259240D02*
X709500Y259240D01*
X826500Y259240D02*
X837500Y259240D01*
X889500Y259240D02*
X900500Y259240D01*
X957500Y259240D02*
X968500Y259240D01*
X1085500Y259240D02*
X1096500Y259240D01*
X1148500Y259240D02*
X1159500Y259240D01*
X1217500Y259240D02*
X1228500Y259240D01*
X307500Y258240D02*
X318500Y258240D01*
X370500Y258240D02*
X381500Y258240D01*
X438500Y258240D02*
X449500Y258240D01*
X566500Y258240D02*
X578500Y258240D01*
X629500Y258240D02*
X640500Y258240D01*
X698500Y258240D02*
X709500Y258240D01*
X826500Y258240D02*
X837500Y258240D01*
X889500Y258240D02*
X900500Y258240D01*
X957500Y258240D02*
X968500Y258240D01*
X1085500Y258240D02*
X1096500Y258240D01*
X1148500Y258240D02*
X1159500Y258240D01*
X1217500Y258240D02*
X1228500Y258240D01*
X307500Y257240D02*
X318500Y257240D01*
X370500Y257240D02*
X381500Y257240D01*
X438500Y257240D02*
X449500Y257240D01*
X566500Y257240D02*
X578500Y257240D01*
X629500Y257240D02*
X640500Y257240D01*
X698500Y257240D02*
X709500Y257240D01*
X826500Y257240D02*
X837500Y257240D01*
X889500Y257240D02*
X900500Y257240D01*
X957500Y257240D02*
X968500Y257240D01*
X1085500Y257240D02*
X1096500Y257240D01*
X1148500Y257240D02*
X1159500Y257240D01*
X1217500Y257240D02*
X1228500Y257240D01*
X307500Y256240D02*
X318500Y256240D01*
X370500Y256240D02*
X381500Y256240D01*
X438500Y256240D02*
X449500Y256240D01*
X566500Y256240D02*
X578500Y256240D01*
X629500Y256240D02*
X640500Y256240D01*
X698500Y256240D02*
X709500Y256240D01*
X826500Y256240D02*
X837500Y256240D01*
X889500Y256240D02*
X900500Y256240D01*
X957500Y256240D02*
X968500Y256240D01*
X1085500Y256240D02*
X1096500Y256240D01*
X1148500Y256240D02*
X1159500Y256240D01*
X1217500Y256240D02*
X1228500Y256240D01*
X307500Y255240D02*
X318500Y255240D01*
X370500Y255240D02*
X381500Y255240D01*
X438500Y255240D02*
X449500Y255240D01*
X566500Y255240D02*
X578500Y255240D01*
X629500Y255240D02*
X640500Y255240D01*
X698500Y255240D02*
X709500Y255240D01*
X826500Y255240D02*
X837500Y255240D01*
X889500Y255240D02*
X900500Y255240D01*
X957500Y255240D02*
X968500Y255240D01*
X1085500Y255240D02*
X1096500Y255240D01*
X1148500Y255240D02*
X1159500Y255240D01*
X1217500Y255240D02*
X1228500Y255240D01*
X307500Y254240D02*
X318500Y254240D01*
X370500Y254240D02*
X381500Y254240D01*
X438500Y254240D02*
X449500Y254240D01*
X566500Y254240D02*
X578500Y254240D01*
X629500Y254240D02*
X640500Y254240D01*
X698500Y254240D02*
X709500Y254240D01*
X826500Y254240D02*
X837500Y254240D01*
X889500Y254240D02*
X900500Y254240D01*
X957500Y254240D02*
X968500Y254240D01*
X1085500Y254240D02*
X1096500Y254240D01*
X1148500Y254240D02*
X1159500Y254240D01*
X1217500Y254240D02*
X1228500Y254240D01*
X307500Y253240D02*
X318500Y253240D01*
X370500Y253240D02*
X381500Y253240D01*
X438500Y253240D02*
X449500Y253240D01*
X566500Y253240D02*
X578500Y253240D01*
X629500Y253240D02*
X640500Y253240D01*
X698500Y253240D02*
X709500Y253240D01*
X826500Y253240D02*
X837500Y253240D01*
X889500Y253240D02*
X900500Y253240D01*
X957500Y253240D02*
X968500Y253240D01*
X1085500Y253240D02*
X1096500Y253240D01*
X1148500Y253240D02*
X1159500Y253240D01*
X1217500Y253240D02*
X1228500Y253240D01*
X307500Y252240D02*
X318500Y252240D01*
X370500Y252240D02*
X381500Y252240D01*
X438500Y252240D02*
X449500Y252240D01*
X566500Y252240D02*
X578500Y252240D01*
X629500Y252240D02*
X640500Y252240D01*
X698500Y252240D02*
X709500Y252240D01*
X826500Y252240D02*
X837500Y252240D01*
X889500Y252240D02*
X900500Y252240D01*
X957500Y252240D02*
X968500Y252240D01*
X1085500Y252240D02*
X1096500Y252240D01*
X1148500Y252240D02*
X1159500Y252240D01*
X1217500Y252240D02*
X1228500Y252240D01*
X307500Y251240D02*
X318500Y251240D01*
X370500Y251240D02*
X381500Y251240D01*
X438500Y251240D02*
X449500Y251240D01*
X566500Y251240D02*
X577500Y251240D01*
X629500Y251240D02*
X640500Y251240D01*
X698500Y251240D02*
X709500Y251240D01*
X826500Y251240D02*
X837500Y251240D01*
X889500Y251240D02*
X900500Y251240D01*
X957500Y251240D02*
X968500Y251240D01*
X1085500Y251240D02*
X1096500Y251240D01*
X1148500Y251240D02*
X1159500Y251240D01*
X1217500Y251240D02*
X1228500Y251240D01*
X307500Y250240D02*
X318500Y250240D01*
X370500Y250240D02*
X381500Y250240D01*
X438500Y250240D02*
X449500Y250240D01*
X566500Y250240D02*
X577500Y250240D01*
X629500Y250240D02*
X640500Y250240D01*
X698500Y250240D02*
X709500Y250240D01*
X826500Y250240D02*
X837500Y250240D01*
X889500Y250240D02*
X900500Y250240D01*
X957500Y250240D02*
X968500Y250240D01*
X1085500Y250240D02*
X1096500Y250240D01*
X1148500Y250240D02*
X1159500Y250240D01*
X1217500Y250240D02*
X1228500Y250240D01*
X306500Y249240D02*
X318500Y249240D01*
X370500Y249240D02*
X381500Y249240D01*
X438500Y249240D02*
X449500Y249240D01*
X566500Y249240D02*
X577500Y249240D01*
X629500Y249240D02*
X640500Y249240D01*
X698500Y249240D02*
X709500Y249240D01*
X825500Y249240D02*
X837500Y249240D01*
X889500Y249240D02*
X900500Y249240D01*
X957500Y249240D02*
X968500Y249240D01*
X1085500Y249240D02*
X1096500Y249240D01*
X1148500Y249240D02*
X1159500Y249240D01*
X1217500Y249240D02*
X1228500Y249240D01*
X306500Y248240D02*
X318500Y248240D01*
X370500Y248240D02*
X381500Y248240D01*
X438500Y248240D02*
X449500Y248240D01*
X565500Y248240D02*
X577500Y248240D01*
X629500Y248240D02*
X640500Y248240D01*
X698500Y248240D02*
X709500Y248240D01*
X824500Y248240D02*
X837500Y248240D01*
X889500Y248240D02*
X900500Y248240D01*
X957500Y248240D02*
X968500Y248240D01*
X1084500Y248240D02*
X1096500Y248240D01*
X1148500Y248240D02*
X1159500Y248240D01*
X1217500Y248240D02*
X1228500Y248240D01*
X305500Y247240D02*
X317500Y247240D01*
X370500Y247240D02*
X381500Y247240D01*
X438500Y247240D02*
X449500Y247240D01*
X564500Y247240D02*
X577500Y247240D01*
X629500Y247240D02*
X640500Y247240D01*
X698500Y247240D02*
X709500Y247240D01*
X823500Y247240D02*
X836500Y247240D01*
X889500Y247240D02*
X900500Y247240D01*
X957500Y247240D02*
X968500Y247240D01*
X1083500Y247240D02*
X1096500Y247240D01*
X1148500Y247240D02*
X1159500Y247240D01*
X1217500Y247240D02*
X1228500Y247240D01*
X303500Y246240D02*
X317500Y246240D01*
X370500Y246240D02*
X381500Y246240D01*
X438500Y246240D02*
X449500Y246240D01*
X563500Y246240D02*
X577500Y246240D01*
X629500Y246240D02*
X640500Y246240D01*
X698500Y246240D02*
X709500Y246240D01*
X822500Y246240D02*
X836500Y246240D01*
X889500Y246240D02*
X900500Y246240D01*
X957500Y246240D02*
X968500Y246240D01*
X1082500Y246240D02*
X1095500Y246240D01*
X1148500Y246240D02*
X1159500Y246240D01*
X1217500Y246240D02*
X1228500Y246240D01*
X302500Y245240D02*
X317500Y245240D01*
X370500Y245240D02*
X381500Y245240D01*
X438500Y245240D02*
X449500Y245240D01*
X562500Y245240D02*
X576500Y245240D01*
X629500Y245240D02*
X640500Y245240D01*
X698500Y245240D02*
X709500Y245240D01*
X821500Y245240D02*
X836500Y245240D01*
X889500Y245240D02*
X900500Y245240D01*
X957500Y245240D02*
X968500Y245240D01*
X1080500Y245240D02*
X1095500Y245240D01*
X1148500Y245240D02*
X1159500Y245240D01*
X1217500Y245240D02*
X1228500Y245240D01*
X301500Y244240D02*
X316500Y244240D01*
X370500Y244240D02*
X381500Y244240D01*
X438500Y244240D02*
X449500Y244240D01*
X560500Y244240D02*
X576500Y244240D01*
X629500Y244240D02*
X640500Y244240D01*
X698500Y244240D02*
X709500Y244240D01*
X820500Y244240D02*
X835500Y244240D01*
X889500Y244240D02*
X900500Y244240D01*
X957500Y244240D02*
X968500Y244240D01*
X1079500Y244240D02*
X1095500Y244240D01*
X1148500Y244240D02*
X1159500Y244240D01*
X1217500Y244240D02*
X1228500Y244240D01*
X300500Y243240D02*
X316500Y243240D01*
X370500Y243240D02*
X381500Y243240D01*
X438500Y243240D02*
X449500Y243240D01*
X559500Y243240D02*
X575500Y243240D01*
X629500Y243240D02*
X640500Y243240D01*
X698500Y243240D02*
X709500Y243240D01*
X819500Y243240D02*
X835500Y243240D01*
X889500Y243240D02*
X900500Y243240D01*
X957500Y243240D02*
X968500Y243240D01*
X1078500Y243240D02*
X1094500Y243240D01*
X1148500Y243240D02*
X1159500Y243240D01*
X1217500Y243240D02*
X1228500Y243240D01*
X299500Y242240D02*
X315500Y242240D01*
X370500Y242240D02*
X381500Y242240D01*
X438500Y242240D02*
X449500Y242240D01*
X558500Y242240D02*
X575500Y242240D01*
X629500Y242240D02*
X640500Y242240D01*
X698500Y242240D02*
X709500Y242240D01*
X818500Y242240D02*
X834500Y242240D01*
X889500Y242240D02*
X900500Y242240D01*
X957500Y242240D02*
X968500Y242240D01*
X1077500Y242240D02*
X1093500Y242240D01*
X1148500Y242240D02*
X1159500Y242240D01*
X1217500Y242240D02*
X1228500Y242240D01*
X298500Y241240D02*
X315500Y241240D01*
X370500Y241240D02*
X381500Y241240D01*
X438500Y241240D02*
X449500Y241240D01*
X557500Y241240D02*
X574500Y241240D01*
X629500Y241240D02*
X640500Y241240D01*
X698500Y241240D02*
X709500Y241240D01*
X816500Y241240D02*
X833500Y241240D01*
X889500Y241240D02*
X900500Y241240D01*
X957500Y241240D02*
X968500Y241240D01*
X1076500Y241240D02*
X1093500Y241240D01*
X1148500Y241240D02*
X1159500Y241240D01*
X1217500Y241240D02*
X1228500Y241240D01*
X296500Y240240D02*
X314500Y240240D01*
X370500Y240240D02*
X381500Y240240D01*
X438500Y240240D02*
X449500Y240240D01*
X556500Y240240D02*
X573500Y240240D01*
X629500Y240240D02*
X640500Y240240D01*
X698500Y240240D02*
X709500Y240240D01*
X815500Y240240D02*
X832500Y240240D01*
X889500Y240240D02*
X900500Y240240D01*
X957500Y240240D02*
X968500Y240240D01*
X1075500Y240240D02*
X1092500Y240240D01*
X1148500Y240240D02*
X1159500Y240240D01*
X1217500Y240240D02*
X1228500Y240240D01*
X295500Y239240D02*
X313500Y239240D01*
X370500Y239240D02*
X381500Y239240D01*
X438500Y239240D02*
X449500Y239240D01*
X555500Y239240D02*
X572500Y239240D01*
X629500Y239240D02*
X640500Y239240D01*
X698500Y239240D02*
X709500Y239240D01*
X814500Y239240D02*
X831500Y239240D01*
X889500Y239240D02*
X900500Y239240D01*
X957500Y239240D02*
X968500Y239240D01*
X1073500Y239240D02*
X1091500Y239240D01*
X1148500Y239240D02*
X1159500Y239240D01*
X1217500Y239240D02*
X1228500Y239240D01*
X294500Y238240D02*
X312500Y238240D01*
X370500Y238240D02*
X381500Y238240D01*
X438500Y238240D02*
X449500Y238240D01*
X553500Y238240D02*
X571500Y238240D01*
X629500Y238240D02*
X640500Y238240D01*
X698500Y238240D02*
X709500Y238240D01*
X813500Y238240D02*
X830500Y238240D01*
X889500Y238240D02*
X900500Y238240D01*
X957500Y238240D02*
X968500Y238240D01*
X1072500Y238240D02*
X1090500Y238240D01*
X1148500Y238240D02*
X1159500Y238240D01*
X1217500Y238240D02*
X1228500Y238240D01*
X264500Y237240D02*
X310500Y237240D01*
X357500Y237240D02*
X394500Y237240D01*
X438500Y237240D02*
X449500Y237240D01*
X524500Y237240D02*
X570500Y237240D01*
X616500Y237240D02*
X653500Y237240D01*
X698500Y237240D02*
X709500Y237240D01*
X783500Y237240D02*
X829500Y237240D01*
X876500Y237240D02*
X913500Y237240D01*
X957500Y237240D02*
X968500Y237240D01*
X1043500Y237240D02*
X1089500Y237240D01*
X1135500Y237240D02*
X1172500Y237240D01*
X1217500Y237240D02*
X1228500Y237240D01*
X262500Y236240D02*
X309500Y236240D01*
X355500Y236240D02*
X396500Y236240D01*
X438500Y236240D02*
X449500Y236240D01*
X522500Y236240D02*
X569500Y236240D01*
X614500Y236240D02*
X655500Y236240D01*
X698500Y236240D02*
X709500Y236240D01*
X781500Y236240D02*
X828500Y236240D01*
X874500Y236240D02*
X915500Y236240D01*
X957500Y236240D02*
X968500Y236240D01*
X1041500Y236240D02*
X1088500Y236240D01*
X1133500Y236240D02*
X1174500Y236240D01*
X1217500Y236240D02*
X1228500Y236240D01*
X261500Y235240D02*
X308500Y235240D01*
X354500Y235240D02*
X397500Y235240D01*
X438500Y235240D02*
X449500Y235240D01*
X521500Y235240D02*
X568500Y235240D01*
X613500Y235240D02*
X657500Y235240D01*
X698500Y235240D02*
X709500Y235240D01*
X780500Y235240D02*
X827500Y235240D01*
X872500Y235240D02*
X916500Y235240D01*
X957500Y235240D02*
X968500Y235240D01*
X1039500Y235240D02*
X1086500Y235240D01*
X1132500Y235240D02*
X1175500Y235240D01*
X1217500Y235240D02*
X1228500Y235240D01*
X260500Y234240D02*
X307500Y234240D01*
X353500Y234240D02*
X398500Y234240D01*
X438500Y234240D02*
X449500Y234240D01*
X520500Y234240D02*
X566500Y234240D01*
X612500Y234240D02*
X657500Y234240D01*
X698500Y234240D02*
X709500Y234240D01*
X779500Y234240D02*
X826500Y234240D01*
X872500Y234240D02*
X917500Y234240D01*
X957500Y234240D02*
X968500Y234240D01*
X1039500Y234240D02*
X1085500Y234240D01*
X1131500Y234240D02*
X1176500Y234240D01*
X1217500Y234240D02*
X1228500Y234240D01*
X260500Y233240D02*
X306500Y233240D01*
X352500Y233240D02*
X398500Y233240D01*
X438500Y233240D02*
X449500Y233240D01*
X519500Y233240D02*
X565500Y233240D01*
X612500Y233240D02*
X658500Y233240D01*
X698500Y233240D02*
X709500Y233240D01*
X779500Y233240D02*
X825500Y233240D01*
X871500Y233240D02*
X917500Y233240D01*
X957500Y233240D02*
X968500Y233240D01*
X1038500Y233240D02*
X1084500Y233240D01*
X1131500Y233240D02*
X1177500Y233240D01*
X1217500Y233240D02*
X1228500Y233240D01*
X260500Y232240D02*
X305500Y232240D01*
X352500Y232240D02*
X399500Y232240D01*
X438500Y232240D02*
X449500Y232240D01*
X519500Y232240D02*
X564500Y232240D01*
X611500Y232240D02*
X658500Y232240D01*
X698500Y232240D02*
X709500Y232240D01*
X778500Y232240D02*
X823500Y232240D01*
X871500Y232240D02*
X917500Y232240D01*
X957500Y232240D02*
X968500Y232240D01*
X1038500Y232240D02*
X1083500Y232240D01*
X1130500Y232240D02*
X1177500Y232240D01*
X1217500Y232240D02*
X1228500Y232240D01*
X260500Y231240D02*
X304500Y231240D01*
X352500Y231240D02*
X399500Y231240D01*
X438500Y231240D02*
X449500Y231240D01*
X519500Y231240D02*
X563500Y231240D01*
X611500Y231240D02*
X658500Y231240D01*
X698500Y231240D02*
X709500Y231240D01*
X778500Y231240D02*
X822500Y231240D01*
X871500Y231240D02*
X918500Y231240D01*
X957500Y231240D02*
X968500Y231240D01*
X1038500Y231240D02*
X1082500Y231240D01*
X1130500Y231240D02*
X1177500Y231240D01*
X1217500Y231240D02*
X1228500Y231240D01*
X260500Y230240D02*
X302500Y230240D01*
X352500Y230240D02*
X399500Y230240D01*
X438500Y230240D02*
X449500Y230240D01*
X519500Y230240D02*
X562500Y230240D01*
X612500Y230240D02*
X658500Y230240D01*
X698500Y230240D02*
X709500Y230240D01*
X778500Y230240D02*
X821500Y230240D01*
X871500Y230240D02*
X917500Y230240D01*
X957500Y230240D02*
X968500Y230240D01*
X1038500Y230240D02*
X1081500Y230240D01*
X1130500Y230240D02*
X1177500Y230240D01*
X1217500Y230240D02*
X1228500Y230240D01*
X260500Y229240D02*
X301500Y229240D01*
X352500Y229240D02*
X398500Y229240D01*
X438500Y229240D02*
X449500Y229240D01*
X519500Y229240D02*
X561500Y229240D01*
X612500Y229240D02*
X658500Y229240D01*
X698500Y229240D02*
X709500Y229240D01*
X779500Y229240D02*
X820500Y229240D01*
X871500Y229240D02*
X917500Y229240D01*
X957500Y229240D02*
X968500Y229240D01*
X1038500Y229240D02*
X1079500Y229240D01*
X1131500Y229240D02*
X1177500Y229240D01*
X1217500Y229240D02*
X1228500Y229240D01*
X261500Y228240D02*
X300500Y228240D01*
X353500Y228240D02*
X398500Y228240D01*
X438500Y228240D02*
X449500Y228240D01*
X520500Y228240D02*
X559500Y228240D01*
X612500Y228240D02*
X657500Y228240D01*
X698500Y228240D02*
X709500Y228240D01*
X779500Y228240D02*
X819500Y228240D01*
X872500Y228240D02*
X917500Y228240D01*
X957500Y228240D02*
X968500Y228240D01*
X1039500Y228240D02*
X1078500Y228240D01*
X1131500Y228240D02*
X1176500Y228240D01*
X1217500Y228240D02*
X1228500Y228240D01*
X286500Y227240D02*
X298500Y227240D01*
X354500Y227240D02*
X397500Y227240D01*
X438500Y227240D02*
X449500Y227240D01*
X521500Y227240D02*
X557500Y227240D01*
X613500Y227240D02*
X656500Y227240D01*
X698500Y227240D02*
X709500Y227240D01*
X780500Y227240D02*
X817500Y227240D01*
X873500Y227240D02*
X916500Y227240D01*
X957500Y227240D02*
X968500Y227240D01*
X1040500Y227240D02*
X1076500Y227240D01*
X1132500Y227240D02*
X1175500Y227240D01*
X1217500Y227240D02*
X1228500Y227240D01*
X293500Y226240D02*
X296500Y226240D01*
X355500Y226240D02*
X396500Y226240D01*
X438500Y226240D02*
X449500Y226240D01*
X522500Y226240D02*
X555500Y226240D01*
X614500Y226240D02*
X655500Y226240D01*
X698500Y226240D02*
X709500Y226240D01*
X781500Y226240D02*
X814500Y226240D01*
X874500Y226240D02*
X914500Y226240D01*
X957500Y226240D02*
X968500Y226240D01*
X1041500Y226240D02*
X1074500Y226240D01*
X1133500Y226240D02*
X1174500Y226240D01*
X1217500Y226240D02*
X1228500Y226240D01*
X438500Y225240D02*
X449500Y225240D01*
X698500Y225240D02*
X709500Y225240D01*
X957500Y225240D02*
X968500Y225240D01*
X1217500Y225240D02*
X1228500Y225240D01*
X438500Y224240D02*
X449500Y224240D01*
X698500Y224240D02*
X709500Y224240D01*
X957500Y224240D02*
X968500Y224240D01*
X1217500Y224240D02*
X1228500Y224240D01*
X438500Y223240D02*
X449500Y223240D01*
X698500Y223240D02*
X709500Y223240D01*
X957500Y223240D02*
X968500Y223240D01*
X1217500Y223240D02*
X1228500Y223240D01*
X438500Y222240D02*
X449500Y222240D01*
X698500Y222240D02*
X709500Y222240D01*
X957500Y222240D02*
X968500Y222240D01*
X1217500Y222240D02*
X1228500Y222240D01*
X438500Y221240D02*
X449500Y221240D01*
X477500Y221240D02*
X482500Y221240D01*
X698500Y221240D02*
X709500Y221240D01*
X737500Y221240D02*
X742500Y221240D01*
X957500Y221240D02*
X968500Y221240D01*
X996500Y221240D02*
X1001500Y221240D01*
X1217500Y221240D02*
X1228500Y221240D01*
X1255500Y221240D02*
X1259500Y221240D01*
X438500Y220240D02*
X449500Y220240D01*
X476500Y220240D02*
X483500Y220240D01*
X698500Y220240D02*
X709500Y220240D01*
X735500Y220240D02*
X743500Y220240D01*
X957500Y220240D02*
X968500Y220240D01*
X995500Y220240D02*
X1002500Y220240D01*
X1217500Y220240D02*
X1228500Y220240D01*
X1254500Y220240D02*
X1256500Y220240D01*
X438500Y219240D02*
X449500Y219240D01*
X475500Y219240D02*
X484500Y219240D01*
X698500Y219240D02*
X709500Y219240D01*
X735500Y219240D02*
X744500Y219240D01*
X957500Y219240D02*
X968500Y219240D01*
X994500Y219240D02*
X1003500Y219240D01*
X1217500Y219240D02*
X1228500Y219240D01*
X1254500Y219240D02*
X1254500Y219240D01*
X438500Y218240D02*
X449500Y218240D01*
X475500Y218240D02*
X485500Y218240D01*
X698500Y218240D02*
X709500Y218240D01*
X734500Y218240D02*
X744500Y218240D01*
X957500Y218240D02*
X968500Y218240D01*
X994500Y218240D02*
X1004500Y218240D01*
X1217500Y218240D02*
X1228500Y218240D01*
X439500Y217240D02*
X449500Y217240D01*
X474500Y217240D02*
X485500Y217240D01*
X698500Y217240D02*
X709500Y217240D01*
X734500Y217240D02*
X744500Y217240D01*
X957500Y217240D02*
X968500Y217240D01*
X993500Y217240D02*
X1004500Y217240D01*
X1217500Y217240D02*
X1228500Y217240D01*
X439500Y216240D02*
X450500Y216240D01*
X474500Y216240D02*
X485500Y216240D01*
X698500Y216240D02*
X709500Y216240D01*
X733500Y216240D02*
X745500Y216240D01*
X957500Y216240D02*
X969500Y216240D01*
X993500Y216240D02*
X1004500Y216240D01*
X1217500Y216240D02*
X1228500Y216240D01*
X439500Y215240D02*
X450500Y215240D01*
X474500Y215240D02*
X485500Y215240D01*
X698500Y215240D02*
X710500Y215240D01*
X733500Y215240D02*
X744500Y215240D01*
X958500Y215240D02*
X969500Y215240D01*
X992500Y215240D02*
X1004500Y215240D01*
X1217500Y215240D02*
X1228500Y215240D01*
X439500Y214240D02*
X451500Y214240D01*
X473500Y214240D02*
X485500Y214240D01*
X698500Y214240D02*
X710500Y214240D01*
X732500Y214240D02*
X744500Y214240D01*
X958500Y214240D02*
X970500Y214240D01*
X992500Y214240D02*
X1004500Y214240D01*
X1217500Y214240D02*
X1229500Y214240D01*
X439500Y213240D02*
X452500Y213240D01*
X472500Y213240D02*
X485500Y213240D01*
X699500Y213240D02*
X712500Y213240D01*
X731500Y213240D02*
X744500Y213240D01*
X958500Y213240D02*
X971500Y213240D01*
X991500Y213240D02*
X1004500Y213240D01*
X1217500Y213240D02*
X1230500Y213240D01*
X439500Y212240D02*
X454500Y212240D01*
X470500Y212240D02*
X485500Y212240D01*
X699500Y212240D02*
X713500Y212240D01*
X729500Y212240D02*
X744500Y212240D01*
X958500Y212240D02*
X973500Y212240D01*
X989500Y212240D02*
X1003500Y212240D01*
X1218500Y212240D02*
X1232500Y212240D01*
X440500Y211240D02*
X484500Y211240D01*
X699500Y211240D02*
X744500Y211240D01*
X959500Y211240D02*
X1003500Y211240D01*
X1218500Y211240D02*
X1239500Y211240D01*
X440500Y210240D02*
X484500Y210240D01*
X700500Y210240D02*
X743500Y210240D01*
X959500Y210240D02*
X1003500Y210240D01*
X1218500Y210240D02*
X1238500Y210240D01*
X441500Y209240D02*
X483500Y209240D01*
X700500Y209240D02*
X743500Y209240D01*
X960500Y209240D02*
X1002500Y209240D01*
X1219500Y209240D02*
X1236500Y209240D01*
X441500Y208240D02*
X483500Y208240D01*
X701500Y208240D02*
X742500Y208240D01*
X960500Y208240D02*
X1001500Y208240D01*
X1219500Y208240D02*
X1235500Y208240D01*
X442500Y207240D02*
X482500Y207240D01*
X701500Y207240D02*
X741500Y207240D01*
X961500Y207240D02*
X1001500Y207240D01*
X1220500Y207240D02*
X1234500Y207240D01*
X443500Y206240D02*
X481500Y206240D01*
X702500Y206240D02*
X740500Y206240D01*
X962500Y206240D02*
X1000500Y206240D01*
X1221500Y206240D02*
X1232500Y206240D01*
X444500Y205240D02*
X480500Y205240D01*
X703500Y205240D02*
X739500Y205240D01*
X962500Y205240D02*
X999500Y205240D01*
X1222500Y205240D02*
X1231500Y205240D01*
X445500Y204240D02*
X479500Y204240D01*
X704500Y204240D02*
X738500Y204240D01*
X964500Y204240D02*
X998500Y204240D01*
X1223500Y204240D02*
X1230500Y204240D01*
X446500Y203240D02*
X477500Y203240D01*
X705500Y203240D02*
X737500Y203240D01*
X965500Y203240D02*
X996500Y203240D01*
X1224500Y203240D02*
X1229500Y203240D01*
X448500Y202240D02*
X476500Y202240D01*
X707500Y202240D02*
X735500Y202240D01*
X967500Y202240D02*
X995500Y202240D01*
X1226500Y202240D02*
X1228500Y202240D01*
X450500Y201240D02*
X474500Y201240D01*
X709500Y201240D02*
X733500Y201240D01*
X968500Y201240D02*
X993500Y201240D01*
X453500Y200240D02*
X470500Y200240D01*
X713500Y200240D02*
X730500Y200240D01*
X972500Y200240D02*
X989500Y200240D01*
D02*
G04 End of Silk0*
M02*