; NON-PLATED HOLES START AT T1
; THROUGH (PLATED) HOLES START AT T100
M48
INCH
T100C0.045000
T101C0.035000
T102C0.041361
T103C0.030000
T104C0.088356
T105C0.035433
T106C0.037500
T107C0.015748
T108C0.040000
T109C0.031496
T110C0.041333
%
T100
X010385Y033440
X014873Y033440
X005326Y027928
X000838Y023204
X010385Y037180
X010385Y025959
X004086Y027928
X014873Y029699
X004086Y036983
X005326Y023203
X011625Y037180
X014873Y025959
X011625Y025959
X011625Y033440
X014873Y037180
X005326Y036983
X004086Y023203
X015070Y022022
X000838Y027928
X010385Y029700
X010582Y022022
X011822Y022022
X005326Y032455
X000838Y032456
X011625Y029700
X000838Y036983
X004086Y032455
T101
X014960Y013164
X006598Y006180
X008543Y000585
X006401Y004306
X015110Y005880
X014960Y012291
X009598Y007180
X010779Y006818
X010779Y009818
X003495Y005966
X005267Y004896
X000736Y012774
X006598Y007180
X002922Y015213
X009598Y006180
X003378Y020582
X012730Y018841
X006492Y037215
X004480Y007455
X014458Y019752
X004480Y004455
X008543Y003585
X012110Y005880
X003495Y004699
X006378Y020582
X009598Y008180
X009514Y036243
X014677Y004896
X006598Y008180
X011449Y014004
X009730Y018841
X014097Y017498
X000689Y014075
X011458Y019752
X011449Y017004
X006598Y010180
X009598Y011180
X006514Y036243
X009598Y010180
X010865Y005731
X000495Y005966
X011677Y004896
X006598Y011180
X001453Y017951
X011960Y012291
X013097Y017498
X001736Y012774
X013354Y042041
X012354Y042041
X015097Y017498
X001453Y014951
X007417Y000540
X012213Y016184
X011960Y013164
X015213Y016184
X010865Y002731
X009598Y005290
X009492Y037215
X006598Y012180
X006598Y009180
X002922Y018213
X000495Y004699
X009401Y004306
X009598Y012180
X009598Y009180
X003689Y014075
X007417Y003540
X006598Y005290
X005267Y007896
T102
X009236Y021629
X009236Y028715
T103
X000615Y034726
X000570Y039235
X003240Y030245
X008277Y009609
X009304Y027053
X003495Y009773
X008277Y007609
X014271Y040450
X004676Y012545
X009401Y002534
X001240Y030245
X001921Y003518
X010779Y013361
X002570Y039235
X006448Y002620
X010779Y011361
X010304Y027053
X000950Y018991
X015221Y000762
X006264Y027205
X000739Y008014
X012157Y002928
X000739Y002731
X003070Y002534
X015110Y003912
X015110Y007849
X002739Y006950
X005070Y002534
X000739Y010014
X009401Y000534
X011960Y009196
X013110Y003912
X004676Y010545
X014157Y002928
X006448Y000620
X015221Y002762
X000950Y020991
X003495Y011773
X000739Y000731
X012271Y040450
X011960Y011196
X003921Y003518
X002615Y034726
X012519Y006865
X015110Y009849
X007264Y027205
X014519Y006865
X000739Y006950
T104
X006294Y024581
X010177Y024581
X010177Y031668
X006294Y031668
T105
X006428Y034766
X008582Y039345
X000566Y018248
X011582Y039345
X003428Y034766
X006385Y039214
X000899Y025590
X000566Y015248
X003385Y039214
X003899Y025590
T106
X008810Y014246
X005610Y013493
X008810Y016168
X005610Y015415
X012895Y014701
X006362Y017233
X006362Y019155
X014817Y014701
T107
X008837Y011400
X009592Y013088
T108
X007163Y040897
X008163Y041897
X008163Y040897
X012439Y001156
X007163Y041897
X006163Y040897
X002117Y009732
X013535Y008551
X006163Y041897
X013535Y010691
X011369Y001156
X009163Y040897
X009163Y041897
X013509Y001156
X002117Y010802
X004163Y040897
X003581Y001156
X004163Y041897
X004651Y001156
X002117Y008662
X003163Y040897
X003163Y041897
X005163Y041897
X002511Y001156
X002163Y041897
X002163Y040897
X013535Y009621
X005163Y040897
T109
X004415Y019244
T110
X008236Y028715
X007236Y021629
X008236Y021628
X007236Y028715
T00
M30
