; NON-PLATED HOLES START AT T1
; THROUGH (PLATED) HOLES START AT T100
M48
INCH
T100C0.035000
T101C0.037500
T102C0.035433
T103C0.030000
T104C0.045000
T105C0.015748
T106C0.088356
T107C0.040000
T108C0.041361
T109C0.031496
T110C0.041333
%
T100
X014097Y017498
X006378Y020582
X006401Y004306
X012730Y018841
X009598Y011180
X002922Y015213
X013354Y042041
X000495Y004699
X014458Y019752
X011449Y017004
X009598Y007180
X004480Y007455
X012213Y016184
X003689Y014075
X008543Y003585
X009514Y036243
X006598Y006180
X012110Y005880
X008543Y000585
X014960Y013164
X006598Y005290
X006598Y012180
X015097Y017498
X011449Y014004
X000736Y012774
X006492Y037215
X006598Y010180
X010779Y009818
X009598Y008180
X015213Y016184
X014960Y012291
X012354Y042041
X002922Y018213
X003495Y005966
X006598Y009180
X011458Y019752
X011960Y012291
X010779Y006818
X015110Y005880
X009492Y037215
X009730Y018841
X006598Y011180
X006598Y007180
X003495Y004699
X010865Y005731
X007417Y003540
X000689Y014075
X001736Y012774
X011960Y013164
X001453Y017951
X003378Y020582
X007417Y000540
X009598Y006180
X001453Y014951
X005267Y004896
X010865Y002731
X006514Y036243
X009598Y005290
X009598Y012180
X011677Y004896
X006598Y008180
X009401Y004306
X014677Y004896
X004480Y004455
X009598Y010180
X009598Y009180
X000495Y005966
X005267Y007896
X013097Y017498
T101
X012895Y014701
X005610Y015415
X008810Y014246
X005610Y013493
X008810Y016168
X014817Y014701
X006362Y017233
X006362Y019155
T102
X006428Y034766
X003899Y025590
X006385Y039214
X011582Y039345
X000899Y025590
X000566Y015248
X009310Y026687
X000566Y018248
X006310Y026687
X010186Y027477
X007186Y027477
X008582Y039345
X003385Y039214
X003428Y034766
T103
X003921Y003518
X015221Y002762
X015110Y003912
X015110Y007849
X004676Y010545
X003070Y002534
X008277Y007609
X003495Y011773
X014519Y006865
X000739Y010014
X006448Y002620
X012519Y006865
X004676Y012545
X010779Y013361
X005070Y002534
X000739Y000731
X001921Y003518
X001240Y030245
X011960Y009196
X000615Y034726
X013110Y003912
X002570Y039235
X000950Y020991
X000950Y018991
X000739Y002731
X014157Y002928
X009401Y002534
X008277Y009609
X000739Y006950
X012271Y040450
X003240Y030245
X002615Y034726
X015110Y009849
X010779Y011361
X015221Y000762
X003495Y009773
X000739Y008014
X006448Y000620
X012157Y002928
X000570Y039235
X002739Y006950
X014271Y040450
X009401Y000534
X011960Y011196
T104
X004086Y023203
X005326Y036983
X000838Y036983
X005326Y023203
X010582Y022022
X004086Y036983
X015070Y022022
X005326Y032455
X000838Y032456
X011822Y022022
X004086Y032455
X011625Y025959
X005326Y027928
X010385Y025959
X000838Y027928
X014873Y033440
X011625Y033440
X004086Y027928
X010385Y033440
X014873Y029699
X000838Y023204
X011625Y029700
X014873Y037180
X010385Y029700
X011625Y037180
X010385Y037180
X014873Y025959
T105
X009592Y013088
X008837Y011400
T106
X010177Y031668
X010177Y024581
X006294Y024581
X006294Y031668
T107
X003163Y041897
X007163Y041897
X002117Y008662
X004651Y001156
X013535Y009621
X007163Y040897
X013535Y008551
X003163Y040897
X002117Y009732
X003581Y001156
X002163Y041897
X011369Y001156
X002163Y040897
X006163Y041897
X009163Y040897
X008163Y041897
X009163Y041897
X008163Y040897
X006163Y040897
X013509Y001156
X002117Y010802
X004163Y040897
X005163Y041897
X002511Y001156
X005163Y040897
X012439Y001156
X013535Y010691
X004163Y041897
T108
X009236Y028715
X009236Y021629
T109
X004415Y019244
T110
X008236Y028715
X007236Y028715
X007236Y021629
X008236Y021628
T00
M30
