G04 MADE WITH FRITZING*
G04 WWW.FRITZING.ORG*
G04 DOUBLE SIDED*
G04 HOLES PLATED*
G04 CONTOUR ON CENTER OF CONTOUR VECTOR*
%FSLAX26Y26*%
%MOIN*%
%ADD10C,0.005000*%
%ADD10C,0.008*%
G04 CONTOUR*
%FSLAX26Y26*%
%MOIN*%
D10*
D10*
X48000Y4330710D02*
X49000Y4330710D01*
X50000Y4330710D01*
X51000Y4330710D01*
X52000Y4330710D01*
X53000Y4330710D01*
X54000Y4330710D01*
X55000Y4330710D01*
X56000Y4330710D01*
X57000Y4330710D01*
X58000Y4330710D01*
X59000Y4330710D01*
X60000Y4330710D01*
X61000Y4330710D01*
X62000Y4330710D01*
X63000Y4330710D01*
X64000Y4330710D01*
X65000Y4330710D01*
X66000Y4330710D01*
X67000Y4330710D01*
X68000Y4330710D01*
X69000Y4330710D01*
X70000Y4330710D01*
X71000Y4330710D01*
X72000Y4330710D01*
X73000Y4330710D01*
X74000Y4330710D01*
X75000Y4330710D01*
X76000Y4330710D01*
X77000Y4330710D01*
X78000Y4330710D01*
X79000Y4330710D01*
X80000Y4330710D01*
X81000Y4330710D01*
X82000Y4330710D01*
X83000Y4330710D01*
X84000Y4330710D01*
X85000Y4330710D01*
X86000Y4330710D01*
X87000Y4330710D01*
X88000Y4330710D01*
X89000Y4330710D01*
X90000Y4330710D01*
X91000Y4330710D01*
X92000Y4330710D01*
X93000Y4330710D01*
X94000Y4330710D01*
X95000Y4330710D01*
X96000Y4330710D01*
X97000Y4330710D01*
X98000Y4330710D01*
X99000Y4330710D01*
X100000Y4330710D01*
X101000Y4330710D01*
X102000Y4330710D01*
X103000Y4330710D01*
X104000Y4330710D01*
X105000Y4330710D01*
X106000Y4330710D01*
X107000Y4330710D01*
X108000Y4330710D01*
X109000Y4330710D01*
X110000Y4330710D01*
X111000Y4330710D01*
X112000Y4330710D01*
X113000Y4330710D01*
X114000Y4330710D01*
X115000Y4330710D01*
X116000Y4330710D01*
X117000Y4330710D01*
X118000Y4330710D01*
X119000Y4330710D01*
X120000Y4330710D01*
X121000Y4330710D01*
X122000Y4330710D01*
X123000Y4330710D01*
X124000Y4330710D01*
X125000Y4330710D01*
X126000Y4330710D01*
X127000Y4330710D01*
X128000Y4330710D01*
X129000Y4330710D01*
X130000Y4330710D01*
X131000Y4330710D01*
X132000Y4330710D01*
X133000Y4330710D01*
X134000Y4330710D01*
X135000Y4330710D01*
X136000Y4330710D01*
X137000Y4330710D01*
X138000Y4330710D01*
X139000Y4330710D01*
X140000Y4330710D01*
X141000Y4330710D01*
X142000Y4330710D01*
X143000Y4330710D01*
X144000Y4330710D01*
X145000Y4330710D01*
X146000Y4330710D01*
X147000Y4330710D01*
X148000Y4330710D01*
X149000Y4330710D01*
X150000Y4330710D01*
X151000Y4330710D01*
X152000Y4330710D01*
X153000Y4330710D01*
X154000Y4330710D01*
X155000Y4330710D01*
X156000Y4330710D01*
X157000Y4330710D01*
X158000Y4330710D01*
X159000Y4330710D01*
X160000Y4330710D01*
X161000Y4330710D01*
X162000Y4330710D01*
X163000Y4330710D01*
X164000Y4330710D01*
X165000Y4330710D01*
X166000Y4330710D01*
X167000Y4330710D01*
X168000Y4330710D01*
X169000Y4330710D01*
X170000Y4330710D01*
X171000Y4330710D01*
X172000Y4330710D01*
X173000Y4330710D01*
X174000Y4330710D01*
X175000Y4330710D01*
X176000Y4330710D01*
X177000Y4330710D01*
X178000Y4330710D01*
X179000Y4330710D01*
X180000Y4330710D01*
X181000Y4330710D01*
X182000Y4330710D01*
X183000Y4330710D01*
X184000Y4330710D01*
X185000Y4330710D01*
X186000Y4330710D01*
X187000Y4330710D01*
X188000Y4330710D01*
X189000Y4330710D01*
X190000Y4330710D01*
X191000Y4330710D01*
X192000Y4330710D01*
X193000Y4330710D01*
X194000Y4330710D01*
X195000Y4330710D01*
X196000Y4330710D01*
X197000Y4330710D01*
X198000Y4330710D01*
X199000Y4330710D01*
X200000Y4330710D01*
X201000Y4330710D01*
X202000Y4330710D01*
X203000Y4330710D01*
X204000Y4330710D01*
X205000Y4330710D01*
X206000Y4330710D01*
X207000Y4330710D01*
X208000Y4330710D01*
X209000Y4330710D01*
X210000Y4330710D01*
X211000Y4330710D01*
X212000Y4330710D01*
X213000Y4330710D01*
X214000Y4330710D01*
X215000Y4330710D01*
X216000Y4330710D01*
X217000Y4330710D01*
X218000Y4330710D01*
X219000Y4330710D01*
X220000Y4330710D01*
X221000Y4330710D01*
X222000Y4330710D01*
X223000Y4330710D01*
X224000Y4330710D01*
X225000Y4330710D01*
X226000Y4330710D01*
X227000Y4330710D01*
X228000Y4330710D01*
X229000Y4330710D01*
X230000Y4330710D01*
X231000Y4330710D01*
X232000Y4330710D01*
X233000Y4330710D01*
X234000Y4330710D01*
X235000Y4330710D01*
X236000Y4330710D01*
X237000Y4330710D01*
X238000Y4330710D01*
X239000Y4330710D01*
X240000Y4330710D01*
X241000Y4330710D01*
X242000Y4330710D01*
X243000Y4330710D01*
X244000Y4330710D01*
X245000Y4330710D01*
X246000Y4330710D01*
X247000Y4330710D01*
X248000Y4330710D01*
X249000Y4330710D01*
X250000Y4330710D01*
X251000Y4330710D01*
X252000Y4330710D01*
X253000Y4330710D01*
X254000Y4330710D01*
X255000Y4330710D01*
X256000Y4330710D01*
X257000Y4330710D01*
X258000Y4330710D01*
X259000Y4330710D01*
X260000Y4330710D01*
X261000Y4330710D01*
X262000Y4330710D01*
X263000Y4330710D01*
X264000Y4330710D01*
X265000Y4330710D01*
X266000Y4330710D01*
X267000Y4330710D01*
X268000Y4330710D01*
X269000Y4330710D01*
X270000Y4330710D01*
X271000Y4330710D01*
X272000Y4330710D01*
X273000Y4330710D01*
X274000Y4330710D01*
X275000Y4330710D01*
X276000Y4330710D01*
X277000Y4330710D01*
X278000Y4330710D01*
X279000Y4330710D01*
X280000Y4330710D01*
X281000Y4330710D01*
X282000Y4330710D01*
X283000Y4330710D01*
X284000Y4330710D01*
X285000Y4330710D01*
X286000Y4330710D01*
X287000Y4330710D01*
X288000Y4330710D01*
X289000Y4330710D01*
X290000Y4330710D01*
X291000Y4330710D01*
X292000Y4330710D01*
X293000Y4330710D01*
X294000Y4330710D01*
X295000Y4330710D01*
X296000Y4330710D01*
X297000Y4330710D01*
X298000Y4330710D01*
X299000Y4330710D01*
X300000Y4330710D01*
X301000Y4330710D01*
X302000Y4330710D01*
X303000Y4330710D01*
X304000Y4330710D01*
X305000Y4330710D01*
X306000Y4330710D01*
X307000Y4330710D01*
X308000Y4330710D01*
X309000Y4330710D01*
X310000Y4330710D01*
X311000Y4330710D01*
X312000Y4330710D01*
X313000Y4330710D01*
X314000Y4330710D01*
X315000Y4330710D01*
X316000Y4330710D01*
X317000Y4330710D01*
X318000Y4330710D01*
X319000Y4330710D01*
X320000Y4330710D01*
X321000Y4330710D01*
X322000Y4330710D01*
X323000Y4330710D01*
X324000Y4330710D01*
X325000Y4330710D01*
X326000Y4330710D01*
X327000Y4330710D01*
X328000Y4330710D01*
X329000Y4330710D01*
X330000Y4330710D01*
X331000Y4330710D01*
X332000Y4330710D01*
X333000Y4330710D01*
X334000Y4330710D01*
X335000Y4330710D01*
X336000Y4330710D01*
X337000Y4330710D01*
X338000Y4330710D01*
X339000Y4330710D01*
X340000Y4330710D01*
X341000Y4330710D01*
X342000Y4330710D01*
X343000Y4330710D01*
X344000Y4330710D01*
X345000Y4330710D01*
X346000Y4330710D01*
X347000Y4330710D01*
X348000Y4330710D01*
X349000Y4330710D01*
X350000Y4330710D01*
X351000Y4330710D01*
X352000Y4330710D01*
X353000Y4330710D01*
X354000Y4330710D01*
X355000Y4330710D01*
X356000Y4330710D01*
X357000Y4330710D01*
X358000Y4330710D01*
X359000Y4330710D01*
X360000Y4330710D01*
X361000Y4330710D01*
X362000Y4330710D01*
X363000Y4330710D01*
X364000Y4330710D01*
X365000Y4330710D01*
X366000Y4330710D01*
X367000Y4330710D01*
X368000Y4330710D01*
X369000Y4330710D01*
X370000Y4330710D01*
X371000Y4330710D01*
X372000Y4330710D01*
X373000Y4330710D01*
X374000Y4330710D01*
X375000Y4330710D01*
X376000Y4330710D01*
X377000Y4330710D01*
X378000Y4330710D01*
X379000Y4330710D01*
X380000Y4330710D01*
X381000Y4330710D01*
X382000Y4330710D01*
X383000Y4330710D01*
X384000Y4330710D01*
X385000Y4330710D01*
X386000Y4330710D01*
X387000Y4330710D01*
X388000Y4330710D01*
X389000Y4330710D01*
X390000Y4330710D01*
X391000Y4330710D01*
X392000Y4330710D01*
X393000Y4330710D01*
X394000Y4330710D01*
X395000Y4330710D01*
X396000Y4330710D01*
X397000Y4330710D01*
X398000Y4330710D01*
X399000Y4330710D01*
X400000Y4330710D01*
X401000Y4330710D01*
X402000Y4330710D01*
X403000Y4330710D01*
X404000Y4330710D01*
X405000Y4330710D01*
X406000Y4330710D01*
X407000Y4330710D01*
X408000Y4330710D01*
X409000Y4330710D01*
X410000Y4330710D01*
X411000Y4330710D01*
X412000Y4330710D01*
X413000Y4330710D01*
X414000Y4330710D01*
X415000Y4330710D01*
X416000Y4330710D01*
X417000Y4330710D01*
X418000Y4330710D01*
X419000Y4330710D01*
X420000Y4330710D01*
X421000Y4330710D01*
X422000Y4330710D01*
X423000Y4330710D01*
X424000Y4330710D01*
X425000Y4330710D01*
X426000Y4330710D01*
X427000Y4330710D01*
X428000Y4330710D01*
X429000Y4330710D01*
X430000Y4330710D01*
X431000Y4330710D01*
X432000Y4330710D01*
X433000Y4330710D01*
X434000Y4330710D01*
X435000Y4330710D01*
X436000Y4330710D01*
X437000Y4330710D01*
X438000Y4330710D01*
X439000Y4330710D01*
X440000Y4330710D01*
X441000Y4330710D01*
X442000Y4330710D01*
X443000Y4330710D01*
X444000Y4330710D01*
X445000Y4330710D01*
X446000Y4330710D01*
X447000Y4330710D01*
X448000Y4330710D01*
X449000Y4330710D01*
X450000Y4330710D01*
X451000Y4330710D01*
X452000Y4330710D01*
X453000Y4330710D01*
X454000Y4330710D01*
X455000Y4330710D01*
X456000Y4330710D01*
X457000Y4330710D01*
X458000Y4330710D01*
X459000Y4330710D01*
X460000Y4330710D01*
X461000Y4330710D01*
X462000Y4330710D01*
X463000Y4330710D01*
X464000Y4330710D01*
X465000Y4330710D01*
X466000Y4330710D01*
X467000Y4330710D01*
X468000Y4330710D01*
X469000Y4330710D01*
X470000Y4330710D01*
X471000Y4330710D01*
X472000Y4330710D01*
X473000Y4330710D01*
X474000Y4330710D01*
X475000Y4330710D01*
X476000Y4330710D01*
X477000Y4330710D01*
X478000Y4330710D01*
X479000Y4330710D01*
X480000Y4330710D01*
X481000Y4330710D01*
X482000Y4330710D01*
X483000Y4330710D01*
X484000Y4330710D01*
X485000Y4330710D01*
X486000Y4330710D01*
X487000Y4330710D01*
X488000Y4330710D01*
X489000Y4330710D01*
X490000Y4330710D01*
X491000Y4330710D01*
X492000Y4330710D01*
X493000Y4330710D01*
X494000Y4330710D01*
X495000Y4330710D01*
X496000Y4330710D01*
X497000Y4330710D01*
X498000Y4330710D01*
X499000Y4330710D01*
X500000Y4330710D01*
X501000Y4330710D01*
X502000Y4330710D01*
X503000Y4330710D01*
X504000Y4330710D01*
X505000Y4330710D01*
X506000Y4330710D01*
X507000Y4330710D01*
X508000Y4330710D01*
X509000Y4330710D01*
X510000Y4330710D01*
X511000Y4330710D01*
X512000Y4330710D01*
X513000Y4330710D01*
X514000Y4330710D01*
X515000Y4330710D01*
X516000Y4330710D01*
X517000Y4330710D01*
X518000Y4330710D01*
X519000Y4330710D01*
X520000Y4330710D01*
X521000Y4330710D01*
X522000Y4330710D01*
X523000Y4330710D01*
X524000Y4330710D01*
X525000Y4330710D01*
X526000Y4330710D01*
X527000Y4330710D01*
X528000Y4330710D01*
X529000Y4330710D01*
X530000Y4330710D01*
X531000Y4330710D01*
X532000Y4330710D01*
X533000Y4330710D01*
X534000Y4330710D01*
X535000Y4330710D01*
X536000Y4330710D01*
X537000Y4330710D01*
X538000Y4330710D01*
X539000Y4330710D01*
X540000Y4330710D01*
X541000Y4330710D01*
X542000Y4330710D01*
X543000Y4330710D01*
X544000Y4330710D01*
X545000Y4330710D01*
X546000Y4330710D01*
X547000Y4330710D01*
X548000Y4330710D01*
X549000Y4330710D01*
X550000Y4330710D01*
X551000Y4330710D01*
X552000Y4330710D01*
X553000Y4330710D01*
X554000Y4330710D01*
X555000Y4330710D01*
X556000Y4330710D01*
X557000Y4330710D01*
X558000Y4330710D01*
X559000Y4330710D01*
X560000Y4330710D01*
X561000Y4330710D01*
X562000Y4330710D01*
X563000Y4330710D01*
X564000Y4330710D01*
X565000Y4330710D01*
X566000Y4330710D01*
X567000Y4330710D01*
X568000Y4330710D01*
X569000Y4330710D01*
X570000Y4330710D01*
X571000Y4330710D01*
X572000Y4330710D01*
X573000Y4330710D01*
X574000Y4330710D01*
X575000Y4330710D01*
X576000Y4330710D01*
X577000Y4330710D01*
X578000Y4330710D01*
X579000Y4330710D01*
X580000Y4330710D01*
X581000Y4330710D01*
X582000Y4330710D01*
X583000Y4330710D01*
X584000Y4330710D01*
X585000Y4330710D01*
X586000Y4330710D01*
X587000Y4330710D01*
X588000Y4330710D01*
X589000Y4330710D01*
X590000Y4330710D01*
X591000Y4330710D01*
X592000Y4330710D01*
X593000Y4330710D01*
X594000Y4330710D01*
X595000Y4330710D01*
X596000Y4330710D01*
X597000Y4330710D01*
X598000Y4330710D01*
X599000Y4330710D01*
X600000Y4330710D01*
X601000Y4330710D01*
X602000Y4330710D01*
X603000Y4330710D01*
X604000Y4330710D01*
X605000Y4330710D01*
X606000Y4330710D01*
X607000Y4330710D01*
X608000Y4330710D01*
X609000Y4330710D01*
X610000Y4330710D01*
X611000Y4330710D01*
X612000Y4330710D01*
X613000Y4330710D01*
X614000Y4330710D01*
X615000Y4330710D01*
X616000Y4330710D01*
X617000Y4330710D01*
X618000Y4330710D01*
X619000Y4330710D01*
X620000Y4330710D01*
X621000Y4330710D01*
X622000Y4330710D01*
X623000Y4330710D01*
X624000Y4330710D01*
X625000Y4330710D01*
X626000Y4330710D01*
X627000Y4330710D01*
X628000Y4330710D01*
X629000Y4330710D01*
X630000Y4330710D01*
X631000Y4330710D01*
X632000Y4330710D01*
X633000Y4330710D01*
X634000Y4330710D01*
X635000Y4330710D01*
X636000Y4330710D01*
X637000Y4330710D01*
X638000Y4330710D01*
X639000Y4330710D01*
X640000Y4330710D01*
X641000Y4330710D01*
X642000Y4330710D01*
X643000Y4330710D01*
X644000Y4330710D01*
X645000Y4330710D01*
X646000Y4330710D01*
X647000Y4330710D01*
X648000Y4330710D01*
X649000Y4330710D01*
X650000Y4330710D01*
X651000Y4330710D01*
X652000Y4330710D01*
X653000Y4330710D01*
X654000Y4330710D01*
X655000Y4330710D01*
X656000Y4330710D01*
X657000Y4330710D01*
X658000Y4330710D01*
X659000Y4330710D01*
X660000Y4330710D01*
X661000Y4330710D01*
X662000Y4330710D01*
X663000Y4330710D01*
X664000Y4330710D01*
X665000Y4330710D01*
X666000Y4330710D01*
X667000Y4330710D01*
X668000Y4330710D01*
X669000Y4330710D01*
X670000Y4330710D01*
X671000Y4330710D01*
X672000Y4330710D01*
X673000Y4330710D01*
X674000Y4330710D01*
X675000Y4330710D01*
X676000Y4330710D01*
X677000Y4330710D01*
X678000Y4330710D01*
X679000Y4330710D01*
X680000Y4330710D01*
X681000Y4330710D01*
X682000Y4330710D01*
X683000Y4330710D01*
X684000Y4330710D01*
X685000Y4330710D01*
X686000Y4330710D01*
X687000Y4330710D01*
X688000Y4330710D01*
X689000Y4330710D01*
X690000Y4330710D01*
X691000Y4330710D01*
X692000Y4330710D01*
X693000Y4330710D01*
X694000Y4330710D01*
X695000Y4330710D01*
X696000Y4330710D01*
X697000Y4330710D01*
X698000Y4330710D01*
X699000Y4330710D01*
X700000Y4330710D01*
X701000Y4330710D01*
X702000Y4330710D01*
X703000Y4330710D01*
X704000Y4330710D01*
X705000Y4330710D01*
X706000Y4330710D01*
X707000Y4330710D01*
X708000Y4330710D01*
X709000Y4330710D01*
X710000Y4330710D01*
X711000Y4330710D01*
X712000Y4330710D01*
X713000Y4330710D01*
X714000Y4330710D01*
X715000Y4330710D01*
X716000Y4330710D01*
X717000Y4330710D01*
X718000Y4330710D01*
X719000Y4330710D01*
X720000Y4330710D01*
X721000Y4330710D01*
X722000Y4330710D01*
X723000Y4330710D01*
X724000Y4330710D01*
X725000Y4330710D01*
X726000Y4330710D01*
X727000Y4330710D01*
X728000Y4330710D01*
X729000Y4330710D01*
X730000Y4330710D01*
X731000Y4330710D01*
X732000Y4330710D01*
X733000Y4330710D01*
X734000Y4330710D01*
X735000Y4330710D01*
X736000Y4330710D01*
X737000Y4330710D01*
X738000Y4330710D01*
X739000Y4330710D01*
X740000Y4330710D01*
X741000Y4330710D01*
X742000Y4330710D01*
X743000Y4330710D01*
X744000Y4330710D01*
X745000Y4330710D01*
X746000Y4330710D01*
X747000Y4330710D01*
X748000Y4330710D01*
X749000Y4330710D01*
X750000Y4330710D01*
X751000Y4330710D01*
X752000Y4330710D01*
X753000Y4330710D01*
X754000Y4330710D01*
X755000Y4330710D01*
X756000Y4330710D01*
X757000Y4330710D01*
X758000Y4330710D01*
X759000Y4330710D01*
X760000Y4330710D01*
X761000Y4330710D01*
X762000Y4330710D01*
X763000Y4330710D01*
X764000Y4330710D01*
X765000Y4330710D01*
X766000Y4330710D01*
X767000Y4330710D01*
X768000Y4330710D01*
X769000Y4330710D01*
X770000Y4330710D01*
X771000Y4330710D01*
X772000Y4330710D01*
X773000Y4330710D01*
X774000Y4330710D01*
X775000Y4330710D01*
X776000Y4330710D01*
X777000Y4330710D01*
X778000Y4330710D01*
X779000Y4330710D01*
X780000Y4330710D01*
X781000Y4330710D01*
X782000Y4330710D01*
X783000Y4330710D01*
X784000Y4330710D01*
X785000Y4330710D01*
X786000Y4330710D01*
X787000Y4330710D01*
X788000Y4330710D01*
X789000Y4330710D01*
X790000Y4330710D01*
X791000Y4330710D01*
X792000Y4330710D01*
X793000Y4330710D01*
X794000Y4330710D01*
X795000Y4330710D01*
X796000Y4330710D01*
X797000Y4330710D01*
X798000Y4330710D01*
X799000Y4330710D01*
X800000Y4330710D01*
X801000Y4330710D01*
X802000Y4330710D01*
X803000Y4330710D01*
X804000Y4330710D01*
X805000Y4330710D01*
X806000Y4330710D01*
X807000Y4330710D01*
X808000Y4330710D01*
X809000Y4330710D01*
X810000Y4330710D01*
X811000Y4330710D01*
X812000Y4330710D01*
X813000Y4330710D01*
X814000Y4330710D01*
X815000Y4330710D01*
X816000Y4330710D01*
X817000Y4330710D01*
X818000Y4330710D01*
X819000Y4330710D01*
X820000Y4330710D01*
X821000Y4330710D01*
X822000Y4330710D01*
X823000Y4330710D01*
X824000Y4330710D01*
X825000Y4330710D01*
X826000Y4330710D01*
X827000Y4330710D01*
X828000Y4330710D01*
X829000Y4330710D01*
X830000Y4330710D01*
X831000Y4330710D01*
X832000Y4330710D01*
X833000Y4330710D01*
X834000Y4330710D01*
X835000Y4330710D01*
X836000Y4330710D01*
X837000Y4330710D01*
X838000Y4330710D01*
X839000Y4330710D01*
X840000Y4330710D01*
X841000Y4330710D01*
X842000Y4330710D01*
X843000Y4330710D01*
X844000Y4330710D01*
X845000Y4330710D01*
X846000Y4330710D01*
X847000Y4330710D01*
X848000Y4330710D01*
X849000Y4330710D01*
X850000Y4330710D01*
X851000Y4330710D01*
X852000Y4330710D01*
X853000Y4330710D01*
X854000Y4330710D01*
X855000Y4330710D01*
X856000Y4330710D01*
X857000Y4330710D01*
X858000Y4330710D01*
X859000Y4330710D01*
X860000Y4330710D01*
X861000Y4330710D01*
X862000Y4330710D01*
X863000Y4330710D01*
X864000Y4330710D01*
X865000Y4330710D01*
X866000Y4330710D01*
X867000Y4330710D01*
X868000Y4330710D01*
X869000Y4330710D01*
X870000Y4330710D01*
X871000Y4330710D01*
X872000Y4330710D01*
X873000Y4330710D01*
X874000Y4330710D01*
X875000Y4330710D01*
X876000Y4330710D01*
X877000Y4330710D01*
X878000Y4330710D01*
X879000Y4330710D01*
X880000Y4330710D01*
X881000Y4330710D01*
X882000Y4330710D01*
X883000Y4330710D01*
X884000Y4330710D01*
X885000Y4330710D01*
X886000Y4330710D01*
X887000Y4330710D01*
X888000Y4330710D01*
X889000Y4330710D01*
X890000Y4330710D01*
X891000Y4330710D01*
X892000Y4330710D01*
X893000Y4330710D01*
X894000Y4330710D01*
X895000Y4330710D01*
X896000Y4330710D01*
X897000Y4330710D01*
X898000Y4330710D01*
X899000Y4330710D01*
X900000Y4330710D01*
X901000Y4330710D01*
X902000Y4330710D01*
X903000Y4330710D01*
X904000Y4330710D01*
X905000Y4330710D01*
X906000Y4330710D01*
X907000Y4330710D01*
X908000Y4330710D01*
X909000Y4330710D01*
X910000Y4330710D01*
X911000Y4330710D01*
X912000Y4330710D01*
X913000Y4330710D01*
X914000Y4330710D01*
X915000Y4330710D01*
X916000Y4330710D01*
X917000Y4330710D01*
X918000Y4330710D01*
X919000Y4330710D01*
X920000Y4330710D01*
X921000Y4330710D01*
X922000Y4330710D01*
X923000Y4330710D01*
X924000Y4330710D01*
X925000Y4330710D01*
X926000Y4330710D01*
X927000Y4330710D01*
X928000Y4330710D01*
X929000Y4330710D01*
X930000Y4330710D01*
X931000Y4330710D01*
X932000Y4330710D01*
X933000Y4330710D01*
X934000Y4330710D01*
X935000Y4330710D01*
X936000Y4330710D01*
X937000Y4330710D01*
X938000Y4330710D01*
X939000Y4330710D01*
X940000Y4330710D01*
X941000Y4330710D01*
X942000Y4330710D01*
X943000Y4330710D01*
X944000Y4330710D01*
X945000Y4330710D01*
X946000Y4330710D01*
X947000Y4330710D01*
X948000Y4330710D01*
X949000Y4330710D01*
X950000Y4330710D01*
X951000Y4330710D01*
X952000Y4330710D01*
X953000Y4330710D01*
X954000Y4330710D01*
X955000Y4330710D01*
X956000Y4330710D01*
X957000Y4330710D01*
X958000Y4330710D01*
X959000Y4330710D01*
X960000Y4330710D01*
X961000Y4330710D01*
X962000Y4330710D01*
X963000Y4330710D01*
X964000Y4330710D01*
X965000Y4330710D01*
X966000Y4330710D01*
X967000Y4330710D01*
X968000Y4330710D01*
X969000Y4330710D01*
X970000Y4330710D01*
X971000Y4330710D01*
X972000Y4330710D01*
X973000Y4330710D01*
X974000Y4330710D01*
X975000Y4330710D01*
X976000Y4330710D01*
X977000Y4330710D01*
X978000Y4330710D01*
X979000Y4330710D01*
X980000Y4330710D01*
X981000Y4330710D01*
X982000Y4330710D01*
X983000Y4330710D01*
X984000Y4330710D01*
X985000Y4330710D01*
X986000Y4330710D01*
X987000Y4330710D01*
X988000Y4330710D01*
X989000Y4330710D01*
X990000Y4330710D01*
X991000Y4330710D01*
X992000Y4330710D01*
X993000Y4330710D01*
X994000Y4330710D01*
X995000Y4330710D01*
X996000Y4330710D01*
X997000Y4330710D01*
X998000Y4330710D01*
X999000Y4330710D01*
X1000000Y4330710D01*
X1001000Y4330710D01*
X1002000Y4330710D01*
X1003000Y4330710D01*
X1004000Y4330710D01*
X1005000Y4330710D01*
X1006000Y4330710D01*
X1007000Y4330710D01*
X1008000Y4330710D01*
X1009000Y4330710D01*
X1010000Y4330710D01*
X1011000Y4330710D01*
X1012000Y4330710D01*
X1013000Y4330710D01*
X1014000Y4330710D01*
X1015000Y4330710D01*
X1016000Y4330710D01*
X1017000Y4330710D01*
X1018000Y4330710D01*
X1019000Y4330710D01*
X1020000Y4330710D01*
X1021000Y4330710D01*
X1022000Y4330710D01*
X1023000Y4330710D01*
X1024000Y4330710D01*
X1025000Y4330710D01*
X1026000Y4330710D01*
X1027000Y4330710D01*
X1028000Y4330710D01*
X1029000Y4330710D01*
X1030000Y4330710D01*
X1031000Y4330710D01*
X1032000Y4330710D01*
X1033000Y4330710D01*
X1034000Y4330710D01*
X1035000Y4330710D01*
X1036000Y4330710D01*
X1037000Y4330710D01*
X1038000Y4330710D01*
X1039000Y4330710D01*
X1040000Y4330710D01*
X1041000Y4330710D01*
X1042000Y4330710D01*
X1043000Y4330710D01*
X1044000Y4330710D01*
X1045000Y4330710D01*
X1046000Y4330710D01*
X1047000Y4330710D01*
X1048000Y4330710D01*
X1049000Y4330710D01*
X1050000Y4330710D01*
X1051000Y4330710D01*
X1052000Y4330710D01*
X1053000Y4330710D01*
X1054000Y4330710D01*
X1055000Y4330710D01*
X1056000Y4330710D01*
X1057000Y4330710D01*
X1058000Y4330710D01*
X1059000Y4330710D01*
X1060000Y4330710D01*
X1061000Y4330710D01*
X1062000Y4330710D01*
X1063000Y4330710D01*
X1064000Y4330710D01*
X1065000Y4330710D01*
X1066000Y4330710D01*
X1067000Y4330710D01*
X1068000Y4330710D01*
X1069000Y4330710D01*
X1070000Y4330710D01*
X1071000Y4330710D01*
X1072000Y4330710D01*
X1073000Y4330710D01*
X1074000Y4330710D01*
X1075000Y4330710D01*
X1076000Y4330710D01*
X1077000Y4330710D01*
X1078000Y4330710D01*
X1079000Y4330710D01*
X1080000Y4330710D01*
X1081000Y4330710D01*
X1082000Y4330710D01*
X1083000Y4330710D01*
X1084000Y4330710D01*
X1085000Y4330710D01*
X1086000Y4330710D01*
X1087000Y4330710D01*
X1088000Y4330710D01*
X1089000Y4330710D01*
X1090000Y4330710D01*
X1091000Y4330710D01*
X1092000Y4330710D01*
X1093000Y4330710D01*
X1094000Y4330710D01*
X1095000Y4330710D01*
X1096000Y4330710D01*
X1097000Y4330710D01*
X1098000Y4330710D01*
X1099000Y4330710D01*
X1100000Y4330710D01*
X1101000Y4330710D01*
X1102000Y4330710D01*
X1103000Y4330710D01*
X1104000Y4330710D01*
X1105000Y4330710D01*
X1106000Y4330710D01*
X1107000Y4330710D01*
X1108000Y4330710D01*
X1109000Y4330710D01*
X1110000Y4330710D01*
X1111000Y4330710D01*
X1112000Y4330710D01*
X1113000Y4330710D01*
X1114000Y4330710D01*
X1115000Y4330710D01*
X1116000Y4330710D01*
X1117000Y4330710D01*
X1118000Y4330710D01*
X1119000Y4330710D01*
X1120000Y4330710D01*
X1121000Y4330710D01*
X1122000Y4330710D01*
X1123000Y4330710D01*
X1124000Y4330710D01*
X1125000Y4330710D01*
X1126000Y4330710D01*
X1127000Y4330710D01*
X1128000Y4330710D01*
X1129000Y4330710D01*
X1130000Y4330710D01*
X1131000Y4330710D01*
X1132000Y4330710D01*
X1133000Y4330710D01*
X1134000Y4330710D01*
X1135000Y4330710D01*
X1136000Y4330710D01*
X1137000Y4330710D01*
X1138000Y4330710D01*
X1139000Y4330710D01*
X1140000Y4330710D01*
X1141000Y4330710D01*
X1142000Y4330710D01*
X1143000Y4330710D01*
X1144000Y4330710D01*
X1145000Y4330710D01*
X1146000Y4330710D01*
X1147000Y4330710D01*
X1148000Y4330710D01*
X1149000Y4330710D01*
X1150000Y4330710D01*
X1151000Y4330710D01*
X1152000Y4330710D01*
X1153000Y4330710D01*
X1154000Y4330710D01*
X1155000Y4330710D01*
X1156000Y4330710D01*
X1157000Y4330710D01*
X1158000Y4330710D01*
X1159000Y4330710D01*
X1160000Y4330710D01*
X1161000Y4330710D01*
X1162000Y4330710D01*
X1163000Y4330710D01*
X1164000Y4330710D01*
X1165000Y4330710D01*
X1166000Y4330710D01*
X1167000Y4330710D01*
X1168000Y4330710D01*
X1169000Y4330710D01*
X1170000Y4330710D01*
X1171000Y4330710D01*
X1172000Y4330710D01*
X1173000Y4330710D01*
X1174000Y4330710D01*
X1175000Y4330710D01*
X1176000Y4330710D01*
X1177000Y4330710D01*
X1178000Y4330710D01*
X1179000Y4330710D01*
X1180000Y4330710D01*
X1181000Y4330710D01*
X1182000Y4330710D01*
X1183000Y4330710D01*
X1184000Y4330710D01*
X1185000Y4330710D01*
X1186000Y4330710D01*
X1187000Y4330710D01*
X1188000Y4330710D01*
X1189000Y4330710D01*
X1190000Y4330710D01*
X1191000Y4330710D01*
X1192000Y4330710D01*
X1193000Y4330710D01*
X1194000Y4330710D01*
X1195000Y4330710D01*
X1196000Y4330710D01*
X1197000Y4330710D01*
X1198000Y4330710D01*
X1199000Y4330710D01*
X1200000Y4330710D01*
X1201000Y4330710D01*
X1202000Y4330710D01*
X1203000Y4330710D01*
X1204000Y4330710D01*
X1205000Y4330710D01*
X1206000Y4330710D01*
X1207000Y4330710D01*
X1208000Y4330710D01*
X1209000Y4330710D01*
X1210000Y4330710D01*
X1211000Y4330710D01*
X1212000Y4330710D01*
X1213000Y4330710D01*
X1214000Y4330710D01*
X1215000Y4330710D01*
X1216000Y4330710D01*
X1217000Y4330710D01*
X1218000Y4330710D01*
X1219000Y4330710D01*
X1220000Y4330710D01*
X1221000Y4330710D01*
X1222000Y4330710D01*
X1223000Y4330710D01*
X1224000Y4330710D01*
X1225000Y4330710D01*
X1226000Y4330710D01*
X1227000Y4330710D01*
X1228000Y4330710D01*
X1229000Y4330710D01*
X1230000Y4330710D01*
X1231000Y4330710D01*
X1232000Y4330710D01*
X1233000Y4330710D01*
X1234000Y4330710D01*
X1235000Y4330710D01*
X1236000Y4330710D01*
X1237000Y4330710D01*
X1238000Y4330710D01*
X1239000Y4330710D01*
X1240000Y4330710D01*
X1241000Y4330710D01*
X1242000Y4330710D01*
X1243000Y4330710D01*
X1244000Y4330710D01*
X1245000Y4330710D01*
X1246000Y4330710D01*
X1247000Y4330710D01*
X1248000Y4330710D01*
X1249000Y4330710D01*
X1250000Y4330710D01*
X1251000Y4330710D01*
X1252000Y4330710D01*
X1253000Y4330710D01*
X1254000Y4330710D01*
X1255000Y4330710D01*
X1256000Y4330710D01*
X1257000Y4330710D01*
X1258000Y4330710D01*
X1259000Y4330710D01*
X1260000Y4330710D01*
X1261000Y4330710D01*
X1262000Y4330710D01*
X1263000Y4330710D01*
X1264000Y4330710D01*
X1265000Y4330710D01*
X1266000Y4330710D01*
X1267000Y4330710D01*
X1268000Y4330710D01*
X1269000Y4330710D01*
X1270000Y4330710D01*
X1271000Y4330710D01*
X1272000Y4330710D01*
X1273000Y4330710D01*
X1274000Y4330710D01*
X1275000Y4330710D01*
X1276000Y4330710D01*
X1277000Y4330710D01*
X1278000Y4330710D01*
X1279000Y4330710D01*
X1280000Y4330710D01*
X1281000Y4330710D01*
X1282000Y4330710D01*
X1283000Y4330710D01*
X1284000Y4330710D01*
X1285000Y4330710D01*
X1286000Y4330710D01*
X1287000Y4330710D01*
X1288000Y4330710D01*
X1289000Y4330710D01*
X1290000Y4330710D01*
X1291000Y4330710D01*
X1292000Y4330710D01*
X1293000Y4330710D01*
X1294000Y4330710D01*
X1295000Y4330710D01*
X1296000Y4330710D01*
X1297000Y4330710D01*
X1298000Y4330710D01*
X1299000Y4330710D01*
X1300000Y4330710D01*
X1301000Y4330710D01*
X1302000Y4330710D01*
X1303000Y4330710D01*
X1304000Y4330710D01*
X1305000Y4330710D01*
X1306000Y4330710D01*
X1307000Y4330710D01*
X1308000Y4330710D01*
X1309000Y4330710D01*
X1310000Y4330710D01*
X1311000Y4330710D01*
X1312000Y4330710D01*
X1313000Y4330710D01*
X1314000Y4330710D01*
X1315000Y4330710D01*
X1316000Y4330710D01*
X1317000Y4330710D01*
X1318000Y4330710D01*
X1319000Y4330710D01*
X1320000Y4330710D01*
X1321000Y4330710D01*
X1322000Y4330710D01*
X1323000Y4330710D01*
X1324000Y4330710D01*
X1325000Y4330710D01*
X1326000Y4330710D01*
X1327000Y4330710D01*
X1328000Y4330710D01*
X1329000Y4330710D01*
X1330000Y4330710D01*
X1331000Y4330710D01*
X1332000Y4330710D01*
X1333000Y4330710D01*
X1334000Y4330710D01*
X1335000Y4330710D01*
X1336000Y4330710D01*
X1337000Y4330710D01*
X1338000Y4330710D01*
X1339000Y4330710D01*
X1340000Y4330710D01*
X1341000Y4330710D01*
X1342000Y4330710D01*
X1343000Y4330710D01*
X1344000Y4330710D01*
X1345000Y4330710D01*
X1346000Y4330710D01*
X1347000Y4330710D01*
X1348000Y4330710D01*
X1349000Y4330710D01*
X1350000Y4330710D01*
X1351000Y4330710D01*
X1352000Y4330710D01*
X1353000Y4330710D01*
X1354000Y4330710D01*
X1355000Y4330710D01*
X1356000Y4330710D01*
X1357000Y4330710D01*
X1358000Y4330710D01*
X1359000Y4330710D01*
X1360000Y4330710D01*
X1361000Y4330710D01*
X1362000Y4330710D01*
X1363000Y4330710D01*
X1364000Y4330710D01*
X1365000Y4330710D01*
X1366000Y4330710D01*
X1367000Y4330710D01*
X1368000Y4330710D01*
X1369000Y4330710D01*
X1370000Y4330710D01*
X1371000Y4330710D01*
X1372000Y4330710D01*
X1373000Y4330710D01*
X1374000Y4330710D01*
X1375000Y4330710D01*
X1376000Y4330710D01*
X1377000Y4330710D01*
X1378000Y4330710D01*
X1379000Y4330710D01*
X1380000Y4330710D01*
X1381000Y4330710D01*
X1382000Y4330710D01*
X1383000Y4330710D01*
X1384000Y4330710D01*
X1385000Y4330710D01*
X1386000Y4330710D01*
X1387000Y4330710D01*
X1388000Y4330710D01*
X1389000Y4330710D01*
X1390000Y4330710D01*
X1391000Y4330710D01*
X1392000Y4330710D01*
X1393000Y4330710D01*
X1394000Y4330710D01*
X1395000Y4330710D01*
X1396000Y4330710D01*
X1397000Y4330710D01*
X1398000Y4330710D01*
X1399000Y4330710D01*
X1400000Y4330710D01*
X1401000Y4330710D01*
X1402000Y4330710D01*
X1403000Y4330710D01*
X1404000Y4330710D01*
X1405000Y4330710D01*
X1406000Y4330710D01*
X1407000Y4330710D01*
X1408000Y4330710D01*
X1409000Y4330710D01*
X1410000Y4330710D01*
X1411000Y4330710D01*
X1412000Y4330710D01*
X1413000Y4330710D01*
X1414000Y4330710D01*
X1415000Y4330710D01*
X1416000Y4330710D01*
X1417000Y4330710D01*
X1418000Y4330710D01*
X1419000Y4330710D01*
X1420000Y4330710D01*
X1421000Y4330710D01*
X1422000Y4330710D01*
X1423000Y4330710D01*
X1424000Y4330710D01*
X1425000Y4330710D01*
X1426000Y4330710D01*
X1427000Y4330710D01*
X1428000Y4330710D01*
X1429000Y4330710D01*
X1430000Y4330710D01*
X1431000Y4330710D01*
X1432000Y4330710D01*
X1433000Y4330710D01*
X1434000Y4330710D01*
X1435000Y4330710D01*
X1436000Y4330710D01*
X1437000Y4330710D01*
X1438000Y4330710D01*
X1439000Y4330710D01*
X1440000Y4330710D01*
X1441000Y4330710D01*
X1442000Y4330710D01*
X1443000Y4330710D01*
X1444000Y4330710D01*
X1445000Y4330710D01*
X1446000Y4330710D01*
X1447000Y4330710D01*
X1448000Y4330710D01*
X1449000Y4330710D01*
X1450000Y4330710D01*
X1451000Y4330710D01*
X1452000Y4330710D01*
X1453000Y4330710D01*
X1454000Y4330710D01*
X1455000Y4330710D01*
X1456000Y4330710D01*
X1457000Y4330710D01*
X1458000Y4330710D01*
X1459000Y4330710D01*
X1460000Y4330710D01*
X1461000Y4330710D01*
X1462000Y4330710D01*
X1463000Y4330710D01*
X1464000Y4330710D01*
X1465000Y4330710D01*
X1466000Y4330710D01*
X1467000Y4330710D01*
X1468000Y4330710D01*
X1469000Y4330710D01*
X1470000Y4330710D01*
X1471000Y4330710D01*
X1472000Y4330710D01*
X1473000Y4330710D01*
X1474000Y4330710D01*
X1475000Y4330710D01*
X1476000Y4330710D01*
X1477000Y4330710D01*
X1478000Y4330710D01*
X1479000Y4330710D01*
X1480000Y4330710D01*
X1481000Y4330710D01*
X1482000Y4330710D01*
X1483000Y4330710D01*
X1484000Y4330710D01*
X1485000Y4330710D01*
X1486000Y4330710D01*
X1487000Y4330710D01*
X1488000Y4330710D01*
X1489000Y4330710D01*
X1490000Y4330710D01*
X1491000Y4330710D01*
X1492000Y4330710D01*
X1493000Y4330710D01*
X1494000Y4330710D01*
X1495000Y4330710D01*
X1496000Y4330710D01*
X1497000Y4330710D01*
X1498000Y4330710D01*
X1499000Y4330710D01*
X1500000Y4330710D01*
X1501000Y4330710D01*
X1502000Y4330710D01*
X1503000Y4330710D01*
X1504000Y4330710D01*
X1505000Y4330710D01*
X1506000Y4330710D01*
X1507000Y4330710D01*
X1508000Y4330710D01*
X1509000Y4330710D01*
X1510000Y4330710D01*
X1511000Y4330710D01*
X1512000Y4330710D01*
X1513000Y4330710D01*
X1514000Y4330710D01*
X1515000Y4330710D01*
X1516000Y4330710D01*
X1517000Y4330710D01*
X1518000Y4330710D01*
X1519000Y4330710D01*
X1520000Y4330710D01*
X1521000Y4330710D01*
X1522000Y4330710D01*
X1523000Y4330710D01*
X1524000Y4330710D01*
X1525000Y4330710D01*
X1526000Y4329710D01*
X1527000Y4329710D01*
X1528000Y4329710D01*
X1529000Y4329710D01*
X1530000Y4329710D01*
X1531000Y4328710D01*
X1532000Y4328710D01*
X1533000Y4328710D01*
X1534000Y4327710D01*
X1535000Y4327710D01*
X1536000Y4327710D01*
X1537000Y4326710D01*
X1538000Y4326710D01*
X1539000Y4325710D01*
X1540000Y4325710D01*
X1541000Y4324710D01*
X1542000Y4324710D01*
X1543000Y4323710D01*
X1544000Y4323710D01*
X1545000Y4322710D01*
X1546000Y4321710D01*
X1547000Y4320710D01*
X1548000Y4320710D01*
X1549000Y4319710D01*
X1550000Y4318710D01*
X1551000Y4317710D01*
X1552000Y4316710D01*
X1553000Y4316710D01*
X1554000Y4315710D01*
X1555000Y4314710D01*
X1555000Y4313710D01*
X1556000Y4312710D01*
X1557000Y4311710D01*
X1558000Y4310710D01*
X1559000Y4309710D01*
X1560000Y4308710D01*
X1560000Y4307710D01*
X1561000Y4306710D01*
X1562000Y4305710D01*
X1562000Y4304710D01*
X1563000Y4303710D01*
X1563000Y4302710D01*
X1564000Y4301710D01*
X1565000Y4300710D01*
X1565000Y4299710D01*
X1566000Y4298710D01*
X1566000Y4297710D01*
X1567000Y4296710D01*
X1567000Y4294710D01*
X1568000Y4293710D01*
X1568000Y4292710D01*
X1569000Y4291710D01*
X1569000Y4289710D01*
X1570000Y4288710D01*
X1570000Y4285710D01*
X1571000Y4284710D01*
X1571000Y4281710D01*
X1572000Y4280710D01*
X1572000Y4274710D01*
X1573000Y4273710D01*
X1573000Y58710D01*
X1572000Y57710D01*
X1572000Y51710D01*
X1571000Y50710D01*
X1571000Y47710D01*
X1570000Y46710D01*
X1570000Y43710D01*
X1569000Y42710D01*
X1569000Y40710D01*
X1568000Y39710D01*
X1568000Y38710D01*
X1567000Y37710D01*
X1567000Y35710D01*
X1566000Y34710D01*
X1566000Y33710D01*
X1565000Y32710D01*
X1565000Y31710D01*
X1564000Y30710D01*
X1563000Y29710D01*
X1563000Y28710D01*
X1562000Y27710D01*
X1562000Y26710D01*
X1561000Y25710D01*
X1560000Y24710D01*
X1560000Y23710D01*
X1559000Y22710D01*
X1558000Y21710D01*
X1557000Y20710D01*
X1556000Y19710D01*
X1555000Y18710D01*
X1555000Y17710D01*
X1554000Y16710D01*
X1553000Y15710D01*
X1552000Y15710D01*
X1551000Y14710D01*
X1550000Y13710D01*
X1549000Y12710D01*
X1548000Y11710D01*
X1547000Y11710D01*
X1546000Y10710D01*
X1545000Y9710D01*
X1544000Y8710D01*
X1543000Y8710D01*
X1542000Y7710D01*
X1541000Y7710D01*
X1540000Y6710D01*
X1539000Y6710D01*
X1538000Y5710D01*
X1537000Y5710D01*
X1536000Y4710D01*
X1535000Y4710D01*
X1534000Y4710D01*
X1533000Y3710D01*
X1532000Y3710D01*
X1531000Y3710D01*
X1530000Y2710D01*
X1529000Y2710D01*
X1528000Y2710D01*
X1527000Y2710D01*
X1526000Y2710D01*
X1525000Y2710D01*
X1524000Y1710D01*
X1523000Y1710D01*
X1522000Y1710D01*
X1521000Y1710D01*
X1520000Y1710D01*
X1519000Y1710D01*
X1518000Y1710D01*
X1517000Y1710D01*
X1516000Y1710D01*
X1515000Y1710D01*
X1514000Y1710D01*
X1513000Y1710D01*
X1512000Y1710D01*
X1511000Y1710D01*
X1510000Y1710D01*
X1509000Y1710D01*
X1508000Y1710D01*
X1507000Y1710D01*
X1506000Y1710D01*
X1505000Y1710D01*
X1504000Y1710D01*
X1503000Y1710D01*
X1502000Y1710D01*
X1501000Y1710D01*
X1500000Y1710D01*
X1499000Y1710D01*
X1498000Y1710D01*
X1497000Y1710D01*
X1496000Y1710D01*
X1495000Y1710D01*
X1494000Y1710D01*
X1493000Y1710D01*
X1492000Y1710D01*
X1491000Y1710D01*
X1490000Y1710D01*
X1489000Y1710D01*
X1488000Y1710D01*
X1487000Y1710D01*
X1486000Y1710D01*
X1485000Y1710D01*
X1484000Y1710D01*
X1483000Y1710D01*
X1482000Y1710D01*
X1481000Y1710D01*
X1480000Y1710D01*
X1479000Y1710D01*
X1478000Y1710D01*
X1477000Y1710D01*
X1476000Y1710D01*
X1475000Y1710D01*
X1474000Y1710D01*
X1473000Y1710D01*
X1472000Y1710D01*
X1471000Y1710D01*
X1470000Y1710D01*
X1469000Y1710D01*
X1468000Y1710D01*
X1467000Y1710D01*
X1466000Y1710D01*
X1465000Y1710D01*
X1464000Y1710D01*
X1463000Y1710D01*
X1462000Y1710D01*
X1461000Y1710D01*
X1460000Y1710D01*
X1459000Y1710D01*
X1458000Y1710D01*
X1457000Y1710D01*
X1456000Y1710D01*
X1455000Y1710D01*
X1454000Y1710D01*
X1453000Y1710D01*
X1452000Y1710D01*
X1451000Y1710D01*
X1450000Y1710D01*
X1449000Y1710D01*
X1448000Y1710D01*
X1447000Y1710D01*
X1446000Y1710D01*
X1445000Y1710D01*
X1444000Y1710D01*
X1443000Y1710D01*
X1442000Y1710D01*
X1441000Y1710D01*
X1440000Y1710D01*
X1439000Y1710D01*
X1438000Y1710D01*
X1437000Y1710D01*
X1436000Y1710D01*
X1435000Y1710D01*
X1434000Y1710D01*
X1433000Y1710D01*
X1432000Y1710D01*
X1431000Y1710D01*
X1430000Y1710D01*
X1429000Y1710D01*
X1428000Y1710D01*
X1427000Y1710D01*
X1426000Y1710D01*
X1425000Y1710D01*
X1424000Y1710D01*
X1423000Y1710D01*
X1422000Y1710D01*
X1421000Y1710D01*
X1420000Y1710D01*
X1419000Y1710D01*
X1418000Y1710D01*
X1417000Y1710D01*
X1416000Y1710D01*
X1415000Y1710D01*
X1414000Y1710D01*
X1413000Y1710D01*
X1412000Y1710D01*
X1411000Y1710D01*
X1410000Y1710D01*
X1409000Y1710D01*
X1408000Y1710D01*
X1407000Y1710D01*
X1406000Y1710D01*
X1405000Y1710D01*
X1404000Y1710D01*
X1403000Y1710D01*
X1402000Y1710D01*
X1401000Y1710D01*
X1400000Y1710D01*
X1399000Y1710D01*
X1398000Y1710D01*
X1397000Y1710D01*
X1396000Y1710D01*
X1395000Y1710D01*
X1394000Y1710D01*
X1393000Y1710D01*
X1392000Y1710D01*
X1391000Y1710D01*
X1390000Y1710D01*
X1389000Y1710D01*
X1388000Y1710D01*
X1387000Y1710D01*
X1386000Y1710D01*
X1385000Y1710D01*
X1384000Y1710D01*
X1383000Y1710D01*
X1382000Y1710D01*
X1381000Y1710D01*
X1380000Y1710D01*
X1379000Y1710D01*
X1378000Y1710D01*
X1377000Y1710D01*
X1376000Y1710D01*
X1375000Y1710D01*
X1374000Y1710D01*
X1373000Y1710D01*
X1372000Y1710D01*
X1371000Y1710D01*
X1370000Y1710D01*
X1369000Y1710D01*
X1368000Y1710D01*
X1367000Y1710D01*
X1366000Y1710D01*
X1365000Y1710D01*
X1364000Y1710D01*
X1363000Y1710D01*
X1362000Y1710D01*
X1361000Y1710D01*
X1360000Y1710D01*
X1359000Y1710D01*
X1358000Y1710D01*
X1357000Y1710D01*
X1356000Y1710D01*
X1355000Y1710D01*
X1354000Y1710D01*
X1353000Y1710D01*
X1352000Y1710D01*
X1351000Y1710D01*
X1350000Y1710D01*
X1349000Y1710D01*
X1348000Y1710D01*
X1347000Y1710D01*
X1346000Y1710D01*
X1345000Y1710D01*
X1344000Y1710D01*
X1343000Y1710D01*
X1342000Y1710D01*
X1341000Y1710D01*
X1340000Y1710D01*
X1339000Y1710D01*
X1338000Y1710D01*
X1337000Y1710D01*
X1336000Y1710D01*
X1335000Y1710D01*
X1334000Y1710D01*
X1333000Y1710D01*
X1332000Y1710D01*
X1331000Y1710D01*
X1330000Y1710D01*
X1329000Y1710D01*
X1328000Y1710D01*
X1327000Y1710D01*
X1326000Y1710D01*
X1325000Y1710D01*
X1324000Y1710D01*
X1323000Y1710D01*
X1322000Y1710D01*
X1321000Y1710D01*
X1320000Y1710D01*
X1319000Y1710D01*
X1318000Y1710D01*
X1317000Y1710D01*
X1316000Y1710D01*
X1315000Y1710D01*
X1314000Y1710D01*
X1313000Y1710D01*
X1312000Y1710D01*
X1311000Y1710D01*
X1310000Y1710D01*
X1309000Y1710D01*
X1308000Y1710D01*
X1307000Y1710D01*
X1306000Y1710D01*
X1305000Y1710D01*
X1304000Y1710D01*
X1303000Y1710D01*
X1302000Y1710D01*
X1301000Y1710D01*
X1300000Y1710D01*
X1299000Y1710D01*
X1298000Y1710D01*
X1297000Y1710D01*
X1296000Y1710D01*
X1295000Y1710D01*
X1294000Y1710D01*
X1293000Y1710D01*
X1292000Y1710D01*
X1291000Y1710D01*
X1290000Y1710D01*
X1289000Y1710D01*
X1288000Y1710D01*
X1287000Y1710D01*
X1286000Y1710D01*
X1285000Y1710D01*
X1284000Y1710D01*
X1283000Y1710D01*
X1282000Y1710D01*
X1281000Y1710D01*
X1280000Y1710D01*
X1279000Y1710D01*
X1278000Y1710D01*
X1277000Y1710D01*
X1276000Y1710D01*
X1275000Y1710D01*
X1274000Y1710D01*
X1273000Y1710D01*
X1272000Y1710D01*
X1271000Y1710D01*
X1270000Y1710D01*
X1269000Y1710D01*
X1268000Y1710D01*
X1267000Y1710D01*
X1266000Y1710D01*
X1265000Y1710D01*
X1264000Y1710D01*
X1263000Y1710D01*
X1262000Y1710D01*
X1261000Y1710D01*
X1260000Y1710D01*
X1259000Y1710D01*
X1258000Y1710D01*
X1257000Y1710D01*
X1256000Y1710D01*
X1255000Y1710D01*
X1254000Y1710D01*
X1253000Y1710D01*
X1252000Y1710D01*
X1251000Y1710D01*
X1250000Y1710D01*
X1249000Y1710D01*
X1248000Y1710D01*
X1247000Y1710D01*
X1246000Y1710D01*
X1245000Y1710D01*
X1244000Y1710D01*
X1243000Y1710D01*
X1242000Y1710D01*
X1241000Y1710D01*
X1240000Y1710D01*
X1239000Y1710D01*
X1238000Y1710D01*
X1237000Y1710D01*
X1236000Y1710D01*
X1235000Y1710D01*
X1234000Y1710D01*
X1233000Y1710D01*
X1232000Y1710D01*
X1231000Y1710D01*
X1230000Y1710D01*
X1229000Y1710D01*
X1228000Y1710D01*
X1227000Y1710D01*
X1226000Y1710D01*
X1225000Y1710D01*
X1224000Y1710D01*
X1223000Y1710D01*
X1222000Y1710D01*
X1221000Y1710D01*
X1220000Y1710D01*
X1219000Y1710D01*
X1218000Y1710D01*
X1217000Y1710D01*
X1216000Y1710D01*
X1215000Y1710D01*
X1214000Y1710D01*
X1213000Y1710D01*
X1212000Y1710D01*
X1211000Y1710D01*
X1210000Y1710D01*
X1209000Y1710D01*
X1208000Y1710D01*
X1207000Y1710D01*
X1206000Y1710D01*
X1205000Y1710D01*
X1204000Y1710D01*
X1203000Y1710D01*
X1202000Y1710D01*
X1201000Y1710D01*
X1200000Y1710D01*
X1199000Y1710D01*
X1198000Y1710D01*
X1197000Y1710D01*
X1196000Y1710D01*
X1195000Y1710D01*
X1194000Y1710D01*
X1193000Y1710D01*
X1192000Y1710D01*
X1191000Y1710D01*
X1190000Y1710D01*
X1189000Y1710D01*
X1188000Y1710D01*
X1187000Y1710D01*
X1186000Y1710D01*
X1185000Y1710D01*
X1184000Y1710D01*
X1183000Y1710D01*
X1182000Y1710D01*
X1181000Y1710D01*
X1180000Y1710D01*
X1179000Y1710D01*
X1178000Y1710D01*
X1177000Y1710D01*
X1176000Y1710D01*
X1175000Y1710D01*
X1174000Y1710D01*
X1173000Y1710D01*
X1172000Y1710D01*
X1171000Y1710D01*
X1170000Y1710D01*
X1169000Y1710D01*
X1168000Y1710D01*
X1167000Y1710D01*
X1166000Y1710D01*
X1165000Y1710D01*
X1164000Y1710D01*
X1163000Y1710D01*
X1162000Y1710D01*
X1161000Y1710D01*
X1160000Y1710D01*
X1159000Y1710D01*
X1158000Y1710D01*
X1157000Y1710D01*
X1156000Y1710D01*
X1155000Y1710D01*
X1154000Y1710D01*
X1153000Y1710D01*
X1152000Y1710D01*
X1151000Y1710D01*
X1150000Y1710D01*
X1149000Y1710D01*
X1148000Y1710D01*
X1147000Y1710D01*
X1146000Y1710D01*
X1145000Y1710D01*
X1144000Y1710D01*
X1143000Y1710D01*
X1142000Y1710D01*
X1141000Y1710D01*
X1140000Y1710D01*
X1139000Y1710D01*
X1138000Y1710D01*
X1137000Y1710D01*
X1136000Y1710D01*
X1135000Y1710D01*
X1134000Y1710D01*
X1133000Y1710D01*
X1132000Y1710D01*
X1131000Y1710D01*
X1130000Y1710D01*
X1129000Y1710D01*
X1128000Y1710D01*
X1127000Y1710D01*
X1126000Y1710D01*
X1125000Y1710D01*
X1124000Y1710D01*
X1123000Y1710D01*
X1122000Y1710D01*
X1121000Y1710D01*
X1120000Y1710D01*
X1119000Y1710D01*
X1118000Y1710D01*
X1117000Y1710D01*
X1116000Y1710D01*
X1115000Y1710D01*
X1114000Y1710D01*
X1113000Y1710D01*
X1112000Y1710D01*
X1111000Y1710D01*
X1110000Y1710D01*
X1109000Y1710D01*
X1108000Y1710D01*
X1107000Y1710D01*
X1106000Y1710D01*
X1105000Y1710D01*
X1104000Y1710D01*
X1103000Y1710D01*
X1102000Y1710D01*
X1101000Y1710D01*
X1100000Y1710D01*
X1099000Y1710D01*
X1098000Y1710D01*
X1097000Y1710D01*
X1096000Y1710D01*
X1095000Y1710D01*
X1094000Y1710D01*
X1093000Y1710D01*
X1092000Y1710D01*
X1091000Y1710D01*
X1090000Y1710D01*
X1089000Y1710D01*
X1088000Y1710D01*
X1087000Y1710D01*
X1086000Y1710D01*
X1085000Y1710D01*
X1084000Y1710D01*
X1083000Y1710D01*
X1082000Y1710D01*
X1081000Y1710D01*
X1080000Y1710D01*
X1079000Y1710D01*
X1078000Y1710D01*
X1077000Y1710D01*
X1076000Y1710D01*
X1075000Y1710D01*
X1074000Y1710D01*
X1073000Y1710D01*
X1072000Y1710D01*
X1071000Y1710D01*
X1070000Y1710D01*
X1069000Y1710D01*
X1068000Y1710D01*
X1067000Y1710D01*
X1066000Y1710D01*
X1065000Y1710D01*
X1064000Y1710D01*
X1063000Y1710D01*
X1062000Y1710D01*
X1061000Y1710D01*
X1060000Y1710D01*
X1059000Y1710D01*
X1058000Y1710D01*
X1057000Y1710D01*
X1056000Y1710D01*
X1055000Y1710D01*
X1054000Y1710D01*
X1053000Y1710D01*
X1052000Y1710D01*
X1051000Y1710D01*
X1050000Y1710D01*
X1049000Y1710D01*
X1048000Y1710D01*
X1047000Y1710D01*
X1046000Y1710D01*
X1045000Y1710D01*
X1044000Y1710D01*
X1043000Y1710D01*
X1042000Y1710D01*
X1041000Y1710D01*
X1040000Y1710D01*
X1039000Y1710D01*
X1038000Y1710D01*
X1037000Y1710D01*
X1036000Y1710D01*
X1035000Y1710D01*
X1034000Y1710D01*
X1033000Y1710D01*
X1032000Y1710D01*
X1031000Y1710D01*
X1030000Y1710D01*
X1029000Y1710D01*
X1028000Y1710D01*
X1027000Y1710D01*
X1026000Y1710D01*
X1025000Y1710D01*
X1024000Y1710D01*
X1023000Y1710D01*
X1022000Y1710D01*
X1021000Y1710D01*
X1020000Y1710D01*
X1019000Y1710D01*
X1018000Y1710D01*
X1017000Y1710D01*
X1016000Y1710D01*
X1015000Y1710D01*
X1014000Y1710D01*
X1013000Y1710D01*
X1012000Y1710D01*
X1011000Y1710D01*
X1010000Y1710D01*
X1009000Y1710D01*
X1008000Y1710D01*
X1007000Y1710D01*
X1006000Y1710D01*
X1005000Y1710D01*
X1004000Y1710D01*
X1003000Y1710D01*
X1002000Y1710D01*
X1001000Y1710D01*
X1000000Y1710D01*
X999000Y1710D01*
X998000Y1710D01*
X997000Y1710D01*
X996000Y1710D01*
X995000Y1710D01*
X994000Y1710D01*
X993000Y1710D01*
X992000Y1710D01*
X991000Y1710D01*
X990000Y1710D01*
X989000Y1710D01*
X988000Y1710D01*
X987000Y1710D01*
X986000Y1710D01*
X985000Y1710D01*
X984000Y1710D01*
X983000Y1710D01*
X982000Y1710D01*
X981000Y1710D01*
X980000Y1710D01*
X979000Y1710D01*
X978000Y1710D01*
X977000Y1710D01*
X976000Y1710D01*
X975000Y1710D01*
X974000Y1710D01*
X973000Y1710D01*
X972000Y1710D01*
X971000Y1710D01*
X970000Y1710D01*
X969000Y1710D01*
X968000Y1710D01*
X967000Y1710D01*
X966000Y1710D01*
X965000Y1710D01*
X964000Y1710D01*
X963000Y1710D01*
X962000Y1710D01*
X961000Y1710D01*
X960000Y1710D01*
X959000Y1710D01*
X958000Y1710D01*
X957000Y1710D01*
X956000Y1710D01*
X955000Y1710D01*
X954000Y1710D01*
X953000Y1710D01*
X952000Y1710D01*
X951000Y1710D01*
X950000Y1710D01*
X949000Y1710D01*
X948000Y1710D01*
X947000Y1710D01*
X946000Y1710D01*
X945000Y1710D01*
X944000Y1710D01*
X943000Y1710D01*
X942000Y1710D01*
X941000Y1710D01*
X940000Y1710D01*
X939000Y1710D01*
X938000Y1710D01*
X937000Y1710D01*
X936000Y1710D01*
X935000Y1710D01*
X934000Y1710D01*
X933000Y1710D01*
X932000Y1710D01*
X931000Y1710D01*
X930000Y1710D01*
X929000Y1710D01*
X928000Y1710D01*
X927000Y1710D01*
X926000Y1710D01*
X925000Y1710D01*
X924000Y1710D01*
X923000Y1710D01*
X922000Y1710D01*
X921000Y1710D01*
X920000Y1710D01*
X919000Y1710D01*
X918000Y1710D01*
X917000Y1710D01*
X916000Y1710D01*
X915000Y1710D01*
X914000Y1710D01*
X913000Y1710D01*
X912000Y1710D01*
X911000Y1710D01*
X910000Y1710D01*
X909000Y1710D01*
X908000Y1710D01*
X907000Y1710D01*
X906000Y1710D01*
X905000Y1710D01*
X904000Y1710D01*
X903000Y1710D01*
X902000Y1710D01*
X901000Y1710D01*
X900000Y1710D01*
X899000Y1710D01*
X898000Y1710D01*
X897000Y1710D01*
X896000Y1710D01*
X895000Y1710D01*
X894000Y1710D01*
X893000Y1710D01*
X892000Y1710D01*
X891000Y1710D01*
X890000Y1710D01*
X889000Y1710D01*
X888000Y1710D01*
X887000Y1710D01*
X886000Y1710D01*
X885000Y1710D01*
X884000Y1710D01*
X883000Y1710D01*
X882000Y1710D01*
X881000Y1710D01*
X880000Y1710D01*
X879000Y1710D01*
X878000Y1710D01*
X877000Y1710D01*
X876000Y1710D01*
X875000Y1710D01*
X874000Y1710D01*
X873000Y1710D01*
X872000Y1710D01*
X871000Y1710D01*
X870000Y1710D01*
X869000Y1710D01*
X868000Y1710D01*
X867000Y1710D01*
X866000Y1710D01*
X865000Y1710D01*
X864000Y1710D01*
X863000Y1710D01*
X862000Y1710D01*
X861000Y1710D01*
X860000Y1710D01*
X859000Y1710D01*
X858000Y1710D01*
X857000Y1710D01*
X856000Y1710D01*
X855000Y1710D01*
X854000Y1710D01*
X853000Y1710D01*
X852000Y1710D01*
X851000Y1710D01*
X850000Y1710D01*
X849000Y1710D01*
X848000Y1710D01*
X847000Y1710D01*
X846000Y1710D01*
X845000Y1710D01*
X844000Y1710D01*
X843000Y1710D01*
X842000Y1710D01*
X841000Y1710D01*
X840000Y1710D01*
X839000Y1710D01*
X838000Y1710D01*
X837000Y1710D01*
X836000Y1710D01*
X835000Y1710D01*
X834000Y1710D01*
X833000Y1710D01*
X832000Y1710D01*
X831000Y1710D01*
X830000Y1710D01*
X829000Y1710D01*
X828000Y1710D01*
X827000Y1710D01*
X826000Y1710D01*
X825000Y1710D01*
X824000Y1710D01*
X823000Y1710D01*
X822000Y1710D01*
X821000Y1710D01*
X820000Y1710D01*
X819000Y1710D01*
X818000Y1710D01*
X817000Y1710D01*
X816000Y1710D01*
X815000Y1710D01*
X814000Y1710D01*
X813000Y1710D01*
X812000Y1710D01*
X811000Y1710D01*
X810000Y1710D01*
X809000Y1710D01*
X808000Y1710D01*
X807000Y1710D01*
X806000Y1710D01*
X805000Y1710D01*
X804000Y1710D01*
X803000Y1710D01*
X802000Y1710D01*
X801000Y1710D01*
X800000Y1710D01*
X799000Y1710D01*
X798000Y1710D01*
X797000Y1710D01*
X796000Y1710D01*
X795000Y1710D01*
X794000Y1710D01*
X793000Y1710D01*
X792000Y1710D01*
X791000Y1710D01*
X790000Y1710D01*
X789000Y1710D01*
X788000Y1710D01*
X787000Y1710D01*
X786000Y1710D01*
X785000Y1710D01*
X784000Y1710D01*
X783000Y1710D01*
X782000Y1710D01*
X781000Y1710D01*
X780000Y1710D01*
X779000Y1710D01*
X778000Y1710D01*
X777000Y1710D01*
X776000Y1710D01*
X775000Y1710D01*
X774000Y1710D01*
X773000Y1710D01*
X772000Y1710D01*
X771000Y1710D01*
X770000Y1710D01*
X769000Y1710D01*
X768000Y1710D01*
X767000Y1710D01*
X766000Y1710D01*
X765000Y1710D01*
X764000Y1710D01*
X763000Y1710D01*
X762000Y1710D01*
X761000Y1710D01*
X760000Y1710D01*
X759000Y1710D01*
X758000Y1710D01*
X757000Y1710D01*
X756000Y1710D01*
X755000Y1710D01*
X754000Y1710D01*
X753000Y1710D01*
X752000Y1710D01*
X751000Y1710D01*
X750000Y1710D01*
X749000Y1710D01*
X748000Y1710D01*
X747000Y1710D01*
X746000Y1710D01*
X745000Y1710D01*
X744000Y1710D01*
X743000Y1710D01*
X742000Y1710D01*
X741000Y1710D01*
X740000Y1710D01*
X739000Y1710D01*
X738000Y1710D01*
X737000Y1710D01*
X736000Y1710D01*
X735000Y1710D01*
X734000Y1710D01*
X733000Y1710D01*
X732000Y1710D01*
X731000Y1710D01*
X730000Y1710D01*
X729000Y1710D01*
X728000Y1710D01*
X727000Y1710D01*
X726000Y1710D01*
X725000Y1710D01*
X724000Y1710D01*
X723000Y1710D01*
X722000Y1710D01*
X721000Y1710D01*
X720000Y1710D01*
X719000Y1710D01*
X718000Y1710D01*
X717000Y1710D01*
X716000Y1710D01*
X715000Y1710D01*
X714000Y1710D01*
X713000Y1710D01*
X712000Y1710D01*
X711000Y1710D01*
X710000Y1710D01*
X709000Y1710D01*
X708000Y1710D01*
X707000Y1710D01*
X706000Y1710D01*
X705000Y1710D01*
X704000Y1710D01*
X703000Y1710D01*
X702000Y1710D01*
X701000Y1710D01*
X700000Y1710D01*
X699000Y1710D01*
X698000Y1710D01*
X697000Y1710D01*
X696000Y1710D01*
X695000Y1710D01*
X694000Y1710D01*
X693000Y1710D01*
X692000Y1710D01*
X691000Y1710D01*
X690000Y1710D01*
X689000Y1710D01*
X688000Y1710D01*
X687000Y1710D01*
X686000Y1710D01*
X685000Y1710D01*
X684000Y1710D01*
X683000Y1710D01*
X682000Y1710D01*
X681000Y1710D01*
X680000Y1710D01*
X679000Y1710D01*
X678000Y1710D01*
X677000Y1710D01*
X676000Y1710D01*
X675000Y1710D01*
X674000Y1710D01*
X673000Y1710D01*
X672000Y1710D01*
X671000Y1710D01*
X670000Y1710D01*
X669000Y1710D01*
X668000Y1710D01*
X667000Y1710D01*
X666000Y1710D01*
X665000Y1710D01*
X664000Y1710D01*
X663000Y1710D01*
X662000Y1710D01*
X661000Y1710D01*
X660000Y1710D01*
X659000Y1710D01*
X658000Y1710D01*
X657000Y1710D01*
X656000Y1710D01*
X655000Y1710D01*
X654000Y1710D01*
X653000Y1710D01*
X652000Y1710D01*
X651000Y1710D01*
X650000Y1710D01*
X649000Y1710D01*
X648000Y1710D01*
X647000Y1710D01*
X646000Y1710D01*
X645000Y1710D01*
X644000Y1710D01*
X643000Y1710D01*
X642000Y1710D01*
X641000Y1710D01*
X640000Y1710D01*
X639000Y1710D01*
X638000Y1710D01*
X637000Y1710D01*
X636000Y1710D01*
X635000Y1710D01*
X634000Y1710D01*
X633000Y1710D01*
X632000Y1710D01*
X631000Y1710D01*
X630000Y1710D01*
X629000Y1710D01*
X628000Y1710D01*
X627000Y1710D01*
X626000Y1710D01*
X625000Y1710D01*
X624000Y1710D01*
X623000Y1710D01*
X622000Y1710D01*
X621000Y1710D01*
X620000Y1710D01*
X619000Y1710D01*
X618000Y1710D01*
X617000Y1710D01*
X616000Y1710D01*
X615000Y1710D01*
X614000Y1710D01*
X613000Y1710D01*
X612000Y1710D01*
X611000Y1710D01*
X610000Y1710D01*
X609000Y1710D01*
X608000Y1710D01*
X607000Y1710D01*
X606000Y1710D01*
X605000Y1710D01*
X604000Y1710D01*
X603000Y1710D01*
X602000Y1710D01*
X601000Y1710D01*
X600000Y1710D01*
X599000Y1710D01*
X598000Y1710D01*
X597000Y1710D01*
X596000Y1710D01*
X595000Y1710D01*
X594000Y1710D01*
X593000Y1710D01*
X592000Y1710D01*
X591000Y1710D01*
X590000Y1710D01*
X589000Y1710D01*
X588000Y1710D01*
X587000Y1710D01*
X586000Y1710D01*
X585000Y1710D01*
X584000Y1710D01*
X583000Y1710D01*
X582000Y1710D01*
X581000Y1710D01*
X580000Y1710D01*
X579000Y1710D01*
X578000Y1710D01*
X577000Y1710D01*
X576000Y1710D01*
X575000Y1710D01*
X574000Y1710D01*
X573000Y1710D01*
X572000Y1710D01*
X571000Y1710D01*
X570000Y1710D01*
X569000Y1710D01*
X568000Y1710D01*
X567000Y1710D01*
X566000Y1710D01*
X565000Y1710D01*
X564000Y1710D01*
X563000Y1710D01*
X562000Y1710D01*
X561000Y1710D01*
X560000Y1710D01*
X559000Y1710D01*
X558000Y1710D01*
X557000Y1710D01*
X556000Y1710D01*
X555000Y1710D01*
X554000Y1710D01*
X553000Y1710D01*
X552000Y1710D01*
X551000Y1710D01*
X550000Y1710D01*
X549000Y1710D01*
X548000Y1710D01*
X547000Y1710D01*
X546000Y1710D01*
X545000Y1710D01*
X544000Y1710D01*
X543000Y1710D01*
X542000Y1710D01*
X541000Y1710D01*
X540000Y1710D01*
X539000Y1710D01*
X538000Y1710D01*
X537000Y1710D01*
X536000Y1710D01*
X535000Y1710D01*
X534000Y1710D01*
X533000Y1710D01*
X532000Y1710D01*
X531000Y1710D01*
X530000Y1710D01*
X529000Y1710D01*
X528000Y1710D01*
X527000Y1710D01*
X526000Y1710D01*
X525000Y1710D01*
X524000Y1710D01*
X523000Y1710D01*
X522000Y1710D01*
X521000Y1710D01*
X520000Y1710D01*
X519000Y1710D01*
X518000Y1710D01*
X517000Y1710D01*
X516000Y1710D01*
X515000Y1710D01*
X514000Y1710D01*
X513000Y1710D01*
X512000Y1710D01*
X511000Y1710D01*
X510000Y1710D01*
X509000Y1710D01*
X508000Y1710D01*
X507000Y1710D01*
X506000Y1710D01*
X505000Y1710D01*
X504000Y1710D01*
X503000Y1710D01*
X502000Y1710D01*
X501000Y1710D01*
X500000Y1710D01*
X499000Y1710D01*
X498000Y1710D01*
X497000Y1710D01*
X496000Y1710D01*
X495000Y1710D01*
X494000Y1710D01*
X493000Y1710D01*
X492000Y1710D01*
X491000Y1710D01*
X490000Y1710D01*
X489000Y1710D01*
X488000Y1710D01*
X487000Y1710D01*
X486000Y1710D01*
X485000Y1710D01*
X484000Y1710D01*
X483000Y1710D01*
X482000Y1710D01*
X481000Y1710D01*
X480000Y1710D01*
X479000Y1710D01*
X478000Y1710D01*
X477000Y1710D01*
X476000Y1710D01*
X475000Y1710D01*
X474000Y1710D01*
X473000Y1710D01*
X472000Y1710D01*
X471000Y1710D01*
X470000Y1710D01*
X469000Y1710D01*
X468000Y1710D01*
X467000Y1710D01*
X466000Y1710D01*
X465000Y1710D01*
X464000Y1710D01*
X463000Y1710D01*
X462000Y1710D01*
X461000Y1710D01*
X460000Y1710D01*
X459000Y1710D01*
X458000Y1710D01*
X457000Y1710D01*
X456000Y1710D01*
X455000Y1710D01*
X454000Y1710D01*
X453000Y1710D01*
X452000Y1710D01*
X451000Y1710D01*
X450000Y1710D01*
X449000Y1710D01*
X448000Y1710D01*
X447000Y1710D01*
X446000Y1710D01*
X445000Y1710D01*
X444000Y1710D01*
X443000Y1710D01*
X442000Y1710D01*
X441000Y1710D01*
X440000Y1710D01*
X439000Y1710D01*
X438000Y1710D01*
X437000Y1710D01*
X436000Y1710D01*
X435000Y1710D01*
X434000Y1710D01*
X433000Y1710D01*
X432000Y1710D01*
X431000Y1710D01*
X430000Y1710D01*
X429000Y1710D01*
X428000Y1710D01*
X427000Y1710D01*
X426000Y1710D01*
X425000Y1710D01*
X424000Y1710D01*
X423000Y1710D01*
X422000Y1710D01*
X421000Y1710D01*
X420000Y1710D01*
X419000Y1710D01*
X418000Y1710D01*
X417000Y1710D01*
X416000Y1710D01*
X415000Y1710D01*
X414000Y1710D01*
X413000Y1710D01*
X412000Y1710D01*
X411000Y1710D01*
X410000Y1710D01*
X409000Y1710D01*
X408000Y1710D01*
X407000Y1710D01*
X406000Y1710D01*
X405000Y1710D01*
X404000Y1710D01*
X403000Y1710D01*
X402000Y1710D01*
X401000Y1710D01*
X400000Y1710D01*
X399000Y1710D01*
X398000Y1710D01*
X397000Y1710D01*
X396000Y1710D01*
X395000Y1710D01*
X394000Y1710D01*
X393000Y1710D01*
X392000Y1710D01*
X391000Y1710D01*
X390000Y1710D01*
X389000Y1710D01*
X388000Y1710D01*
X387000Y1710D01*
X386000Y1710D01*
X385000Y1710D01*
X384000Y1710D01*
X383000Y1710D01*
X382000Y1710D01*
X381000Y1710D01*
X380000Y1710D01*
X379000Y1710D01*
X378000Y1710D01*
X377000Y1710D01*
X376000Y1710D01*
X375000Y1710D01*
X374000Y1710D01*
X373000Y1710D01*
X372000Y1710D01*
X371000Y1710D01*
X370000Y1710D01*
X369000Y1710D01*
X368000Y1710D01*
X367000Y1710D01*
X366000Y1710D01*
X365000Y1710D01*
X364000Y1710D01*
X363000Y1710D01*
X362000Y1710D01*
X361000Y1710D01*
X360000Y1710D01*
X359000Y1710D01*
X358000Y1710D01*
X357000Y1710D01*
X356000Y1710D01*
X355000Y1710D01*
X354000Y1710D01*
X353000Y1710D01*
X352000Y1710D01*
X351000Y1710D01*
X350000Y1710D01*
X349000Y1710D01*
X348000Y1710D01*
X347000Y1710D01*
X346000Y1710D01*
X345000Y1710D01*
X344000Y1710D01*
X343000Y1710D01*
X342000Y1710D01*
X341000Y1710D01*
X340000Y1710D01*
X339000Y1710D01*
X338000Y1710D01*
X337000Y1710D01*
X336000Y1710D01*
X335000Y1710D01*
X334000Y1710D01*
X333000Y1710D01*
X332000Y1710D01*
X331000Y1710D01*
X330000Y1710D01*
X329000Y1710D01*
X328000Y1710D01*
X327000Y1710D01*
X326000Y1710D01*
X325000Y1710D01*
X324000Y1710D01*
X323000Y1710D01*
X322000Y1710D01*
X321000Y1710D01*
X320000Y1710D01*
X319000Y1710D01*
X318000Y1710D01*
X317000Y1710D01*
X316000Y1710D01*
X315000Y1710D01*
X314000Y1710D01*
X313000Y1710D01*
X312000Y1710D01*
X311000Y1710D01*
X310000Y1710D01*
X309000Y1710D01*
X308000Y1710D01*
X307000Y1710D01*
X306000Y1710D01*
X305000Y1710D01*
X304000Y1710D01*
X303000Y1710D01*
X302000Y1710D01*
X301000Y1710D01*
X300000Y1710D01*
X299000Y1710D01*
X298000Y1710D01*
X297000Y1710D01*
X296000Y1710D01*
X295000Y1710D01*
X294000Y1710D01*
X293000Y1710D01*
X292000Y1710D01*
X291000Y1710D01*
X290000Y1710D01*
X289000Y1710D01*
X288000Y1710D01*
X287000Y1710D01*
X286000Y1710D01*
X285000Y1710D01*
X284000Y1710D01*
X283000Y1710D01*
X282000Y1710D01*
X281000Y1710D01*
X280000Y1710D01*
X279000Y1710D01*
X278000Y1710D01*
X277000Y1710D01*
X276000Y1710D01*
X275000Y1710D01*
X274000Y1710D01*
X273000Y1710D01*
X272000Y1710D01*
X271000Y1710D01*
X270000Y1710D01*
X269000Y1710D01*
X268000Y1710D01*
X267000Y1710D01*
X266000Y1710D01*
X265000Y1710D01*
X264000Y1710D01*
X263000Y1710D01*
X262000Y1710D01*
X261000Y1710D01*
X260000Y1710D01*
X259000Y1710D01*
X258000Y1710D01*
X257000Y1710D01*
X256000Y1710D01*
X255000Y1710D01*
X254000Y1710D01*
X253000Y1710D01*
X252000Y1710D01*
X251000Y1710D01*
X250000Y1710D01*
X249000Y1710D01*
X248000Y1710D01*
X247000Y1710D01*
X246000Y1710D01*
X245000Y1710D01*
X244000Y1710D01*
X243000Y1710D01*
X242000Y1710D01*
X241000Y1710D01*
X240000Y1710D01*
X239000Y1710D01*
X238000Y1710D01*
X237000Y1710D01*
X236000Y1710D01*
X235000Y1710D01*
X234000Y1710D01*
X233000Y1710D01*
X232000Y1710D01*
X231000Y1710D01*
X230000Y1710D01*
X229000Y1710D01*
X228000Y1710D01*
X227000Y1710D01*
X226000Y1710D01*
X225000Y1710D01*
X224000Y1710D01*
X223000Y1710D01*
X222000Y1710D01*
X221000Y1710D01*
X220000Y1710D01*
X219000Y1710D01*
X218000Y1710D01*
X217000Y1710D01*
X216000Y1710D01*
X215000Y1710D01*
X214000Y1710D01*
X213000Y1710D01*
X212000Y1710D01*
X211000Y1710D01*
X210000Y1710D01*
X209000Y1710D01*
X208000Y1710D01*
X207000Y1710D01*
X206000Y1710D01*
X205000Y1710D01*
X204000Y1710D01*
X203000Y1710D01*
X202000Y1710D01*
X201000Y1710D01*
X200000Y1710D01*
X199000Y1710D01*
X198000Y1710D01*
X197000Y1710D01*
X196000Y1710D01*
X195000Y1710D01*
X194000Y1710D01*
X193000Y1710D01*
X192000Y1710D01*
X191000Y1710D01*
X190000Y1710D01*
X189000Y1710D01*
X188000Y1710D01*
X187000Y1710D01*
X186000Y1710D01*
X185000Y1710D01*
X184000Y1710D01*
X183000Y1710D01*
X182000Y1710D01*
X181000Y1710D01*
X180000Y1710D01*
X179000Y1710D01*
X178000Y1710D01*
X177000Y1710D01*
X176000Y1710D01*
X175000Y1710D01*
X174000Y1710D01*
X173000Y1710D01*
X172000Y1710D01*
X171000Y1710D01*
X170000Y1710D01*
X169000Y1710D01*
X168000Y1710D01*
X167000Y1710D01*
X166000Y1710D01*
X165000Y1710D01*
X164000Y1710D01*
X163000Y1710D01*
X162000Y1710D01*
X161000Y1710D01*
X160000Y1710D01*
X159000Y1710D01*
X158000Y1710D01*
X157000Y1710D01*
X156000Y1710D01*
X155000Y1710D01*
X154000Y1710D01*
X153000Y1710D01*
X152000Y1710D01*
X151000Y1710D01*
X150000Y1710D01*
X149000Y1710D01*
X148000Y1710D01*
X147000Y1710D01*
X146000Y1710D01*
X145000Y1710D01*
X144000Y1710D01*
X143000Y1710D01*
X142000Y1710D01*
X141000Y1710D01*
X140000Y1710D01*
X139000Y1710D01*
X138000Y1710D01*
X137000Y1710D01*
X136000Y1710D01*
X135000Y1710D01*
X134000Y1710D01*
X133000Y1710D01*
X132000Y1710D01*
X131000Y1710D01*
X130000Y1710D01*
X129000Y1710D01*
X128000Y1710D01*
X127000Y1710D01*
X126000Y1710D01*
X125000Y1710D01*
X124000Y1710D01*
X123000Y1710D01*
X122000Y1710D01*
X121000Y1710D01*
X120000Y1710D01*
X119000Y1710D01*
X118000Y1710D01*
X117000Y1710D01*
X116000Y1710D01*
X115000Y1710D01*
X114000Y1710D01*
X113000Y1710D01*
X112000Y1710D01*
X111000Y1710D01*
X110000Y1710D01*
X109000Y1710D01*
X108000Y1710D01*
X107000Y1710D01*
X106000Y1710D01*
X105000Y1710D01*
X104000Y1710D01*
X103000Y1710D01*
X102000Y1710D01*
X101000Y1710D01*
X100000Y1710D01*
X99000Y1710D01*
X98000Y1710D01*
X97000Y1710D01*
X96000Y1710D01*
X95000Y1710D01*
X94000Y1710D01*
X93000Y1710D01*
X92000Y1710D01*
X91000Y1710D01*
X90000Y1710D01*
X89000Y1710D01*
X88000Y1710D01*
X87000Y1710D01*
X86000Y1710D01*
X85000Y1710D01*
X84000Y1710D01*
X83000Y1710D01*
X82000Y1710D01*
X81000Y1710D01*
X80000Y1710D01*
X79000Y1710D01*
X78000Y1710D01*
X77000Y1710D01*
X76000Y1710D01*
X75000Y1710D01*
X74000Y1710D01*
X73000Y1710D01*
X72000Y1710D01*
X71000Y1710D01*
X70000Y1710D01*
X69000Y1710D01*
X68000Y1710D01*
X67000Y1710D01*
X66000Y1710D01*
X65000Y1710D01*
X64000Y1710D01*
X63000Y1710D01*
X62000Y1710D01*
X61000Y1710D01*
X60000Y1710D01*
X59000Y1710D01*
X58000Y1710D01*
X57000Y1710D01*
X56000Y1710D01*
X55000Y1710D01*
X54000Y1710D01*
X53000Y1710D01*
X52000Y1710D01*
X51000Y1710D01*
X50000Y1710D01*
X49000Y1710D01*
X48000Y1710D01*
X47000Y2710D01*
X46000Y2710D01*
X45000Y2710D01*
X44000Y2710D01*
X43000Y2710D01*
X42000Y3710D01*
X41000Y3710D01*
X40000Y3710D01*
X39000Y4710D01*
X38000Y4710D01*
X37000Y4710D01*
X36000Y5710D01*
X35000Y5710D01*
X34000Y6710D01*
X33000Y6710D01*
X32000Y7710D01*
X31000Y7710D01*
X30000Y8710D01*
X29000Y8710D01*
X28000Y9710D01*
X27000Y10710D01*
X26000Y11710D01*
X25000Y11710D01*
X24000Y12710D01*
X23000Y13710D01*
X22000Y14710D01*
X21000Y15710D01*
X20000Y15710D01*
X19000Y16710D01*
X18000Y17710D01*
X18000Y18710D01*
X17000Y19710D01*
X16000Y20710D01*
X15000Y21710D01*
X14000Y22710D01*
X13000Y23710D01*
X13000Y24710D01*
X12000Y25710D01*
X11000Y26710D01*
X11000Y27710D01*
X10000Y28710D01*
X9000Y29710D01*
X9000Y30710D01*
X8000Y31710D01*
X8000Y32710D01*
X7000Y33710D01*
X7000Y34710D01*
X6000Y35710D01*
X6000Y37710D01*
X5000Y38710D01*
X5000Y39710D01*
X4000Y40710D01*
X4000Y42710D01*
X3000Y43710D01*
X3000Y46710D01*
X2000Y47710D01*
X2000Y50710D01*
X1000Y51710D01*
X1000Y57710D01*
X0Y58710D01*
X0Y4273710D01*
X1000Y4274710D01*
X1000Y4280710D01*
X2000Y4281710D01*
X2000Y4284710D01*
X3000Y4285710D01*
X3000Y4288710D01*
X4000Y4289710D01*
X4000Y4291710D01*
X5000Y4292710D01*
X5000Y4293710D01*
X6000Y4294710D01*
X6000Y4296710D01*
X7000Y4297710D01*
X7000Y4298710D01*
X8000Y4299710D01*
X8000Y4300710D01*
X9000Y4301710D01*
X9000Y4302710D01*
X10000Y4303710D01*
X11000Y4304710D01*
X11000Y4305710D01*
X12000Y4306710D01*
X13000Y4307710D01*
X13000Y4308710D01*
X14000Y4309710D01*
X15000Y4310710D01*
X16000Y4311710D01*
X17000Y4312710D01*
X18000Y4313710D01*
X18000Y4314710D01*
X19000Y4315710D01*
X20000Y4316710D01*
X21000Y4316710D01*
X22000Y4317710D01*
X23000Y4318710D01*
X24000Y4319710D01*
X25000Y4320710D01*
X26000Y4321710D01*
X27000Y4321710D01*
X28000Y4322710D01*
X29000Y4323710D01*
X30000Y4323710D01*
X31000Y4324710D01*
X32000Y4324710D01*
X33000Y4325710D01*
X34000Y4325710D01*
X35000Y4326710D01*
X36000Y4326710D01*
X37000Y4327710D01*
X38000Y4327710D01*
X39000Y4327710D01*
X40000Y4328710D01*
X41000Y4328710D01*
X42000Y4328710D01*
X43000Y4329710D01*
X44000Y4329710D01*
X45000Y4329710D01*
X46000Y4329710D01*
X47000Y4329710D01*
X48000Y4330710D01*
D02*
G04 End of contour*
M02*